<svg enable-background="new 0 0 500 500" viewBox="0 0 500 500" xmlns="http://www.w3.org/2000/svg">
	<ellipse cx="250" cy="351.334" fill="#f5f5f5" rx="237.964" ry="135.523"/>
	<path d="m130.958 447.971 137.136-79.586-67.287-39.256-46.008 26.563-91.129 53.022z" fill="#e6e6e6"/>
	<ellipse cx="396.077" cy="384.971" fill="#e6e6e6" rx="55.293" ry="31.924"/>
	<path
		d="m421.354 382.263c-.964-10.798-1.519-20.788 2.802-36.573 3.626-13.246 14.464-27.153 22.493-27.207 7.478-.051 9.818 8.965 3.745 17.605-6.074 8.64-19.477 25.312-19.531 36.596l-1.882 12.962z"
		fill="#27debf"/>
	<path
		d="m421.354 382.263c-.964-10.798-1.519-20.788 2.802-36.573 3.626-13.246 14.464-27.153 22.493-27.207 7.478-.051 9.818 8.965 3.745 17.605-6.074 8.64-19.477 25.312-19.531 36.596l-1.882 12.962z"
		opacity=".2"/>
	<path
		d="m424.446 379.277c.2-.063.342-.252.335-.471-.744-25.242 11.709-47.265 22.94-54.597.221-.144.284-.442.139-.663-.143-.221-.436-.289-.663-.139-11.415 7.451-24.128 29.84-23.374 55.427.007.264.228.472.492.464.047 0 .091-.008.131-.021z"
		fill="#fff"/>
	<path
		d="m431.841 386.987c.169-3.828 3.134-10.788 9.048-17.364 6.542-7.275 15.861-12.126 17.142-16.879 1.539-5.709-3.604-8.305-11.599-5.95-9.61 2.83-19.595 14.833-19.68 37.807z"
		fill="#27debf"/>
	<path
		d="m429.386 383.598c.174-.056.306-.21.328-.404 2.223-20.24 14.886-30.18 21.271-32.609.247-.094.371-.371.278-.618-.094-.248-.361-.374-.618-.277-7.061 2.685-19.614 12.741-21.883 33.4-.029.263.161.5.424.528.07.008.137 0 .2-.02z"
		fill="#fff"/>
	<path
		d="m412.166 400.92c.284 1.161.877 4.448 6.98 4.492 6.104.043 9.623-2.433 10.846-5.527 1.223-3.093.55-5.397.458-8.102s1.931-4.415 2.386-5.873c.67-2.148-1.107-5.125-1.107-5.125z"
		fill="#263238"/>
	<path
		d="m353.6 380.565c-.226.164-.374 2.066.264 2.942.439.603 4.515 3.606 9.573 3.022 5.059-.583 7.535-1.88 10.435-3.563 2.967-1.722 5.01-1.959 8.017-1.928 2.912.03 5.068-.522 5.323-1.276.446-1.323.484-2.172-.155-2.158z"
		fill="#263238"/>
	<path
		d="m425.036 330.414c-1.386-11.063-6.205-18.172-6.205-18.172s-2.661-43.649-4.995-66.577l-45.163-.32s.927 59.441 1.593 68.168c.506 6.628 4.769 48.4 4.778 48.483l.605 6.963c3.53 1.803 6.317 1.556 9.346-.589l.686-6.15c.001-.005 3.853-26.42 4.162-32.729.447-9.166-1.654-15.984-1.654-15.984l5.686-29.589s4.23 20.969 6.619 32.712c2.738 13.453 18.831 57.563 18.835 57.575l1.019 3.667c-.262 3.995 9.362 1.336 9.281-1.807-.002-.001-2.882-31.992-4.593-45.651z"
		fill="#b16668"/>
	<path
		d="m398.712 317.192c-2.389-11.743-4.839-33.275-4.839-33.275l-3.659 30.075c-12.412 5.265-20.901.062-20.901.062-2.036-22.308-.64-68.71-.64-68.71l45.163.32c2.334 22.928 6.472 66.092 6.472 66.092s-3.567 7.386-21.596 5.436z"
		fill="#37474f"/>
	<path d="m393.873 283.917-2.957-14.113s-6.822-1.608-11.674-5.557c0 0 1.758 4.509 9.217 8.003l3.028 13.223-1.019 26.437z" fill="#263238"/>
	<path
		d="m420.346 377.871s-.336-1.213-.337-1.212c-.404.396-.343.74-.363 1.826-.015.852-.025 1.682-.136 2.818-.171 1.737-.347 2.349-.844 4.395-.811 3.34-1.711 4.672-4.093 8.788-.565.977-1.927 2.597-2.329 3.651s-.541 2.988.704 3.736c3.555 2.138 9.069 1.601 12.577-.018 2.699-1.245 4.401-3.8 4.439-6.772.011-.853-.165-1.699-.194-2.551-.065-1.946.636-3.837 1.486-5.589.493-1.016 1.044-2.019 1.314-3.117.484-1.971-.435-3.972-1.194-5.751-.656-1.537-1.421-3.586-1.944-3.355.027.195.196 1.344.196 1.344-.549.825-2.258 1.816-4.295 2.198-1.316.247-4.848.619-4.987-.391z"
		fill="#37474f"/>
	<path
		d="m375.304 364.997c-.466.009-.943.36-1.777 1.56-1.045 1.504-1.957 2.454-4.346 4.11-3.09 2.141-7.959 4.287-12.965 6.119-2.728.998-3.259 2.958-2.372 4.725 1.398 1.419 6.173 4.742 14.072 2.397 4.901-1.455 6.638-3.952 10.135-4.371 2.472-.296 6.756.413 9.294-1.612.808-1.899.185-3.823-.049-6.477-.229-2.585-1.053-6.889-1.894-6.729l-.156 1.4c-.694 3.061-7.75 3.313-9.731 1.295z"
		fill="#37474f"/>
	<path
		d="m339.004 193.066c-4.485-.878-5.833-1.89-10.382-7.94-2.367-3.149-10.957-16.582-12.011-18.176-.468-.708-2.245-2.811-3.798-4.116s-3.015-2.432-3.927-3.841c-1.651-2.552-2.703-5.847-.926-8.779.326-.538.802-1.016.914-1.636.121-.675-.222-1.384-.04-2.046.28-1.014 1.596-1.367 2.13-2.264.02-.033.038-.067.056-.102.376-.745.117-1.639-.148-2.431-.481-1.438-.961-2.876-1.442-4.315-.24-.719-.481-1.438-.721-2.157-.148-.445-.587-1.058-.439-1.543.082-.269.351-.443.623-.516.834-.224 1.689.293 2.302.901 1.438 1.426 2.318 3.497 3.053 5.347.855 2.154 1.85 4.253 2.973 6.279.295.533 1.353 2.444 2.035 1.644.55-.645.622-1.568.684-2.365.056-.72.363-1.587.733-2.205.403-.672 1.722-1.762 2.159-.514.091.26.095.541.097.816.014 1.5.103 2.995.095 4.49-.004.748-.034 1.497-.089 2.243-.029.387-.064.774-.106 1.159-.028.254-.221.842-.135 1.072-.159 1.113-.375 2.229-.329 3.352.069 1.678.863 2.747 1.959 3.929.492.531.994 1.053 1.49 1.58l14.971 17.637 49.064 4.9-9.261 14.422c-.001.001-33.617-3.265-41.584-4.825z"
		fill="#b16668"/>
	<path
		d="m384.088 182.054c-6.522-.631-43.304-3.484-43.304-3.484l-9.049-10.66s-2.8 6.924-9.749 7.333c0 0 6.957 11.235 9.546 14.717 2.59 3.483 3.393 3.125 11.609 4.554 8.215 1.429 33.91 3.378 33.91 3.378z"
		fill="#f0f0f0"/>
	<path
		d="m311.93 144.947c1.587.077 3.045.595 3.66 1.479s2.096 3.728 2.317 4.409.35 1.716-.587 2.189c0 0 .174 1.236-1.056 1.948 0 0 .156 1.253-1.118 2.038 0 0-.014 1.157-.997 1.678 0 0 1.227-.206 1.485-1.478 0 0 1.189-.479 1.077-1.977 0 0 1.23-.567 1.135-1.835 0 0 1.172-.595.893-2.113s-1.363-3.153-2.065-4.355c-.701-1.202-1.44-2.554-4.744-1.983z"
		fill="#9a4a4d"/>
	<path
		d="m410.204 184.508c3.969.705 4.231 2.672 5.1 6.608.432 1.955 1.394 6.156 1.012 9.676l-2.954 23.274 1.014 26.805c-6.388 6.95-31.932 9.179-45.882-1.009-.057-21.281.447-34.192.447-49.906 0-13.017 7.072-17.931 15.287-17.902l14.054 1.196z"
		fill="#27debf"/>
	<path
		d="m395.354 153.299c-.01 2.932-1.07 5.805-2.971 8.038-.757.89-1.898 2.168-3.006 2.573-1.411.517-3.42.081-4.737-.504-1.609-.715-2.96-1.995-3.76-3.563-2.086.379-4.28.477-6.29-.198-1.621-.544-3.736-1.813-4.101-3.587-.561-2.721.305-3.547 1.333-4.496-1.153-.461-1.566-1.766-1.481-2.918s.71-2.212 1.522-3.032c.733-.74 1.665-1.447 2.615-1.881.839-.383 1.544-.94 2.356-1.391 1.856-1.03 3.965-1.567 6.088-1.559 6.89.024 12.456 5.628 12.432 12.518z"
		fill="#263238"/>
	<path
		d="m399.258 155.736c.464-1.245.928-2.49 1.392-3.735.306-.821.626-1.617.834-2.452.363-1.455.984-3.111 2.586-3.544 1.098-.297 2.354.106 3.074.987.833 1.02.695 2.167.341 3.318 1.598-.193 2.626 1.739 2.624 3.2-.003 1.429-.898 2.818-2.198 3.411.969 1.196 1.012 2.943.478 4.386-.535 1.443-1.562 2.644-2.609 3.771-.946 1.018-2.384 2.216-2.843 3.564-.524 1.535-.618 3.127-1.394 4.607-.816 1.558-2.493 1.995-2.493 1.995z"
		fill="#263238"/>
	<path
		d="m399.461 162.623c.762.459 1.856-1.004 2.801-1.986s4.024-2.318 5.546.919c1.551 3.298-1.38 7.639-3.802 8.39-4.175 1.295-4.792-1.383-4.792-1.383l-.37 15.042s-2.754 6.672-10.152 7.649-5.854-5.114-3.416-8.093l.028-4.578s-3.781.561-5.623.269c-3.065-.485-4.987-2.911-5.906-6.235-1.476-5.338-2.028-9.645-.724-20.128 1.429-11.49 14.799-11.564 22.003-6.994 7.204 4.569 4.407 17.128 4.407 17.128z"
		fill="#b16668"/>
	<path
		d="m399.383 163.633c1.206-.348 2.085-2.278 2.88-2.996.546-.494.483-1.698.503-2.352.042-1.346-.056-2.698-.171-4.038-.11-1.286-.235-2.578-.422-3.855-.18-1.231.341-1.672 1.07-2.501.65-.74 1.163-1.609 1.425-2.563.377-1.373.197-2.925-.632-4.082-1.026-1.431-3.163-2.074-4.791-1.313-.066-2.187-1.58-4.259-3.644-4.986-2.063-.727-4.542-.063-5.965 1.599-1.009-1.088-2.123-2.114-3.459-2.762-1.385-.672-3.3-.955-4.742-.312-.98.437-1.779 1.263-2.181 2.257.021-.052-1.945-.758-2.102-.805-.817-.243-1.67-.378-2.524-.332-1.251.067-2.507.548-3.362 1.464-.676.724-1.074 1.7-1.098 2.69-.023.99.328 1.984.969 2.739-1.169-.091-2.32.704-2.754 1.793s-.188 2.391.525 3.322c.534.698 1.589 1.13 2.367 1.527.683.348 1.303.36 2.045.372.342.006 1.523.107 1.714-.282-.604 1.233-.031 2.838 1.102 3.615 1.132.777 2.668.8 3.946.297 1.278-.502 2.325-1.469 3.179-2.544.395 1.831 2.087 3.301 3.954 3.436 1.868.135 3.754-1.075 4.409-2.829-.487 1.303 1.028 2.655 1.941 3.251.487.318 1.038.599 1.603.746.589.153 1.149.078 1.476.712.208.403.226.874.24 1.328.039 1.329.079 2.659.118 3.988.02.675.042 1.363.27 1.999.227.636.698 1.223 1.346 1.414.269.079.524.072.765.003z"
		fill="#263238"/>
	<path d="m385.304 178.582s5.548-.983 7.946-2.247c1.605-.846 3.181-3.123 3.572-4.068 0 0-.207 2.748-2.126 4.483-3.104 2.806-9.397 3.654-9.397 3.654z"
	      fill="#9a4a4d"/>
	<path d="m386.27 160.327c-.003.787.61 1.426 1.367 1.426.758.001 1.374-.637 1.377-1.425.003-.787-.609-1.426-1.367-1.426s-1.374.638-1.377 1.425z"
	      fill="#263238"/>
	<path d="m387.909 156.101 3.04 1.971c.531-.876.281-2.027-.558-2.571-.841-.545-1.951-.276-2.482.6z" fill="#263238"/>
	<path d="m387.965 168.387-5.631 2.407c.728 1.571 2.391 2.353 4.134 1.64 1.566-.64 2.225-2.476 1.497-4.047z" fill="#9a4a4d"/>
	<path d="m386.468 172.434c.905-.37 1.495-1.145 1.701-2.032-.313-.133-.654-.212-1.015-.212-1.391 0-2.517 1.072-2.634 2.432.604.135 1.269.09 1.948-.188z"
	      fill="#f28f8f"/>
	<path d="m374.546 157.507 2.889-1.752c-.458-.822-1.475-1.097-2.273-.613s-1.073 1.542-.616 2.365z" fill="#263238"/>
	<path d="m375.679 159.807c-.003.787.609 1.426 1.367 1.426.757 0 1.374-.637 1.377-1.425.003-.787-.609-1.426-1.367-1.426s-1.375.638-1.377 1.425z"
	      fill="#263238"/>
	<path d="m382.334 158.486-.581 10.092-4.653-1.521z" fill="#9a4a4d"/>
	<path
		d="m412.44 270.395c1.414-2.405 1.878-3.862 3.611-6.334.786-1.12 1.704-1.451 2.478-3.092 1.219-2.586 1.065-9.274 1.219-11.372l11.33.736c-.089 3.858-.588 14.643-1.515 18.719-2.345 10.305-4.606 14.635-9.033 15.635-7.065 1.596-8.807-1.447-6.322-6.549 1.834-3.765 2.265-6.726 2.265-6.726-1.24 1.275-1.796 1.864-2.636 2.354-1.67.972-2.958.201-3.354-.369-.31-.442.851-1.119 1.957-3.002z"
		fill="#b16668"/>
	<path
		d="m410.204 184.508s6.106-.092 9.528 2.995 6.088 11.128 8.312 19.397c2.224 8.27 3.991 15.832 4.577 21.584.491 4.807-1.462 23.169-1.462 23.169s-5.966 2.27-12.038.414l-.855-22.384-8.762-24.876c0 .001-2.892-11.318.7-20.299z"
		fill="#f0f0f0"/>
	<path
		d="m127.291 363.317c.254-3.323 2.556-36.83 2.556-36.83l-16.157 11.899c2.358 19.209 3.319 24.355 3.377 27.555-.025.074-.091.346-.087.819.014 3.8 4.302 5.849 7.647 8.382 1.322 1 5.164 3.955 9.047 5.906 2.43 1.221 7.366 1.332 7.977-.231-4.071-3.108-8.783-6.505-12.02-10.055-1.544-1.694-2.645-3.458-2.34-7.445z"
		fill="#ffbda7"/>
	<path
		d="m148.593 384.908c.209 0 .524 2.301-.61 3.278-1.309 1.129-5.15 2.982-10.226 2.325s-7.824-2.227-9.855-3.928c-2.031-1.7-4.877-4.098-7.173-4.604-2.133-.471-4.449-1.437-5.131-2.096s-.587-3.59-.587-3.59z"
		fill="#263238"/>
	<path
		d="m117.034 365.012s-.637.007-.768.686c-.156.808-.325 3.156-.661 4.482-.466 1.843-.779 5.619-.499 7.121.279 1.502 3.756 2.545 5.978 3.392 2.269.865 4.894 2.646 7.198 4.547 2.385 1.967 7.402 4.013 10.71 3.989 3.914-.028 8.321-1.295 9.331-3.11 1.25-2.245.27-3.547-5.533-6.236-1.099-.509-4.958-2.793-6.273-3.621-3.558-2.24-7.083-5.358-8.72-9.322-.191-.463-.392-.976-.834-1.212-.339-.181-.748-.155-1.128-.102-.967.135-1.912.422-2.793.842-.779.371-1.884.803-1.867 1.801.006.347.106.685.219 1.014.07.203.124.475-.054.595-.168.114-.392-.016-.543-.152-.608-.544-1.053-1.242-1.564-1.878-.274-.341-.573-.667-.919-.936-.314-.244-.715-.366-.994-.644-.354-.352-.269-.788-.286-1.256z"
		fill="#37474f"/>
	<path
		d="m128.281 385.239c-1.012-.835-2.087-1.642-3.166-2.363v-.005s6.825 4.15 9.583 2.266c1.777-1.213.932-2.688.889-3.159s4.34-2.489 6.066-2.693c.481.266.884.48 1.137.597 5.803 2.69 6.783 3.991 5.533 6.236-1.01 1.815-4.203 3.23-9.261 3.23-3.309.001-8.396-2.142-10.781-4.109z"
		fill="#455a64"/>
	<path
		d="m135.11 380.605c3.609 1.443 2.069 2.117 1.059 2.262-1.011.144-7.085-3.404-10.789-6.335-3.864-3.058-6.3-6.4-7.736-7.523-.535-.418-1.111-.933-1.624-1.414.095-.794.172-1.518.245-1.897.131-.678.768-.686.768-.686.017.468-.068.904.285 1.255.279.277.68.399.994.644.346.269.645.595.919.936.511.636.957 1.333 1.564 1.878 3.152 3.999 10.707 9.437 14.315 10.88z"
		fill="#263238"/>
	<path
		d="m135.913 382.336c-.08 0-.159-.026-.226-.081-.153-.125-.176-.35-.05-.502 1.019-1.247 3.956-2.899 6.611-2.607.197.021.339.198.317.393-.021.195-.177.332-.393.317-2.479-.267-5.175 1.361-5.982 2.349-.071.086-.174.131-.277.131z"
		fill="#f0f0f0"/>
	<path
		d="m132.765 380.399c-.08 0-.159-.026-.226-.081-.153-.125-.175-.35-.05-.502 1.018-1.246 3.954-2.896 6.611-2.606.197.021.339.198.317.393-.021.196-.192.338-.393.317-2.48-.263-5.175 1.36-5.982 2.348-.071.086-.173.131-.277.131z"
		fill="#f0f0f0"/>
	<path
		d="m129.616 378.564c-.08 0-.159-.026-.226-.081-.153-.125-.175-.35-.05-.503 1.019-1.247 3.956-2.901 6.611-2.606.197.021.338.198.317.393s-.189.337-.393.317c-2.48-.266-5.175 1.36-5.982 2.348-.071.087-.173.132-.277.132z"
		fill="#f0f0f0"/>
	<path
		d="m126.699 376.468c-.08 0-.159-.026-.226-.081-.153-.125-.175-.35-.05-.502 1.018-1.247 3.966-2.898 6.611-2.606.197.021.339.198.317.393-.021.196-.19.336-.393.317-2.477-.264-5.175 1.36-5.982 2.348-.071.086-.174.131-.277.131z"
		fill="#f0f0f0"/>
	<path
		d="m123.84 374.372c-.078 0-.156-.025-.222-.078-.155-.122-.18-.347-.058-.501 1.4-1.768 4.565-2.933 7.219-2.642.197.021.339.198.317.393-.021.196-.191.332-.393.317-2.39-.26-5.341.808-6.584 2.376-.069.089-.174.135-.279.135z"
		fill="#f0f0f0"/>
	<path
		d="m95.876 338.678-16.113-.292c.239 10.756 1.949 22.696 2.228 32.788.053 1.9-.048 14.762.669 18.671 1.077 5.873 8.048 5.08 8.417 1.565.37-3.515-.449-18.531-.427-20.079-.061-6.472 2.972-17.398 4.563-29.017.078-.571.589-3.08.663-3.636z"
		fill="#ffbda7"/>
	<path d="m93.704 393.856c.145 3.451-.159 5.78-1.174 7.915s-3.248 2.997-5.634 2.642c-2.385-.355-5.523-1.631-6.487-4.524s-1.034-4.935-.825-8.17z"
	      fill="#263238"/>
	<path
		d="m81.95 369.94c-.951.172-.77 4.807-.859 9.476-.095 5.004-1.366 7.197-1.487 11.304-.139 4.693.312 6.737 2.217 9.375 1.904 2.638 7.926 4.807 10.353.511 1.979-3.502 1.71-7.137 1.035-11.741-.698-4.759-1.227-8.103-1.397-11.751-.162-3.487-.261-6.872-1.132-7.174-.013.516-.01 1.168-.028 1.675-.014.389.079 2.276-.456 2.348-.094-.438-.126-.851-.142-1.306-.014-.395-.09-.819-.375-1.092-.288-.275-.715-.33-1.111-.368-.962-.092-1.928-.164-2.895-.154-.481.005-.963.03-1.442.084-.388.044-.843.122-1.197.295-.217.106-.41.288-.471.523-.045.173-.015.356.003.534.032.32.024.645-.024.963-.021.14-.099.317-.24.297-.114-.016-.172-.15-.184-.264-.06-.558-.03-.972-.069-1.625-.018-.302-.01-.716-.037-1.018-.025-.296-.052-.594-.062-.892z"
		fill="#37474f"/>
	<path
		d="m79.689 389.381c-.026.678-.147 5.158 1.138 5.834 1.391.732 1.757-2.818 1.757-2.818s2.964-1.244 7.611.256c-.157.74.768 3.038 1.939 2.416 1.163-.619 1.132-5.741 1.131-5.807.631 4.415.83 7.944-1.091 11.344-2.428 4.295-8.449 2.126-10.353-.511-1.905-2.637-2.356-4.682-2.217-9.375.014-.469.044-.912.085-1.339z"
		fill="#455a64"/>
	<path
		d="m82.962 392.659c.149 1.676-1.561 1.277-1.87-1.08-.31-2.357.421-8.097-.001-12.163.089-4.668-.092-9.304.859-9.476.002.057.009.114.012.171l.11 2.356c.007.343.008.648.047 1.009.32 3.417.502 10.065.521 13.217s.173 4.29.322 5.966z"
		fill="#263238"/>
	<path
		d="m89.673 392.659c.149-1.676.303-2.814.322-5.966.02-3.129.199-9.698.515-13.137.177-.595.132-1.659.142-1.94.017-.473.016-1.069.026-1.566.003-.035.006-.07.007-.106.63.229.853 2.078.991 4.406.015 1.352-.031 3.03-.132 5.066-.421 4.066.318 9.839.008 12.196-.309 2.357-2.028 2.723-1.879 1.047z"
		fill="#263238"/>
	<path
		d="m90.302 392.78c-.045 0-.09-.009-.133-.025-.036-.015-3.694-1.444-7.46-.023-.186.069-.391-.025-.46-.209-.07-.185.024-.39.209-.46 4.029-1.52 7.817-.036 7.977.028.183.073.272.281.198.464-.056.139-.19.225-.331.225z"
		fill="#f0f0f0"/>
	<path
		d="m90.737 389.065c-.04 0-.081-.007-.121-.021s-4.136-1.455-8.352-.022c-.187.06-.389-.037-.453-.224-.063-.187.037-.39.224-.453 4.459-1.513 8.647-.036 8.824.026.186.068.282.272.215.458-.053.145-.191.236-.337.236z"
		fill="#f0f0f0"/>
	<path
		d="m82.149 385.547c-.136 0-.266-.078-.326-.209-.081-.18-.002-.392.177-.474 4.15-1.887 8.615-.13 8.804-.054.183.073.272.281.198.464-.074.182-.285.268-.464.198-.042-.017-4.38-1.719-8.241.042-.047.023-.098.033-.148.033z"
		fill="#f0f0f0"/>
	<path
		d="m82.068 382.267c-.133 0-.261-.075-.322-.203-.085-.179-.01-.392.168-.476 4.556-2.168 8.799-.184 8.977-.098.178.085.253.298.168.476s-.303.255-.476.168c-.039-.02-4.121-1.918-8.361.098-.05.024-.103.035-.154.035z"
		fill="#f0f0f0"/>
	<path
		d="m81.992 378.581c-.131 0-.258-.073-.32-.199-.087-.177-.015-.391.162-.478 4.262-2.104 8.857-.094 9.05-.006.18.08.26.292.179.472-.08.18-.29.263-.472.179-.045-.02-4.484-1.959-8.441-.005-.051.025-.105.037-.158.037z"
		fill="#ebebeb"/>
	<path
		d="m88.524 225.527c-1.59 3.707-5.759 14.555-6.595 21.582-3.091 25.976.003 57.256.003 57.256-.211 2.488-2.035 8.117-2.848 19.089-.801 10.811 1.257 28.969 1.257 28.969s6.818 3.019 13.506.382c0 0 6.319-33.475 7.942-46.341 1.416-11.228 5.377-35.52 5.377-35.52l4.634 35.925s-.429 10.102-.13 16.632c.348 7.595 3.657 28.921 3.657 28.921s8.36 4.238 13.112-.872c0 0 2.748-37.197 2.909-46.338.316-17.928-.522-50.342-3.436-69.14z"
		fill="#455a64"/>
	<path d="m107.166 270.944 1.662-11.43s9.654-1.29 14.027-5.402c0 0-3.286 6.021-11.375 7.189l-1.708 10.336 1.472 30.927z" fill="#37474f"/>
	<path
		d="m115.234 180.575c6.122.459 11.744.22 17.018 7.782 4.09 5.865 9.905 21.096 12.576 27.025 1.715 3.807 1.229 5.861-.372 8.341-2.213 3.427-15.596 19.754-15.596 19.754-3.74-1.229-6.286-4.54-6.046-9.079l8.851-14.307-9.392-18.705z"
		fill="#ffbda7"/>
	<path d="m131.665 220.091c2.165-1.526 7.967-1.267 9.415-.448 0 0-3.162-3.85-10.106-.926z" fill="#f0997a"/>
	<path d="m114.866 180.271c9.601.049 13.616 1.766 16.903 5.947 2.304 2.93 10.387 22.185 10.387 22.185s-1.619 4.898-13.053 7.39l-5.725-12.809z"
	      fill="#e0e0e0"/>
	<path
		d="m127.185 210.181c-.423 4.697-.505 17.356-.505 17.356 1.699 12.01 2.872 18.802 2.872 18.802-15.584 13.48-42.384 6.819-48.329.976 2.432-13.68 6.599-22.004 6.599-22.004l-.309-4.798-3.281-16.983s8.157-9.994 7.455-23.045l10.595-1.099 10.115.286 7.185.51c2.14 2.001 5.968 6.183 9.393 11.712 3.484 5.625 3.615 12.625-1.79 18.287z"
		fill="#f5f5f5"/>
	<path d="m100.089 173.625c-1.3-1.617-2.655-2.579-4.962-6.766-2.307-4.188-4.66-14.486.126-20.81s15.62-10.084 21.996-7.093 8.165 10.283 8.165 10.283z"/>
	<path
		d="m96.979 147.319c-3.024-4.972-10.852-5.555-15.664-2.692s-7.073 7.254-5.512 13.209.951 9.122-2.658 12.484c-5.46 5.087-.967 11.938 3.394 14.762 4.513 2.922 1.772 6.161 3.87 8.698 2.098 2.536 9.028-.221 9.726-6.404.648-5.75-8.11-9.265-3.709-15.309 3.417-4.694 3.603-8.61 1.855-13.981-1.748-5.37.991-10.07 6.33-7.853z"/>
	<path
		d="m92.632 158.408c.894-1.026 2.126-1.473 3.435-1.035 1.128.377 2.138 1.248 2.699 2.295.14.262.257.538.437.773.181.235.441.43.737.447.454.025.821-.361 1.062-.746.421-.671.676-1.432 1.019-2.146.306-.637.727-1.338 1.355-1.707.598-.351 1.129-.759 1.606-1.273.939-1.011 1.603-2.281 1.872-3.636.291-1.466.162-3.076.954-4.343.589-.942 1.596-1.531 2.589-2.028 1.492-.747 3.18-1.686 4.868-1.615.967.041 1.939-.095 2.912-.055.811.034 2.181-.049 2.913.325 2.392 1.223 5.736 3.834 5.219 16.021-.404 9.522-3.883 13.91-5.518 14.747-1.634.837-3.637 1.029-6.817.696v5.417s4.202 3.512 1.979 8.459c0 0-4.974-.618-8.865-2.547-6.29-3.119-6.906-5.972-6.906-5.972l-.177-14.444s-2.12 2.977-5.429.422c-2.732-2.109-3.839-5.88-1.944-8.055z"
		fill="#ffbda7"/>
	<path
		d="m125.366 149.073c-6.813-1.657-15.16-.418-22.058 2.857.387-1.006.929-1.959 1.572-2.826 2.268-3.035 5.783-4.924 9.484-5.543 2.222-.364 4.506-.294 6.728.101 1.425.727 3.191 1.951 4.274 5.411z"
		fill="#ffbda7"/>
	<path d="m112.909 157.683c.078.808-.521 1.545-1.337 1.645-.816.101-1.541-.472-1.619-1.28-.077-.808.521-1.544 1.337-1.645.817-.101 1.541.473 1.619 1.28z"/>
	<path d="m121.348 153.295 3.196-1.038c.322.879-.132 1.823-1.014 2.11-.883.286-1.86-.194-2.182-1.072z"/>
	<path d="m109.054 152.771 3.278.737c-.171.92-1.044 1.501-1.949 1.297-.905-.203-1.5-1.114-1.329-2.034z"/>
	<path d="m115.72 169.379-3.661-1.462c.369-1.034 1.725-1.424 2.737-1.02 1.011.404 1.293 1.449.924 2.482z" fill="#f0997a"/>
	<path d="m124.187 156.937c.078.808-.52 1.544-1.336 1.645s-1.54-.473-1.617-1.28c-.078-.808.52-1.544 1.335-1.645s1.54.472 1.618 1.28z"/>
	<path d="m116.899 155.645.097 8.746 4.853-1.219z" fill="#f0997a"/>
	<path d="m113.975 175.129c-3.354-.498-10.465-2.292-11.694-4.925 0 0 .588 2.145 2.733 3.768 2.146 1.623 8.961 3.074 8.961 3.074z" fill="#f0997a"/>
	<path
		d="m125.483 149.097c-.039-.008-.078-.015-.116-.023-6.813-1.657-15.16-.418-22.058 2.857-.225.101-.449.217-.674.325h-.008c-2.594 1.308-5.151 3.131-7.126 4.982-1.169-.177-2.527.443-3.265 1.723-.345-1.193-1.238-2.929-1.385-4.114-1.154-9.314.249-15.624 14.649-19.4 10.019-2.627 17.125.887 19.148 8.456.357 1.34.533 3.792.835 5.194z"
		fill="#27debf"/>
	<path
		d="m102.474 150.925c.323-.299 1.81-3.755 7.375-6.925 3.434-1.956 10.575-2.247 13.78-2.283 5.612-.063 6.985 1.093 7.078 1.917.022.195.126 1.101.157 1.307.032.205-.017.391-.103.535-.806 1.296-5.276 3.624-5.276 3.624-7.064-1.75-15.788-.382-22.846 3.158z"
		fill="#27debf"/>
	<path
		d="m102.474 150.925c.323-.299 1.81-3.755 7.375-6.925 3.434-1.956 10.575-2.247 13.78-2.283 5.612-.063 6.985 1.093 7.078 1.917.022.195.126 1.101.157 1.307.032.205-.017.391-.103.535-.806 1.296-5.276 3.624-5.276 3.624-7.064-1.75-15.788-.382-22.846 3.158z"
		opacity=".15"/>
	<path
		d="m102.639 152.257c7.058-3.54 15.782-4.908 22.846-3.158 0 0 4.471-2.328 5.276-3.624.43-.716-.025-2.505-6.967-2.426-3.205.036-10.346.326-13.78 2.283-5.565 3.17-7.052 6.625-7.375 6.925z"
		fill="#27debf"/>
	<path
		d="m102.639 152.257c7.058-3.54 15.782-4.908 22.846-3.158 0 0 4.471-2.328 5.276-3.624.43-.716-.025-2.505-6.967-2.426-3.205.036-10.346.326-13.78 2.283-5.565 3.17-7.052 6.625-7.375 6.925z"
		opacity=".3"/>
	<path
		d="m129.934 192.636c-2.165-3.67-6.42-10.126-10.353-12.454-2.028-1.201-3.057-1.727-5.605-1.727v1.471s3.29.875 7.025 5.044c3.736 4.169 4.958 7.876 4.958 7.876z"
		fill="#27debf"/>
	<path d="m100.182 180.485c-.44.505-.617 2.714-.293 6.109.323 3.395.91 10.185.91 10.185l-4.395 1.304s-.267-6.382 0-11.986 1.706-7.088 3.751-7.643z"
	      fill="#27debf"/>
	<g opacity=".25">
		<path
			d="m129.934 192.636c-2.165-3.67-6.42-10.126-10.353-12.454-2.028-1.201-3.057-1.727-5.605-1.727v1.471s3.29.875 7.025 5.044c3.736 4.169 4.958 7.876 4.958 7.876z"/>
		<path d="m100.182 180.485c-.44.505-.617 2.714-.293 6.109.323 3.395.91 10.185.91 10.185l-4.395 1.304s-.267-6.382 0-11.986 1.706-7.088 3.751-7.643z"/>
	</g>
	<path
		d="m95.459 197.225c1.976-1.969 33.679-5.802 34.475-4.59 4.764 7.263-.83 25.421-3.254 30.089 0 0-9.052 6.226-29.491 3.258 0 .001-3.706-26.788-1.73-28.757z"
		fill="#27debf"/>
	<path
		d="m97.082 228.413c-4.412 6.144-11.059 33.925-10.547 50.407 0 0 17.508 4.636 31.216 2.08 14.498-2.704 16.079-7.457 16.079-7.457s-1.581-22.702-7.15-45.906z"
		fill="#27debf"/>
	<path d="m126.68 222.725c-5.539 3.445-27.649 6.962-39.168-2.212l.309 4.798s2.531 5.616 18.561 6.097c16.03.48 20.298-3.871 20.298-3.871z" fill="#27debf"/>
	<path d="m126.68 222.725c-5.539 3.445-27.649 6.962-39.168-2.212l.309 4.798s2.531 5.616 18.561 6.097c16.03.48 20.298-3.871 20.298-3.871z" opacity=".2"/>
	<path
		d="m35.872 184.901c1.348 1.055 6.677 6.338 9.901 7.266 1.366.393 1.782.233 1.788-.139.009-.507-.741-1.408-.887-1.847-.253-.762-1.969-4.059-.855-5.43s1.612.211 3.322 2.559 3.68 3.394 5.075 6.034 1.367 6.428 3.884 9.592l10.463 10.088s9.864-24.641 12.795-27.241c3.079-2.733 12.685 5.476 8.653 15.149-4.032 9.674-11.957 26.825-16.194 29.635-2.741 1.818-7.377-1.129-12.661-7.726-4.173-5.21-9.796-12.952-12.212-15.734-2.417-2.782-8.171-5.074-10.621-7.143-2.631-2.221-3.102-3.332-3.839-5.793-.694-2.319.361-5.662-.045-7.062s.085-3.262 1.433-2.208z"
		fill="#ffbda7"/>
	<path
		d="m91.684 180.632c1.767 2.141 1.724 7.154 1.36 11.772-.29 3.678-1.202 7.124-3.65 11.805-2.455 4.695-5.986 12.032-5.986 12.032s-9.201-2.348-13.55-7.62c0 0 3-7.051 5.894-14.128 2.892-7.078 4.408-12.752 15.932-13.861z"
		fill="#e0e0e0"/>
	<path d="m68.563 213.025c2.445 1.962 3.481 5.46 3.762 6.82 0 0 .688-4.55-3.259-8.089z" fill="#f0997a"/>
	<path d="m94.525 147.577c-.002-.062-.011-.096 0 0z" fill="#f28f8f"/>
	<path
		d="m95.851 148.392c-.24-.619-.714-1.15-1.265-1.512-.3-.197-.86-.306-1.039.115-.18.424.096.888.437 1.135.019.013.037.027.055.041.035.035.074.069.106.104.003.003.003.003.006.006.023.034.047.066.069.101l.004.006c.021.048.042.095.06.145.008.042.019.084.026.126.01.056.008.117.021.171-.006-.027-.008-.034-.011-.051.002.019.005.039.004.057-.003.101-.012.203-.029.303-.002.011-.001.007-.002.015-.001.003 0-.001-.001.003-.015.049-.028.099-.044.148-.034.105-.076.208-.12.309-.023.053-.048.106-.075.158-.001.002-.001.002-.002.003.006-.008.01-.016.018-.024-.009.01-.015.022-.022.032-.03.057-.034.054-.02.029-.054.075-.103.158-.16.229-.065.081-.135.159-.209.232-.04.04-.083.077-.125.116-.01.007-.008.004-.026.018-.085.062-.174.118-.266.169-.053.029-.107.056-.161.082-.019.009-.039.017-.058.025-.211.036-.419.135-.614.215-.303.125-.383.486-.281.775.118.332.407.662.768.73.302.057.596.077.894-.014.245-.075.489-.169.71-.299.38-.223.732-.536.985-.898.581-.833.736-1.847.367-2.8z"
		fill="#fff"/>
	<path d="m94.15 148.538c-.013.014-.022.025-.029.034.008-.009.015-.018.023-.026.002-.003.003-.004.006-.008z" fill="#f28f8f"/>
	<path
		d="m100.199 147.356c-.417.026-.817.227-1.221.33-.015.004-.059.013-.084.019-.013.002-.025.004-.03.005-.083.012-.166.021-.249.027-.081.005-.163.006-.245.004-.034-.001-.069-.006-.103-.005h.03c-.003 0-.008 0-.011-.001-.076-.011-.153-.025-.227-.044-.025-.006-.05-.013-.074-.02-.057-.025-.113-.05-.169-.077-.014-.009-.031-.02-.034-.022-.012-.009-.024-.019-.036-.028-.025-.033-.052-.065-.082-.096-.01-.017-.02-.034-.029-.05-.019-.045-.04-.089-.055-.132-.015-.042-.027-.084-.038-.127-.002-.009-.004-.018-.006-.028.007-.085-.022-.193-.023-.278-.001-.053.001-.106.003-.158.001-.017.007-.082.008-.103.002-.016.005-.036.006-.042.005-.03.01-.06.015-.089.013-.069.028-.138.045-.207.088-.366-.117-.802-.441-.99-.309-.179-.646-.151-.788.206-.188.471-.3.988-.251 1.497.051.535.275 1.03.639 1.427.633.689 1.587 1.02 2.513.911.257-.03.536-.077.778-.172.147-.058.307-.143.433-.228.039-.026.073-.054.107-.087.015-.014.029-.029.044-.043.057-.057.114-.113.171-.17.065-.099.099-.208.103-.328.071-.389-.274-.927-.699-.901z"
		fill="#fff"/>
	<path
		d="m97.356 154.044c.149-.41.123-.878.193-1.308.003-.016.012-.062.017-.089.003-.013.006-.026.008-.031.023-.085.049-.168.078-.25.029-.08.062-.159.098-.236.015-.032.034-.063.048-.096-.006.015-.008.017-.013.029.002-.003.003-.007.005-.01.042-.069.088-.136.137-.2.016-.021.033-.042.05-.063.048-.044.095-.088.144-.13.014-.01.032-.022.036-.024.014-.008.028-.015.042-.023.042-.01.084-.023.127-.038.02-.002.04-.005.061-.007.05.001.101-.001.149.003.046.003.092.009.137.016.01.002.019.003.029.005.078.042.194.059.276.094.051.021.101.045.15.069.016.008.076.041.095.051.015.009.032.02.038.024.027.017.053.034.079.052.061.041.121.085.18.129.314.237.817.223 1.133-.01.301-.222.414-.557.132-.842-.373-.376-.822-.7-1.33-.865-.534-.174-1.102-.166-1.634.017-.924.319-1.64 1.096-1.922 2.028-.078.259-.15.545-.16.818-.006.165.009.353.038.51.009.048.022.092.038.139.007.02.016.04.023.06.03.078.061.156.092.234.068.104.158.182.271.235.343.233 1.003.127 1.155-.291z"
		fill="#fff"/>
	<path d="m248.986 373.781-40.274-23.194 40.273-23.194z" fill="#27debf"/>
	<path d="m248.986 373.781-40.274-23.194 40.273-23.194z" opacity=".35"/>
	<path d="m131.872 441.398v-111.084l-58.558-33.808v111.083z" fill="#27debf"/>
	<path d="m131.872 441.398v-111.084l-58.558-33.808v111.083z" opacity=".1"/>
	<path d="m257.351 310.995v-53.127l-125.479 72.446-.001 53.127v2.415 2.415l.001 53.127 8.365-4.83v-41.559l108.748-62.786.001 41.558 8.366-4.83v-57.956z"
	      fill="#27debf"/>
	<path d="m257.351 310.995v-53.127l-125.479 72.446-.001 53.127v2.415 2.415l.001 53.127 8.365-4.83v-41.559l108.748-62.786.001 41.558 8.366-4.83v-57.956z"
	      opacity=".2"/>
	<path d="m127.689 332.728 133.844-77.275-58.557-33.807-46.008 26.563-87.837 50.712z" fill="#27debf"/>
	<path d="m127.689 332.728 133.844-77.275-58.557-33.807-46.008 26.563-87.837 50.712z" fill="#fff" opacity=".6"/>
	<path d="m69.131 298.921v9.659l58.557 33.808.001-9.66z" fill="#27debf"/>
	<path d="m69.131 298.921v9.659l58.557 33.808.001-9.66z" fill="#fff" opacity=".3"/>
	<path d="m257.35 267.527-125.478 72.445-.001 2.416 125.481-72.446z" opacity=".15"/>
	<path d="m127.688 342.388 133.846-77.275-.001-9.66-133.844 77.275z" fill="#27debf"/>
	<path d="m131.872 339.972-2.091 1.208 2.092 1.208z" opacity=".15"/>
	<path d="m115.211 278.319-34.323 19.803 48.049 27.741 34.309-19.811z" opacity=".15"/>
	<path d="m115.218 276.919-34.323 19.802 48.049 27.741 34.309-19.81z" fill="#fafafa"/>
	<g fill="#27debf">
		<path d="m128.716 288.542c-.846 0-1.532.594-1.532 1.327s.686 1.327 1.532 1.327 1.532-.594 1.532-1.327-.686-1.327-1.532-1.327z"/>
		<path d="m122.596 309.743c-.846 0-1.532.594-1.532 1.327s.686 1.327 1.532 1.327 1.532-.594 1.532-1.327-.686-1.327-1.532-1.327z"/>
		<path d="m128.716 293.842c-.846 0-1.532.594-1.532 1.327s.686 1.327 1.532 1.327 1.532-.594 1.532-1.327-.686-1.327-1.532-1.327z"/>
		<path d="m128.716 285.895c.482 0 .893-.204 1.174-.505l-2.502-1.445c-.119.188-.204.394-.204.623 0 .733.686 1.327 1.532 1.327z"/>
		<path d="m128.716 299.143c-.846 0-1.532.594-1.532 1.327s.686 1.327 1.532 1.327 1.532-.594 1.532-1.327-.686-1.327-1.532-1.327z"/>
		<path d="m122.596 315.044c-.846 0-1.532.594-1.532 1.327s.686 1.327 1.532 1.327 1.532-.594 1.532-1.327-.686-1.327-1.532-1.327z"/>
		<path d="m128.716 315.044c-.846 0-1.532.594-1.532 1.327s.686 1.327 1.532 1.327 1.532-.594 1.532-1.327-.686-1.327-1.532-1.327z"/>
		<path d="m128.716 304.443c-.846 0-1.532.594-1.532 1.327s.686 1.327 1.532 1.327 1.532-.594 1.532-1.327-.686-1.327-1.532-1.327z"/>
		<path d="m116.475 309.743c-.846 0-1.532.594-1.532 1.327s.686 1.327 1.532 1.327 1.532-.594 1.532-1.327-.686-1.327-1.532-1.327z"/>
		<ellipse cx="116.475" cy="305.77" rx="1.532" ry="1.327"/>
		<path d="m128.716 309.743c-.846 0-1.532.594-1.532 1.327s.686 1.327 1.532 1.327 1.532-.594 1.532-1.327-.686-1.327-1.532-1.327z"/>
		<path d="m122.596 283.242c-.846 0-1.532.594-1.532 1.327s.686 1.327 1.532 1.327 1.532-.594 1.532-1.327-.686-1.327-1.532-1.327z"/>
		<path d="m122.596 299.143c-.846 0-1.532.594-1.532 1.327s.686 1.327 1.532 1.327 1.532-.594 1.532-1.327-.686-1.327-1.532-1.327z"/>
		<path d="m122.596 288.542c-.846 0-1.532.594-1.532 1.327s.686 1.327 1.532 1.327 1.532-.594 1.532-1.327-.686-1.327-1.532-1.327z"/>
		<path d="m122.596 304.443c-.846 0-1.532.594-1.532 1.327s.686 1.327 1.532 1.327 1.532-.594 1.532-1.327-.686-1.327-1.532-1.327z"/>
		<path d="m122.596 293.842c-.846 0-1.532.594-1.532 1.327s.686 1.327 1.532 1.327 1.532-.594 1.532-1.327-.686-1.327-1.532-1.327z"/>
		<path d="m118.007 316.37c0-.733-.686-1.327-1.532-1.327s-1.532.594-1.532 1.327c0 .003.002.006.002.01l2.106 1.216c.56-.197.956-.67.956-1.226z"/>
		<path d="m134.836 288.542c-.846 0-1.532.594-1.532 1.327s.686 1.327 1.532 1.327 1.532-.594 1.532-1.327-.686-1.327-1.532-1.327z"/>
		<path d="m147.077 299.143c-.846 0-1.532.594-1.532 1.327s.686 1.327 1.532 1.327 1.532-.594 1.532-1.327-.686-1.327-1.532-1.327z"/>
		<ellipse cx="140.957" cy="305.77" rx="1.532" ry="1.327"/>
		<path d="m140.957 309.743c-.846 0-1.532.594-1.532 1.327s.686 1.327 1.532 1.327 1.532-.594 1.532-1.327-.686-1.327-1.532-1.327z"/>
		<path
			d="m159.318 304.443c-.846 0-1.532.594-1.532 1.327 0 .662.57 1.187 1.303 1.287l1.689-.975c.029-.103.073-.201.073-.311-.001-.734-.687-1.328-1.533-1.328z"/>
		<path d="m111.887 279.268c0-.134-.045-.255-.088-.377l-2.404 1.387c.265.189.59.316.96.316.846.001 1.532-.593 1.532-1.326z"/>
		<path d="m116.475 299.143c-.846 0-1.532.594-1.532 1.327s.686 1.327 1.532 1.327 1.532-.594 1.532-1.327-.686-1.327-1.532-1.327z"/>
		<path d="m147.077 309.743c-.846 0-1.532.594-1.532 1.327s.686 1.327 1.532 1.327 1.532-.594 1.532-1.327-.686-1.327-1.532-1.327z"/>
		<ellipse cx="134.836" cy="305.77" rx="1.532" ry="1.327"/>
		<path d="m134.836 299.143c-.846 0-1.532.594-1.532 1.327s.686 1.327 1.532 1.327 1.532-.594 1.532-1.327-.686-1.327-1.532-1.327z"/>
		<path d="m134.836 293.842c-.846 0-1.532.594-1.532 1.327s.686 1.327 1.532 1.327 1.532-.594 1.532-1.327-.686-1.327-1.532-1.327z"/>
		<path d="m140.957 299.143c-.846 0-1.532.594-1.532 1.327s.686 1.327 1.532 1.327 1.532-.594 1.532-1.327-.686-1.327-1.532-1.327z"/>
		<path d="m134.836 315.044c-.846 0-1.532.594-1.532 1.327s.686 1.327 1.532 1.327 1.532-.594 1.532-1.327-.686-1.327-1.532-1.327z"/>
		<path d="m140.957 293.842c-.846 0-1.532.594-1.532 1.327s.686 1.327 1.532 1.327 1.532-.594 1.532-1.327-.686-1.327-1.532-1.327z"/>
		<path d="m134.836 309.743c-.846 0-1.532.594-1.532 1.327s.686 1.327 1.532 1.327 1.532-.594 1.532-1.327-.686-1.327-1.532-1.327z"/>
		<path d="m147.077 304.443c-.846 0-1.532.594-1.532 1.327s.686 1.327 1.532 1.327 1.532-.594 1.532-1.327-.686-1.327-1.532-1.327z"/>
		<path d="m124.128 321.671c0-.733-.686-1.327-1.532-1.327-.213 0-.416.038-.6.107l2.13 1.229c-.001-.003.002-.006.002-.009z"/>
		<path d="m98.114 288.542c-.846 0-1.532.594-1.532 1.327s.686 1.327 1.532 1.327 1.532-.594 1.532-1.327-.685-1.327-1.532-1.327z"/>
		<path d="m104.235 309.743c-.213 0-.416.038-.6.106l2.13 1.23c0-.003.002-.006.002-.01 0-.732-.686-1.326-1.532-1.326z"/>
		<path
			d="m85.874 296.496c.846 0 1.532-.594 1.532-1.327 0-.73-.682-1.321-1.523-1.325l-1.423.821c-.074.156-.118.325-.118.504 0 .733.686 1.327 1.532 1.327z"/>
		<path d="m99.646 305.77c0-.733-.686-1.327-1.532-1.327s-1.532.594-1.532 1.327c0 .003.002.006.002.01l2.106 1.216c.561-.198.956-.671.956-1.226z"/>
		<path d="m93.526 289.869c0-.136-.045-.26-.089-.383l-2.409 1.39c.265.191.594.32.966.32.846-.001 1.532-.595 1.532-1.327z"/>
		<path d="m91.994 299.143c-.846 0-1.532.594-1.532 1.327s.686 1.327 1.532 1.327 1.532-.594 1.532-1.327-.686-1.327-1.532-1.327z"/>
		<path d="m91.994 293.842c-.846 0-1.532.594-1.532 1.327s.686 1.327 1.532 1.327 1.532-.594 1.532-1.327-.686-1.327-1.532-1.327z"/>
		<path d="m85.874 299.143c-.213 0-.416.038-.6.107l2.13 1.23c0-.003.002-.006.002-.01 0-.733-.686-1.327-1.532-1.327z"/>
		<path d="m153.197 301.796c.846 0 1.532-.594 1.532-1.327s-.686-1.327-1.532-1.327-1.532.594-1.532 1.327c.001.733.686 1.327 1.532 1.327z"/>
		<ellipse cx="153.197" cy="305.77" rx="1.532" ry="1.327"/>
		<path d="m145.545 295.169c0 .733.686 1.327 1.532 1.327.481 0 .893-.204 1.174-.505l-2.502-1.445c-.119.188-.204.393-.204.623z"/>
		<path d="m116.475 293.842c-.846 0-1.532.594-1.532 1.327s.686 1.327 1.532 1.327 1.532-.594 1.532-1.327-.686-1.327-1.532-1.327z"/>
		<path d="m130.248 321.671c0-.733-.686-1.327-1.532-1.327s-1.532.594-1.532 1.327.686 1.327 1.532 1.327c.846-.001 1.532-.595 1.532-1.327z"/>
		<path
			d="m140.957 315.044c-.846 0-1.532.594-1.532 1.327 0 .663.571 1.188 1.305 1.287l1.686-.974c.03-.103.073-.202.073-.313 0-.734-.686-1.327-1.532-1.327z"/>
		<path d="m151.666 311.07c0 .085.038.159.056.24l2.301-1.329c-.242-.138-.514-.238-.825-.238-.847 0-1.532.594-1.532 1.327z"/>
		<path d="m134.836 320.344c-.846 0-1.532.594-1.532 1.327 0 .086.038.16.056.241l2.302-1.329c-.241-.139-.514-.239-.826-.239z"/>
		<path d="m110.355 299.143c-.846 0-1.532.594-1.532 1.327s.686 1.327 1.532 1.327 1.532-.594 1.532-1.327-.686-1.327-1.532-1.327z"/>
		<path d="m110.355 309.743c-.846 0-1.532.594-1.532 1.327s.686 1.327 1.532 1.327 1.532-.594 1.532-1.327-.686-1.327-1.532-1.327z"/>
		<path d="m110.355 288.542c-.846 0-1.532.594-1.532 1.327s.686 1.327 1.532 1.327 1.532-.594 1.532-1.327-.686-1.327-1.532-1.327z"/>
		<path d="m110.355 293.842c-.846 0-1.532.594-1.532 1.327s.686 1.327 1.532 1.327 1.532-.594 1.532-1.327-.686-1.327-1.532-1.327z"/>
		<path d="m110.355 304.443c-.846 0-1.532.594-1.532 1.327s.686 1.327 1.532 1.327 1.532-.594 1.532-1.327-.686-1.327-1.532-1.327z"/>
		<path d="m116.475 288.542c-.846 0-1.532.594-1.532 1.327s.686 1.327 1.532 1.327 1.532-.594 1.532-1.327-.686-1.327-1.532-1.327z"/>
		<path d="m116.475 277.941c-.846 0-1.532.594-1.532 1.327s.686 1.327 1.532 1.327 1.532-.594 1.532-1.327-.686-1.327-1.532-1.327z"/>
		<path d="m116.475 283.242c-.846 0-1.532.594-1.532 1.327s.686 1.327 1.532 1.327 1.532-.594 1.532-1.327-.686-1.327-1.532-1.327z"/>
		<path d="m104.235 288.542c-.846 0-1.532.594-1.532 1.327s.686 1.327 1.532 1.327 1.532-.594 1.532-1.327-.686-1.327-1.532-1.327z"/>
		<path d="m98.114 299.143c-.846 0-1.532.594-1.532 1.327s.686 1.327 1.532 1.327 1.532-.594 1.532-1.327-.685-1.327-1.532-1.327z"/>
		<path d="m110.355 283.242c-.846 0-1.532.594-1.532 1.327s.686 1.327 1.532 1.327 1.532-.594 1.532-1.327-.686-1.327-1.532-1.327z"/>
		<path d="m104.235 293.842c-.846 0-1.532.594-1.532 1.327s.686 1.327 1.532 1.327 1.532-.594 1.532-1.327-.686-1.327-1.532-1.327z"/>
		<path d="m98.114 293.842c-.846 0-1.532.594-1.532 1.327s.686 1.327 1.532 1.327 1.532-.594 1.532-1.327-.685-1.327-1.532-1.327z"/>
		<path
			d="m104.235 285.895c.846 0 1.532-.594 1.532-1.327 0-.727-.676-1.315-1.514-1.324l-1.434.828c-.072.154-.116.32-.116.496 0 .733.686 1.327 1.532 1.327z"/>
		<ellipse cx="104.235" cy="305.77" rx="1.532" ry="1.327"/>
		<path d="m104.235 299.143c-.846 0-1.532.594-1.532 1.327s.686 1.327 1.532 1.327 1.532-.594 1.532-1.327-.686-1.327-1.532-1.327z"/>
	</g>
	<path d="m122.071 300.666-17.151 9.93 24.024 13.866 17.154-9.905z" opacity=".05"/>
	<path d="m115.143 276.919-17.151 9.929 24.025 13.867 17.154-9.905z" opacity=".05"/>
	<path d="m146.098 314.557-24.081-13.842-17.097 9.881 17.076-8.505z" opacity=".1"/>
	<path d="m97.992 286.848 24.025 13.867 17.154-9.905-17.104 8.659z" opacity=".1"/>
	<path d="m108.444 309.653c6.78 3.914 17.772 3.914 24.551 0 6.78-3.914 6.78-10.261 0-14.175s-17.772-3.914-24.551 0-6.779 10.26 0 14.175z" opacity=".15"/>
	<path
		d="m131.51 292.541c-5.959-3.441-15.621-3.441-21.58 0-2.973 1.717-4.453 3.965-4.456 6.214-.001.487.002 2.41 0 2.89-.007 2.257 1.473 4.514 4.456 6.236 5.959 3.441 15.621 3.441 21.581 0 2.974-1.717 4.454-3.966 4.456-6.216 0-.487 0-2.416 0-2.899.002-2.252-1.478-4.505-4.457-6.225z"
		fill="#ffbda7"/>
	<path d="m109.93 305.001c5.959 3.441 15.621 3.441 21.581 0 5.959-3.441 5.959-9.019 0-12.46s-15.621-3.441-21.581 0-5.959 9.019 0 12.46z" fill="#f0997a"/>
	<path
		d="m131.51 288.917c-5.959-3.441-15.621-3.441-21.58 0-2.973 1.717-4.453 3.965-4.456 6.214-.001.487.002 2.41 0 2.89-.007 2.257 1.473 4.514 4.456 6.236 5.959 3.441 15.621 3.441 21.581 0 2.974-1.717 4.454-3.966 4.456-6.216 0-.487 0-2.416 0-2.899.002-2.252-1.478-4.505-4.457-6.225z"
		fill="#b16668"/>
	<path d="m109.93 301.377c5.959 3.441 15.621 3.441 21.581 0 5.959-3.441 5.959-9.019 0-12.46s-15.621-3.441-21.581 0-5.959 9.019 0 12.46z" fill="#9a4a4d"/>
	<path
		d="m131.537 291.906h-21.633c-2.409 3.52-2.406 9.124-2.409 10.222s.131 1.796 1.927 1.402 6.631-1.358 11.298-1.358 9.502.964 11.298 1.358 1.93-.304 1.927-1.402c-.002-1.098.001-6.702-2.408-10.222z"
		fill="#f0f0f0"/>
	<path
		d="m108.031 299.764c.503.728 1.088 1.365 2.12 1.626.861.218 1.769.136 2.647.269 1.813.273 3.032 1.509 4.654 2.162.685.275 1.432.394 2.168.344.824-.056 1.621-.319 2.387-.626 1.222-.49 2.398-1.101 3.659-1.479.983-.295 2.036-.442 3.055-.264.851.149 1.712.126 2.524-.258 1.504-.711 2.013-2.655 3.377-3.608 1.076-.752 2.662-.883 3.294-2.033.453-.825.186-1.903-.425-2.619s-1.498-1.133-2.383-1.451c-1.652-.594-3.395-.864-5.135-1.044-3.924-.405-7.864-.638-11.807-.741-3.91-.103-7.669-.228-11.439.98-.857.274-1.718.608-2.404 1.191s-1.177 1.461-1.091 2.357c.08.843.852 1.519 1.519 1.972.461.314.991.52 1.433.86.839.644 1.292 1.559 1.847 2.362z"
		fill="#27debf"/>
	<path
		d="m108.031 299.764c.503.728 1.088 1.365 2.12 1.626.861.218 1.769.136 2.647.269 1.813.273 3.032 1.509 4.654 2.162.685.275 1.432.394 2.168.344.824-.056 1.621-.319 2.387-.626 1.222-.49 2.398-1.101 3.659-1.479.983-.295 2.036-.442 3.055-.264.851.149 1.712.126 2.524-.258 1.504-.711 2.013-2.655 3.377-3.608 1.076-.752 2.662-.883 3.294-2.033.453-.825.186-1.903-.425-2.619s-1.498-1.133-2.383-1.451c-1.652-.594-3.395-.864-5.135-1.044-3.924-.405-7.864-.638-11.807-.741-3.91-.103-7.669-.228-11.439.98-.857.274-1.718.608-2.404 1.191s-1.177 1.461-1.091 2.357c.08.843.852 1.519 1.519 1.972.461.314.991.52 1.433.86.839.644 1.292 1.559 1.847 2.362z"
		fill="#fff" opacity=".4"/>
	<path
		d="m136.475 290.525-.034-.123c-1.393-5.328-7.902-9.34-15.716-9.34-7.824 0-14.334 4.013-15.727 9.34l-.033.123c-.189.602-.268 1.204-.245 1.806.067 2.318 1.627 4.615 4.681 6.364 6.253 3.611 16.385 3.611 22.638 0 3.043-1.75 4.614-4.046 4.681-6.364.022-.602-.055-1.204-.245-1.806z"
		fill="#ffbda7"/>
	<path
		d="m133.25 295.952c-3.989 3.041-14.191 4.046-20.581.821-6.364-3.212-6.67-8.681-4.637-11.215-1.495 1.397-2.563 3.042-3.034 4.844l-.033.123c-.189.602-.268 1.204-.245 1.806.067 2.318 1.627 4.615 4.681 6.364 6.253 3.611 16.385 3.611 22.638 0 3.043-1.75 4.614-4.046 4.681-6.364.022-.602-.055-1.204-.245-1.806 0 0 .249 2.779-3.225 5.427z"
		fill="#f0997a"/>
	<path
		d="m153.937 258.566 15.805 9.15c.537.31 1.408.31 1.946 0l51.003-29.469c.537-.31.537-.813 0-1.123l-15.805-9.151c-.537-.31-1.408-.31-1.945 0l-51.003 29.471c-.538.309-.538.812-.001 1.122z"
		opacity=".15"/>
	<path
		d="m154.882 256.064v-.347c0-.556.39-1.232.871-1.509l45.688-26.4c.481-.278 1.261-.278 1.743 0l14.158 8.198c.481.278.871.954.871 1.509v.346c0 .556-.39 1.232-.871 1.509l-45.687 26.399c-.481.278-1.262.278-1.743 0l-14.158-8.197c-.482-.277-.872-.953-.872-1.508z"
		fill="#263238"/>
	<path
		d="m155.754 255.214 14.158 8.196c.481.278 1.262.278 1.743 0l45.688-26.398c.481-.278.481-.729 0-1.006l-14.158-8.198c-.481-.278-1.262-.278-1.743 0l-45.688 26.4c-.482.277-.482.728 0 1.006z"
		fill="#455a64"/>
	<path
		d="m250.183 254.187-2.803-1.565c-.871-.533-2.292-.55-3.175-.037l-13.949 8.05-1.833-1.072c-.779-.456-2.045-.459-2.827-.008l-16.941 9.847c-.782.452-.782 1.183 0 1.635l1.787 1.032-20.163 11.636c-.883.513-.881 1.343.003 1.853l2.806 1.62c.884.51 2.318.51 3.202 0l20.161-11.64c.782.45 2.048.45 2.83-.001l16.874-9.808c.76-.439.777-1.145.061-1.602l13.942-8.05c.884-.51.895-1.356.025-1.89z"
		opacity=".15"/>
	<path
		d="m241.765 242.9 3.674-44.543c.114-1.385-.708-3.035-1.837-3.687s-3.019-.617-4.222.078l-48.78 28.162c-1.203.695-2.271 2.38-2.385 3.765l-3.674 44.543c-.114 1.385.708 3.035 1.837 3.687s3.019.617 4.222-.078l48.78-28.163c1.203-.694 2.271-2.379 2.385-3.764z"
		fill="#263238"/>
	<path
		d="m241.765 242.9 3.674-44.543c.114-1.385-.708-3.035-1.837-3.687s-3.019-.617-4.222.078l-48.78 28.162c-.595.343-1.155.929-1.585 1.601l7.581 4.377v42.478l42.783-24.7c1.204-.696 2.272-2.381 2.386-3.766z"
		fill="#455a64"/>
	<path
		d="m188.628 273.578 3.674-44.543c.114-1.385 1.182-3.07 2.385-3.765l48.779-28.163c1.203-.695 2.086-.135 1.972 1.249l-3.674 44.543c-.114 1.385-1.182 3.07-2.385 3.765l-48.78 28.163c-1.202.695-2.085.136-1.971-1.249z"
		fill="#37474f"/>
	<path d="m213.804 237.839c.188-2.281 1.786-4.967 3.57-6 1.783-1.033 3.077-.022 2.889 2.259s-1.786 4.967-3.57 6c-1.784 1.032-3.077.021-2.889-2.259z"
	      fill="#27debf"/>
	<path d="m214.951 251.306 11.993-6.968-2.043-1.18-11.986 6.972z" fill="#455a64"/>
	<path
		d="m232.507 264.785-14.601 8.432c-.262.151-.604.221-.936.211-.282-.01-.574-.081-.795-.201-.01 0-.01-.01-.02-.01l-6.43-3.713c-.01-.01-.02-.01-.03-.02-.473-.282-.835-.936-.835-1.489v-.342c0-.553.383-.785.865-.503l3.884 2.234.865.503-.191-.986-1.369-18.771 2.037 1.18 11.995-6.967 6.244 18.953c.102.543-.2 1.217-.683 1.489z"
		fill="#37474f"/>
	<path d="m209.129 267.079 4.98-2.875 1.012 6.701z"/>
	<path
		d="m214.952 251.309-2.037-1.18 1.369 18.771c.111.543-.201.765-.674.483l-3.884-2.234c-.483-.282-.865-.05-.865.503v.342c0 .554.362 1.208.835 1.489.01.01.02.01.03.02l6.43 3.713c.01 0 .01.01.02.01.221.121.513.191.795.201z"
		fill="#263238"/>
	<path
		d="m167.224 300.042-25.739-14.861c-1.121-.647-1.122-1.698-.002-2.347l15.347-8.898c1.119-.649 2.935-.651 4.056-.004l25.747 14.865c1.121.647 1.121 1.697.002 2.346l-15.354 8.895c-1.121.65-2.937.651-4.057.004z"
		opacity=".15"/>
	<path d="m169.932 276.546c-.024-.015-.058-.015-.097.007l-.356.205c-.073.042-.133.145-.133.229v4.154l14.904 8.452.586-4.442z" fill="#263238"/>
	<path
		d="m184.83 285.147c-.024-.011-.055-.008-.09.012l-.356.205c-.037.021-.069.057-.093.098l-14.905-8.606c.024-.041.056-.076.093-.098l.356-.205c.038-.021.072-.023.096-.006v-.002z"
		fill="#455a64"/>
	<path d="m184.74 285.159-.356.206c-.073.042-.132.145-.132.229v4l.621.355v-4.714c-.001-.084-.06-.118-.133-.076z" fill="#37474f"/>
	<path d="m184.251 289.594v.273l-.931.414-14.905-8.605.932-.534z"/>
	<path d="m183.63 290.82 1.11-.642c.073-.042.132-.145.132-.229l-.621-.355c0 .084-.059.187-.132.229l-.356.206c-.073.042-.132.008-.132-.076z" fill="#37474f"/>
	<path
		d="m183.591 285.869-1.474.802c-.024.041-.039.135-.039.177v4.713c0 .035.011.061.027.078l-14.894-8.597v-.002c-.024-.014-.038-.043-.038-.084v-4.713c0-.084.06-.186.131-.229l1.289-.746c.038-.023.072-.023.096-.006z"
		fill="#263238"/>
	<path d="m183.592 285.869-13.623-7.868-.622-.359-.656-.379c-.024-.017-.058-.017-.096.006l-1.289.746c-.036.021-.068.057-.092.099l14.904 8.557z"
	      fill="#37474f" opacity=".5"/>
	<path d="m182.118 286.672c-.025.042-.04.137-.04.18v4.712c0 .085.059.119.132.076l1.42-.821v-.868-3.997c0-.042-.015-.072-.039-.086z" fill="#37474f"/>
	<path
		d="m182.223 291.629.051-.025.219-.126c.227-.273.328-.625.328-.929v-3.986c0-.073-.011-.162-.032-.256l-.119.065c.014.071.021.137.021.192v3.985c0 .324-.201.834-.468 1.08z"
		fill="#263238"/>
	<path
		d="m165.512 272.729c-.503-.407-1.418-.934-1.98-1.258-.946-.547-4.48-2.588-5.963-3.444-.364-.21-.96-.21-1.324 0l-12.048 6.958c-.364.21-.662.726-.662 1.147v7.292c0 .42.298.936.662 1.147l24.468 14.127c.364.21.96.21 1.324 0l12.048-6.956c.364-.21.662-.726.662-1.147v-4.107c0-.405-.189-.786-.511-1.031-2.767-2.105-15.873-12.079-16.676-12.728z"
		fill="#455a64"/>
	<path
		d="m182.699 290.594v-3.985c0-.081-.008-.154-.029-.238l-13.376 7.709c.02.076.03.161.032.252l.001 3.984c0 .384-.246.558-.565.428.003.001.006.003.01.004.029.012.059.024.09.034.02.007.04.013.06.018.032.009.065.017.099.024.022.004.044.008.066.011.033.005.066.01.1.013.025.002.05.003.075.004.032.001.063.003.095.002.028 0 .056-.003.085-.005.028-.002.057-.003.085-.007.032-.004.063-.01.094-.016.024-.005.049-.008.072-.014.035-.008.067-.02.1-.031.019-.006.038-.011.056-.018.043-.017.084-.037.123-.058.006-.003.013-.006.019-.009l12.047-6.956c.066-.038.173-.099.173-.099.272-.251.488-.7.488-1.047z"
		fill="#37474f"/>
	<path
		d="m152.14 280.45c2.26 1.824 14.058 10.752 16.672 12.728.324.245.513.626.513 1.032l.001 4.104c0 .42-.298.592-.662.382l-24.468-14.127c-.364-.21-.662-.726-.662-1.147v-7.292c0-.42.298-.593.662-.382 1.362.786 4.477 2.584 5.961 3.441.564.326 1.478.853 1.983 1.261z"
		fill="#263238"/>
	<path
		d="m152.069 278.088c.562.325 1.477.851 1.982 1.26.458.37.925.818 1.39 1.3.18.187.506.236.731.106l8.741-5.047c.225-.13.264-.39.084-.576-.465-.482-.929-.925-1.393-1.3-.503-.407-1.418-.934-1.98-1.258-1.07-.619-2.271-1.313-3.352-1.936-.224-.129-.591-.129-.815 0l-8.738 5.045c-.224.129-.224.341 0 .47 1.08.626 2.28 1.319 3.35 1.936z"
		fill="#e0e0e0"/>
	<path
		d="m157.456 271.052c.224-.129.59-.13.815 0 1.082.623 2.283 1.316 3.352 1.936.562.325 1.477.851 1.98 1.258.464.376.929.818 1.393 1.3.016.017.029.035.042.053-.032.042-.073.08-.125.11l-8.741 5.047c-.225.13-.551.081-.731-.106-.464-.482-.932-.93-1.39-1.3-.506-.409-1.42-.936-1.982-1.26-1.07-.617-2.269-1.311-3.351-1.935-.015-.009-.027-.019-.04-.028.013-.01.025-.02.04-.028z"
		fill="#fff"/>
	<path
		d="m165.351 277.807s-.002-.002-.002-.002l.078-.324.326-.027 1.067-.616c.506-.292 1.176-.232 1.503.129.074.081.121.172.148.265l.092-.008-.083.344-.001.001c-.054.215-.215.422-.471.57l-1.299.75c-.202.117-.499.076-.658-.095-.205-.219-.41-.446-.616-.677-.085-.094-.109-.208-.084-.31z"
		fill="#27debf"/>
	<path
		d="m165.351 277.807s-.002-.002-.002-.002l.078-.324.326-.027 1.067-.616c.506-.292 1.176-.232 1.503.129.074.081.121.172.148.265l.092-.008-.083.344-.001.001c-.054.215-.215.422-.471.57l-1.299.75c-.202.117-.499.076-.658-.095-.205-.219-.41-.446-.616-.677-.085-.094-.109-.208-.084-.31z"
		opacity=".3"/>
	<path
		d="m166.787 278.566 1.299-.749c.506-.292.642-.812.316-1.173-.327-.361-.997-.421-1.503-.129l-1.299.75c-.202.117-.242.354-.087.529.205.231.41.458.616.677.16.171.456.212.658.095z"
		fill="#27debf"/>
	<path
		d="m157.972 282.267-.002-.005.079-.329.092-.008c.081-.099.186-.189.314-.263l1.299-.749c.202-.117.492-.069.647.105.202.227.404.451.606.667l.182-.015-.083.342-.003.001c-.022.079-.076.151-.163.201l-1.299.75c-.506.292-1.191.246-1.519-.115-.152-.169-.196-.378-.15-.582z"
		fill="#27debf"/>
	<path
		d="m157.972 282.267-.002-.005.079-.329.092-.008c.081-.099.186-.189.314-.263l1.299-.749c.202-.117.492-.069.647.105.202.227.404.451.606.667l.182-.015-.083.342-.003.001c-.022.079-.076.151-.163.201l-1.299.75c-.506.292-1.191.246-1.519-.115-.152-.169-.196-.378-.15-.582z"
		opacity=".3"/>
	<path
		d="m159.721 282.64 1.299-.749c.202-.117.234-.348.075-.519-.205-.22-.41-.447-.615-.678-.155-.175-.445-.222-.647-.105l-1.299.749c-.506.292-.658.827-.331 1.187.327.361 1.012.407 1.518.115z"
		fill="#27debf"/>
	<path
		d="m161.406 280.035-.002-.002.086-.356.277-.018 1.727-.997c.281-.162.683-.096.899.146.175.197.35.39.526.579.018.02.032.04.046.061l.172-.011-.089.373-.003.002c-.028.116-.104.223-.231.296l-1.851 1.068c-.281.162-.693.105-.913-.133-.175-.189-.351-.382-.526-.579-.118-.131-.153-.287-.118-.429z"
		fill="#27debf"/>
	<path
		d="m161.406 280.035-.002-.002.086-.356.277-.018 1.727-.997c.281-.162.683-.096.899.146.175.197.35.39.526.579.018.02.032.04.046.061l.172-.011-.089.373-.003.002c-.028.116-.104.223-.231.296l-1.851 1.068c-.281.162-.693.105-.913-.133-.175-.189-.351-.382-.526-.579-.118-.131-.153-.287-.118-.429z"
		opacity=".3"/>
	<path
		d="m161.61 280.105c.175.197.351.39.526.579.221.238.632.295.913.133l1.851-1.068c.281-.162.326-.483.105-.721-.175-.189-.35-.383-.526-.579-.216-.242-.618-.308-.899-.146l-1.851 1.068c-.28.161-.335.491-.119.734z"
		fill="#27debf"/>
	<path
		d="m164.205 284.128-.342.009-.96-.733c-.154-.117-.414-.134-.581-.038l-1.468.846-.46.012v.375h.001c0 .066.035.133.107.188l1.194.911c.154.117.414.134.581.038l1.795-1.035c.089-.051.132-.124.132-.199h.001z"
		fill="#27debf"/>
	<path
		d="m164.205 284.128-.342.009-.96-.733c-.154-.117-.414-.134-.581-.038l-1.468.846-.46.012v.375h.001c0 .066.035.133.107.188l1.194.911c.154.117.414.134.581.038l1.795-1.035c.089-.051.132-.124.132-.199h.001z"
		opacity=".3"/>
	<path
		d="m160.526 284.025 1.795-1.035c.167-.097.427-.08.581.038l1.194.911c.154.117.142.29-.025.387l-1.795 1.035c-.167.096-.427.08-.581-.038l-1.194-.911c-.153-.117-.142-.29.025-.387z"
		fill="#27debf"/>
	<path
		d="m171.984 290.065-.342.009-.96-.733c-.154-.117-.414-.134-.581-.038l-1.468.846-.46.012v.375h.001c0 .066.035.133.107.188l1.194.911c.154.117.414.134.581.038l1.795-1.035c.089-.051.132-.124.132-.199h.001z"
		fill="#27debf"/>
	<path
		d="m171.984 290.065-.342.009-.96-.733c-.154-.117-.414-.134-.581-.038l-1.468.846-.46.012v.375h.001c0 .066.035.133.107.188l1.194.911c.154.117.414.134.581.038l1.795-1.035c.089-.051.132-.124.132-.199h.001z"
		opacity=".3"/>
	<path
		d="m168.306 289.962 1.795-1.035c.167-.096.427-.08.581.038l1.194.911c.154.117.142.29-.025.387l-1.795 1.034c-.167.096-.427.08-.581-.038l-1.194-.911c-.154-.116-.143-.289.025-.386z"
		fill="#27debf"/>
	<path
		d="m166.798 286.107-.342.009-.96-.733c-.153-.117-.414-.134-.581-.038l-1.468.846-.46.012v.375h.001c0 .066.035.133.107.189l1.194.911c.154.117.414.134.581.038l1.795-1.035c.089-.051.132-.124.132-.199h.001z"
		fill="#27debf"/>
	<path
		d="m166.798 286.107-.342.009-.96-.733c-.153-.117-.414-.134-.581-.038l-1.468.846-.46.012v.375h.001c0 .066.035.133.107.189l1.194.911c.154.117.414.134.581.038l1.795-1.035c.089-.051.132-.124.132-.199h.001z"
		opacity=".3"/>
	<path
		d="m163.119 286.004 1.795-1.035c.167-.096.428-.08.581.038l1.194.911c.153.117.142.29-.025.387l-1.795 1.035c-.167.096-.427.08-.581-.038l-1.194-.911c-.153-.117-.142-.29.025-.387z"
		fill="#27debf"/>
	<path
		d="m169.391 288.086-.342.009-.96-.733c-.154-.117-.414-.134-.581-.038l-1.468.846-.461.012v.375h.001c0 .066.035.133.107.188l1.194.911c.153.117.414.134.581.038l1.795-1.035c.089-.051.132-.124.132-.199h.001v-.374z"
		fill="#27debf"/>
	<path
		d="m169.391 288.086-.342.009-.96-.733c-.154-.117-.414-.134-.581-.038l-1.468.846-.461.012v.375h.001c0 .066.035.133.107.188l1.194.911c.153.117.414.134.581.038l1.795-1.035c.089-.051.132-.124.132-.199h.001v-.374z"
		opacity=".3"/>
	<path
		d="m165.712 287.983 1.795-1.035c.167-.096.427-.08.581.038l1.194.911c.154.117.142.29-.025.387l-1.795 1.035c-.167.096-.428.08-.581-.038l-1.194-.911c-.153-.117-.142-.29.025-.387z"
		fill="#27debf"/>
	<path
		d="m168.207 281.821-.342.009-.96-.733c-.154-.117-.414-.134-.581-.038l-1.468.846-.46.012v.375h.001c0 .066.035.133.107.189l1.194.911c.153.117.414.134.581.038l1.795-1.035c.089-.051.132-.124.132-.199h.001z"
		fill="#27debf"/>
	<path
		d="m168.207 281.821-.342.009-.96-.733c-.154-.117-.414-.134-.581-.038l-1.468.846-.46.012v.375h.001c0 .066.035.133.107.189l1.194.911c.153.117.414.134.581.038l1.795-1.035c.089-.051.132-.124.132-.199h.001z"
		opacity=".3"/>
	<path
		d="m164.529 281.719 1.795-1.035c.167-.096.427-.08.581.038l1.194.911c.154.117.142.29-.025.387l-1.795 1.035c-.167.096-.428.08-.581-.038l-1.194-.911c-.154-.117-.143-.291.025-.387z"
		fill="#27debf"/>
	<path
		d="m175.987 287.758-.342.009-.96-.733c-.153-.117-.414-.134-.581-.038l-1.468.846-.46.012v.375h.001c0 .066.035.133.107.188l1.194.911c.153.117.414.134.581.038l1.795-1.035c.089-.051.132-.124.132-.199h.001z"
		fill="#27debf"/>
	<path
		d="m175.987 287.758-.342.009-.96-.733c-.153-.117-.414-.134-.581-.038l-1.468.846-.46.012v.375h.001c0 .066.035.133.107.188l1.194.911c.153.117.414.134.581.038l1.795-1.035c.089-.051.132-.124.132-.199h.001z"
		opacity=".3"/>
	<path
		d="m172.308 287.656 1.795-1.035c.167-.096.427-.08.581.038l1.194.911c.154.117.142.29-.025.387l-1.795 1.035c-.167.096-.428.08-.581-.038l-1.194-.911c-.153-.118-.142-.291.025-.387z"
		fill="#27debf"/>
	<path
		d="m170.8 283.8-.342.009-.96-.733c-.154-.117-.414-.134-.581-.038l-1.468.846-.461.012v.375h.001c0 .066.035.133.107.188l1.194.911c.154.117.414.134.581.038l1.795-1.035c.089-.051.132-.124.132-.199h.001v-.374z"
		fill="#27debf"/>
	<path
		d="m170.8 283.8-.342.009-.96-.733c-.154-.117-.414-.134-.581-.038l-1.468.846-.461.012v.375h.001c0 .066.035.133.107.188l1.194.911c.154.117.414.134.581.038l1.795-1.035c.089-.051.132-.124.132-.199h.001v-.374z"
		opacity=".3"/>
	<path
		d="m167.122 283.698 1.795-1.035c.167-.096.427-.08.581.038l1.194.911c.154.117.142.29-.025.387l-1.795 1.035c-.167.096-.428.08-.581-.038l-1.194-.911c-.154-.117-.142-.291.025-.387z"
		fill="#27debf"/>
	<path
		d="m173.394 285.779-.342.009-.96-.733c-.153-.117-.414-.134-.581-.038l-1.468.846-.46.012v.375h.001c0 .066.035.133.107.188l1.194.911c.154.117.414.134.581.038l1.795-1.035c.089-.051.132-.124.132-.199h.001z"
		fill="#27debf"/>
	<path
		d="m173.394 285.779-.342.009-.96-.733c-.153-.117-.414-.134-.581-.038l-1.468.846-.46.012v.375h.001c0 .066.035.133.107.188l1.194.911c.154.117.414.134.581.038l1.795-1.035c.089-.051.132-.124.132-.199h.001z"
		opacity=".3"/>
	<path
		d="m169.715 285.677 1.795-1.035c.167-.096.428-.08.581.038l1.194.911c.153.117.142.29-.025.387l-1.795 1.034c-.167.096-.427.08-.581-.038l-1.194-.911c-.153-.117-.142-.29.025-.386z"
		fill="#27debf"/>
	<path
		d="m172.208 279.514-.342.009-.96-.733c-.153-.117-.414-.134-.581-.038l-1.468.846-.46.012v.375h.001c0 .066.035.133.107.188l1.194.911c.154.117.414.134.581.038l1.795-1.035c.089-.051.132-.124.132-.199h.001z"
		fill="#27debf"/>
	<path
		d="m172.208 279.514-.342.009-.96-.733c-.153-.117-.414-.134-.581-.038l-1.468.846-.46.012v.375h.001c0 .066.035.133.107.188l1.194.911c.154.117.414.134.581.038l1.795-1.035c.089-.051.132-.124.132-.199h.001z"
		opacity=".3"/>
	<path
		d="m168.53 279.411 1.795-1.035c.167-.096.428-.08.581.038l1.194.911c.153.117.142.29-.025.387l-1.795 1.035c-.167.096-.427.08-.581-.038l-1.194-.911c-.154-.117-.142-.29.025-.387z"
		fill="#27debf"/>
	<path
		d="m179.988 285.451-.342.009-.96-.733c-.153-.117-.414-.134-.581-.038l-1.468.846-.46.012v.375h.001c0 .066.035.133.107.188l1.194.911c.154.117.414.134.581.038l1.795-1.035c.089-.051.132-.124.132-.199h.001z"
		fill="#27debf"/>
	<path
		d="m179.988 285.451-.342.009-.96-.733c-.153-.117-.414-.134-.581-.038l-1.468.846-.46.012v.375h.001c0 .066.035.133.107.188l1.194.911c.154.117.414.134.581.038l1.795-1.035c.089-.051.132-.124.132-.199h.001z"
		opacity=".3"/>
	<path
		d="m176.309 285.348 1.795-1.035c.167-.097.428-.08.581.038l1.194.911c.153.117.142.29-.025.387l-1.795 1.034c-.167.096-.427.08-.581-.038l-1.194-.911c-.153-.116-.142-.289.025-.386z"
		fill="#27debf"/>
	<path
		d="m177.395 283.472-.342.009-.96-.733c-.154-.117-.414-.134-.581-.038l-1.468.846-.46.012v.375h.001c0 .066.035.133.107.188l1.194.911c.154.117.414.134.581.038l1.795-1.035c.089-.051.132-.124.132-.199h.001z"
		fill="#27debf"/>
	<path
		d="m177.395 283.472-.342.009-.96-.733c-.154-.117-.414-.134-.581-.038l-1.468.846-.46.012v.375h.001c0 .066.035.133.107.188l1.194.911c.154.117.414.134.581.038l1.795-1.035c.089-.051.132-.124.132-.199h.001z"
		opacity=".3"/>
	<path
		d="m173.716 283.369 1.795-1.035c.167-.096.427-.08.581.038l1.194.911c.154.117.142.29-.025.387l-1.795 1.035c-.167.096-.427.08-.581-.038l-1.194-.911c-.153-.117-.142-.29.025-.387z"
		fill="#27debf"/>
	<path
		d="m174.802 281.493-.342.009-.96-.733c-.154-.117-.414-.134-.581-.038l-1.468.846-.461.012v.375h.001c0 .066.035.133.107.188l1.194.911c.153.117.414.134.581.038l1.795-1.035c.089-.051.132-.124.132-.199h.001v-.374z"
		fill="#27debf"/>
	<path
		d="m174.802 281.493-.342.009-.96-.733c-.154-.117-.414-.134-.581-.038l-1.468.846-.461.012v.375h.001c0 .066.035.133.107.188l1.194.911c.153.117.414.134.581.038l1.795-1.035c.089-.051.132-.124.132-.199h.001v-.374z"
		opacity=".3"/>
	<path
		d="m171.123 281.39 1.795-1.035c.167-.096.427-.08.581.038l1.194.911c.154.117.142.29-.025.387l-1.795 1.035c-.167.096-.428.08-.581-.038l-1.194-.911c-.153-.117-.142-.29.025-.387z"
		fill="#27debf"/>
	<path
		d="m166.45 331.995 56.917-32.861c.803-.464 1.53-.507 2.056-.204.526.304 2.65 1.538 3.176 1.842s.852.955.852 1.882v21.63c0 1.854-1.302 4.109-2.907 5.036l-56.917 32.86c-.803.464-1.53.507-2.056.204-.526-.304-2.645-1.538-3.171-1.838-.53-.302-.857-.955-.857-1.886v-21.63c0-1.853 1.302-4.108 2.907-5.035z"
		fill="#e0e0e0"/>
	<path
		d="m164.395 334.162 3.175 1.842c.524-.913 1.249-1.705 2.055-2.169l56.918-32.861c.772-.443 1.471-.497 1.994-.235-.732-.423-2.597-1.513-3.114-1.808-.524-.302-1.249-.262-2.055.201l-56.918 32.861c-.8.464-1.532 1.263-2.055 2.169z"
		fill="#fafafa"/>
	<path
		d="m229.452 324.285v-21.63c0-.927-.325-1.579-.852-1.882-.526-.304-1.253-.26-2.056.204l-56.917 32.861c-1.606.927-2.907 3.182-2.907 5.036v21.63c0 1.854 1.302 2.606 2.907 1.679l56.917-32.86c1.606-.929 2.908-3.184 2.908-5.038z"
		fill="#f0f0f0"/>
	<path
		d="m172.032 355.085c-.091-.096-.137-.308-.137-.638v-14.594c0-.313.047-.571.137-.772.092-.201.234-.358.427-.47l2.733-1.578c2.137-1.234 3.206-.526 3.206 2.121 0 1.755-.458 3.312-1.374 4.671l.015.085c.519-.064.926.155 1.221.659.294.504.442 1.256.442 2.259 0 1.395-.293 2.684-.878 3.868-.585 1.183-1.448 2.105-2.587 2.763l-2.779 1.604c-.192.11-.335.118-.426.022zm3.175-11.362c.326-.188.567-.488.725-.901.157-.412.236-.962.236-1.653 0-.673-.074-1.112-.221-1.317-.148-.204-.384-.213-.71-.025l-1.084.626v3.878zm.106 6.847c.376-.217.654-.542.832-.974s.267-1.024.267-1.776c0-.721-.087-1.184-.259-1.389-.174-.205-.453-.197-.84.026l-1.16.67v4.112z"
		fill="#455a64"/>
	<path
		d="m181.007 348.998c-.652-.501-.977-1.543-.977-3.125v-10.927c0-.502.294-.923.885-1.263l.61-.352c.591-.342.886-.262.886.24v10.693c0 .642.116 1.096.351 1.36.233.265.549.283.946.053.386-.223.699-.607.938-1.152.24-.546.359-1.132.359-1.759v-10.693c0-.501.295-.922.885-1.263l.596-.344c.59-.341.886-.261.886.241v10.927c0 1.583-.323 2.999-.969 4.25-.647 1.252-1.544 2.208-2.694 2.871-1.151.663-2.051.745-2.702.243z"
		fill="#455a64"/>
	<path
		d="m188.974 345.573s0-.25 0-.752v-14.806c0-.329.049-.596.145-.8.097-.204.252-.369.466-.492l2.549-1.471c.937-.541 1.689-.619 2.259-.235s.855 1.406.855 3.067c0 1.833-.484 3.436-1.451 4.809v.095c.224.058.428.254.611.587s.32.724.413 1.172l.9 3.993.046.255c0 .423-.315.816-.946 1.181l-.535.309c-.539.311-.845.277-.916-.106l-.809-3.998c-.092-.291-.195-.475-.313-.548-.117-.073-.303-.036-.558.111l-.365.211v5.312c0 .501-.306.928-.917 1.281l-.519.299c-.609.349-.915.526-.915.526zm3.206-11.345c.223-.128.414-.411.572-.847.158-.435.237-.983.237-1.641s-.079-1.094-.237-1.308-.364-.249-.618-.102l-.809.467v3.925z"
		fill="#455a64"/>
	<path
		d="m203.506 327.725c.091.096.137.308.137.638v7.003c0 .36-.155.774-.465 1.243s-.695.914-1.153 1.335-.896.753-1.313.992c-1.425.823-2.476.745-3.152-.236-.677-.98-1.015-2.919-1.015-5.818 0-2.82.341-5.116 1.023-6.888.681-1.772 1.74-3.073 3.175-3.901.458-.265.9-.437 1.327-.52.428-.083.773-.071 1.039.035.264.106.397.292.397.559 0 .204-.053.509-.16.915-.108.407-.237.783-.389 1.13-.153.346-.291.555-.413.626-.04.023-.148.027-.32.008-.174-.017-.366-.008-.58.029-.214.038-.468.141-.763.311-.651.376-1.13 1.076-1.435 2.097-.305 1.022-.458 2.427-.458 4.212 0 1.912.145 3.179.435 3.803.291.623.72.771 1.291.442.243-.141.452-.293.625-.455v-3.431l-.778.449c-.153.088-.266.059-.336-.088-.072-.146-.107-.424-.107-.831v-.752c0-.407.035-.725.107-.955.071-.228.184-.388.336-.476l2.518-1.454c.192-.11.335-.119.427-.022z"
		fill="#455a64"/>
	<path
		d="m205.413 335.812c-.091-.097-.137-.308-.137-.637v-14.571c0-.329.046-.594.137-.796.092-.202.234-.359.428-.471l4.502-2.599c.153-.088.265-.06.336.088.071.147.107.424.107.832v.728c0 .407-.036.726-.107.955-.071.228-.184.388-.336.476l-2.686 1.55v3.408l2.381-1.374c.153-.088.265-.059.336.088s.106.424.106.832v.729c0 .407-.035.725-.106.954-.072.229-.184.388-.336.476l-2.381 1.374v3.807l2.702-1.56c.153-.089.262-.057.329.092.066.151.099.429.099.837v.728c0 .407-.034.724-.099.95-.066.227-.175.384-.329.473l-4.517 2.608c-.195.111-.337.119-.429.023z"
		fill="#455a64"/>
	<path
		d="m212.206 332.16s0-.25 0-.752v-14.805c0-.329.048-.595.144-.8.098-.205.252-.368.466-.492l2.549-1.472c.937-.54 1.689-.618 2.259-.234s.855 1.406.855 3.066c0 1.834-.484 3.437-1.451 4.809v.094c.224.058.428.255.611.588.183.332.32.724.413 1.171l.9 3.993.046.255c0 .423-.315.816-.946 1.181l-.535.308c-.539.311-.844.276-.916-.105l-.809-3.998c-.091-.293-.195-.475-.313-.547-.117-.073-.303-.038-.557.109l-.366.211v5.311c0 .501-.306.928-.916 1.28l-.519.3c-.61.353-.915.529-.915.529zm3.205-11.344c.223-.13.414-.412.572-.847.158-.436.237-.983.237-1.641 0-.657-.079-1.094-.237-1.308s-.364-.248-.618-.102l-.809.467v3.924z"
		fill="#455a64"/>
	<path
		d="m220.875 326.955c-.489.056-.845-.048-1.069-.311-.132-.206-.198-.441-.198-.708 0-.439.076-.929.229-1.472.153-.542.321-.867.503-.972.082-.047.212-.044.39.01.178.055.307.09.389.105.397.084.748.038 1.053-.139.315-.181.59-.457.825-.829.233-.369.351-.837.351-1.4 0-.423-.061-.748-.183-.975-.123-.227-.272-.384-.451-.469-.178-.085-.435-.171-.771-.259-.773-.227-1.332-.618-1.678-1.17s-.519-1.463-.519-2.732c0-1.41.292-2.683.878-3.82.585-1.136 1.361-1.984 2.328-2.542.346-.2.712-.329 1.099-.388.387-.058.686-.031.9.08.183.098.275.319.275.663 0 .408-.059.873-.176 1.395s-.262.832-.435.932c-.082.047-.229.07-.443.068-.396-.007-.727.068-.992.22-.407.235-.687.53-.84.885s-.229.704-.229 1.048c0 .58.099.965.298 1.156.199.19.511.344.939.457l.351.103c.702.221 1.208.602 1.519 1.144.31.542.466 1.399.466 2.575 0 .878-.122 1.759-.366 2.644s-.616 1.699-1.114 2.441c-.499.743-1.114 1.325-1.847 1.749-.5.285-.993.456-1.482.511z"
		fill="#455a64"/>
	<path d="m388.026 122.597 3.5-7.976-2.816-8.129v-4.976l8.619 4.976v4.976l-3.705 7.813c-.063.108-.152.179-.252.224l.002.003z" fill="#27debf"/>
	<path d="m388.026 122.597 3.5-7.976-2.816-8.129v-4.976l8.619 4.976v4.976l-3.705 7.813c-.063.108-.152.179-.252.224l.002.003z" opacity=".2"/>
	<path
		d="m378.614 53.601 34.436 19.921c.679.392 1.23 1.345 1.23 2.129v42.088c0 .784-.554 1.731-1.237 2.116l-4.89 2.78c-.683.385-1.787.38-2.465-.012l-34.437-19.921c-.679-.392-1.229-1.345-1.229-2.129v-42.087c0-.784.553-1.732 1.236-2.117l4.89-2.78c.684-.386 1.788-.38 2.466.012z"
		fill="#27debf"/>
	<path
		d="m378.614 53.601 34.436 19.921c.679.392 1.23 1.345 1.23 2.129v42.088c0 .784-.554 1.731-1.237 2.116l-4.89 2.78c-.683.385-1.787.38-2.465-.012l-34.437-19.921c-.679-.392-1.229-1.345-1.229-2.129v-42.087c0-.784.553-1.732 1.236-2.117l4.89-2.78c.684-.386 1.788-.38 2.466.012z"
		opacity=".15"/>
	<path
		d="m370.039 58.263c.096-.619.602-.841 1.215-.488l34.432 19.922c.341.199.647.534.869.92l7.34-4.221c-.222-.369-.517-.687-.846-.875l-34.437-19.922c-.676-.392-1.777-.397-2.464-.011l-4.888 2.779c-.619.352-1.136 1.164-1.221 1.896z"
		fill="#27debf"/>
	<path
		d="m370.039 58.263c.096-.619.602-.841 1.215-.488l34.432 19.922c.341.199.647.534.869.92l7.34-4.221c-.222-.369-.517-.687-.846-.875l-34.437-19.922c-.676-.392-1.777-.397-2.464-.011l-4.888 2.779c-.619.352-1.136 1.164-1.221 1.896z"
		fill="#fff" opacity=".4"/>
	<path
		d="m405.688 77.697-34.437-19.921c-.679-.392-1.229-.074-1.229.71v42.087c0 .784.55 1.737 1.229 2.129l12.078 6.987 3.89 12.618c.155.447.763.505.999.095l3.678-7.757 13.792 7.978c.679.392 1.229.074 1.229-.71v-15.64-26.447c.001-.784-.55-1.737-1.229-2.129z"
		fill="#27debf"/>
	<path
		d="m393.109 74.157c-.083-.721-.66-1.236-2.156-.896-13.089 2.972-16.676 13.444-18.534 19.226-.204.635-.064 1.307.517 1.582.685.258 1.37.044 1.588-.585 1.753-5.068 4.93-15.222 17.482-17.916 1.031-.222 1.168-.848 1.103-1.411z"
		fill="#455a64"/>
	<path
		d="m377.357 95.617 24.306 13.14c1.215.488 2.502-.522 2.317-1.818l-10.072-28.265c-.437-1.156-1.113-1.683-2.076-1.419-3.394.932-6.851 2.789-9.69 5.831-2.508 2.689-4.612 6.66-5.67 10.177-.287.957-.105 1.805.885 2.354z"
		fill="#455a64"/>
	<path
		d="m392.214 83.473c2.634 1.752 1.534 5.084.455 4.366s-1.647-1.096-1.647-1.096l-.858 1.657c-.206.398-.713.529-1.086.281l-.458-.305c-.374-.249-.448-.767-.16-1.111l1.199-1.428s-.568-.378-1.647-1.096c-1.08-.719 1.569-3.02 4.202-1.268z"
		fill="#27debf"/>
	<path
		d="m393.451 92.965c2.334.192 2.815 2.744 1.859 2.666-.956-.079-1.46-.12-1.46-.12l.038 1.38c.009.332-.272.598-.603.571l-.406-.033c-.331-.027-.565-.336-.502-.663l.265-1.355s-.503-.041-1.46-.12-.064-2.518 2.269-2.326z"
		fill="#27debf"/>
	<path d="m381.548 92.025c-.513 1.279.107 2.731 1.386 3.245 1.279.513 2.732-.107 3.245-1.386s-.107-2.731-1.386-3.245c-1.279-.513-2.732.107-3.245 1.386z"
	      fill="#27debf"/>
	<path d="m395.906 100.879c-.379.945.079 2.019 1.024 2.398s2.019-.079 2.398-1.024-.079-2.019-1.024-2.398c-.944-.379-2.018.079-2.398 1.024z" fill="#27debf"/>
	<path d="m104.644 124.695-3.142-7.159 2.528-7.296v-4.466l-7.736 4.466v4.466l3.326 7.012c.056.097.137.161.226.201l-.002.003z" fill="#f28f8f"/>
	<path
		d="m113.092 62.767-30.909 17.88c-.609.352-1.104 1.207-1.104 1.911v37.777c0 .704.497 1.553 1.11 1.899l4.389 2.496c.613.346 1.604.341 2.213-.011l30.909-17.88c.609-.352 1.103-1.207 1.103-1.911v-37.776c0-.704-.497-1.554-1.109-1.9l-4.389-2.496c-.613-.346-1.604-.341-2.213.011z"
		fill="#f28f8f"/>
	<path
		d="m120.803 66.954c-.087-.556-.54-.754-1.09-.438l-30.905 17.881c-.306.178-.581.479-.78.826l-6.588-3.789c.199-.331.464-.617.759-.785l30.91-17.881c.607-.352 1.595-.357 2.212-.01l4.387 2.495c.555.314 1.018 1.043 1.095 1.701z"
		fill="#fff" opacity=".4"/>
	<path
		d="m88.791 84.395 30.909-17.88c.609-.352 1.103-.067 1.103.637v37.775c0 .704-.494 1.559-1.103 1.911l-10.84 6.271-3.492 11.325c-.139.401-.685.453-.897.085l-3.301-6.963-12.379 7.161c-.609.352-1.104.067-1.104-.637v-14.038-23.736c.001-.704.495-1.559 1.104-1.911z"
		fill="#ffa8a7"/>
	<path
		d="m114.148 100.356-6.64-5.02 6.91-13.203c.643-1.228.169-2.744-1.06-3.386-1.226-.642-2.744-.167-3.386 1.06l-6.522 12.462-5.973-4.515c-1.106-.836-2.68-.618-3.515.488-.836 1.106-.617 2.679.488 3.515l6.64 5.02-6.617 12.642c-.643 1.228-.169 2.744 1.059 3.386.372.195.769.287 1.162.287.904 0 1.777-.49 2.225-1.346l6.229-11.902 5.973 4.515c.453.342.984.508 1.511.508.76 0 1.51-.344 2.003-.996.838-1.106.619-2.679-.487-3.515z"
		fill="#fafafa"/>
	<path
		d="m169.195 109.795c-.2 0-.373-.072-.519-.219-.147-.146-.219-.319-.219-.52v-17.667c0-.2.072-.373.219-.52.146-.146.319-.219.519-.219h8.068c1.167 0 2.143.178 2.927.533.783.356 1.413.802 1.887 1.34s.816 1.121 1.026 1.75c.209.629.314 1.217.314 1.764s-.073 1.035-.218 1.463c-.147.429-.324.793-.533 1.094-.211.3-.42.552-.629.752-.21.201-.379.338-.506.41.564.383 1.084.925 1.559 1.628s.711 1.591.711 2.666c0 .693-.128 1.381-.383 2.065-.256.684-.629 1.299-1.121 1.846s-1.108.989-1.846 1.327-1.59.506-2.557.506h-8.699zm10.53-13.62c0-.693-.219-1.217-.657-1.573-.438-.355-1.131-.534-2.079-.534h-4.841v4.212h4.841c.947 0 1.64-.178 2.079-.533.438-.355.657-.879.657-1.572zm-7.576 10.201h5.059c1.003 0 1.737-.214 2.202-.642s.698-.989.698-1.682-.242-1.258-.725-1.696c-.483-.437-1.208-.656-2.174-.656h-5.059v4.676z"
		fill="#37474f"/>
	<path
		d="m186.972 99.074c.073-.383.242-.793.506-1.231.264-.437.639-.848 1.122-1.231s1.075-.697 1.778-.943c.702-.246 1.518-.369 2.447-.369.93 0 1.768.123 2.517.369.747.246 1.39.606 1.928 1.08.537.475.952 1.071 1.244 1.791s.437 1.545.437 2.475v8.041c0 .201-.073.374-.219.52s-.319.219-.519.219h-2.079c-.201 0-.374-.072-.52-.219-.146-.146-.218-.319-.218-.52v-.903c-.383.529-.935.98-1.655 1.353-.72.374-1.637.561-2.748.561-.784 0-1.486-.105-2.106-.315s-1.14-.506-1.559-.889-.743-.834-.971-1.354-.341-1.089-.341-1.709c0-1.258.446-2.243 1.34-2.954.893-.711 2.087-1.194 3.583-1.449l4.458-.766c0-.747-.246-1.276-.738-1.586-.493-.31-1.104-.465-1.833-.465-.456 0-.812.064-1.067.192-.255.127-.501.3-.738.52-.164.146-.314.246-.451.3-.136.055-.287.082-.452.082h-2.543c-.183 0-.338-.055-.465-.164-.129-.108-.175-.254-.138-.436zm4.568 7.713c.619 0 1.171-.086 1.654-.26.483-.173.889-.405 1.217-.697s.574-.619.738-.984.246-.739.246-1.122v-.274l-3.72.656c-.748.128-1.286.315-1.614.561s-.492.579-.492.998c0 .383.196.666.588.848.393.183.853.274 1.383.274z"
		fill="#37474f"/>
	<path
		d="m208.058 95.3c.565 0 1.071.055 1.518.164s.838.246 1.176.41.624.342.861.533.429.369.575.533v-5.826c0-.2.072-.373.219-.52.146-.145.319-.219.519-.219h2.079c.2 0 .373.073.52.219.146.146.218.319.218.52v17.942c0 .201-.072.374-.218.52-.147.146-.32.219-.52.219h-2.079c-.2 0-.373-.072-.519-.219-.147-.146-.219-.319-.219-.52v-.629c-.146.164-.338.342-.575.533s-.524.369-.861.533c-.338.164-.729.301-1.176.41s-.953.164-1.518.164c-.911 0-1.736-.178-2.475-.533-.739-.356-1.368-.83-1.888-1.423-.519-.592-.93-1.276-1.23-2.051-.301-.775-.47-1.582-.506-2.42-.019-.274-.027-.593-.027-.957 0-.365.008-.684.027-.957.036-.838.205-1.645.506-2.42.3-.775.711-1.459 1.23-2.051.52-.593 1.148-1.067 1.888-1.422.739-.355 1.564-.533 2.475-.533zm-2.543 6.619c-.055.511-.055 1.021 0 1.531.109 1.185.474 2.038 1.094 2.557.62.52 1.376.78 2.271.78.893 0 1.645-.264 2.256-.793.61-.529.961-1.285 1.052-2.27.037-.274.055-.62.055-1.039s-.018-.766-.055-1.039c-.091-.948-.442-1.696-1.052-2.243-.611-.547-1.364-.821-2.256-.821-.895 0-1.651.26-2.271.78-.62.519-.985 1.372-1.094 2.557z"
		fill="#37474f"/>
	<path
		d="m233.794 90.65c2.279 0 4.01.529 5.196 1.586 1.184 1.058 1.778 2.525 1.778 4.403 0 1.331-.306 2.466-.916 3.405-.611.939-1.509 1.637-2.695 2.092l3.774 6.755c.055.109.082.21.082.301 0 .164-.059.305-.178.424-.118.119-.26.178-.423.178h-2.325c-.365 0-.634-.087-.807-.26-.173-.174-.296-.332-.369-.479l-3.583-6.373h-3.637v6.373c0 .201-.073.374-.219.52s-.319.219-.519.219h-2.216c-.2 0-.373-.072-.519-.219-.147-.146-.219-.319-.219-.52v-17.666c0-.2.072-.373.219-.52.146-.146.319-.219.519-.219zm-4.102 8.615h3.965c1.039 0 1.869-.182 2.489-.547.62-.364.93-1.057.93-2.079 0-1.021-.31-1.705-.93-2.051s-1.449-.52-2.489-.52h-3.965z"
		fill="#37474f"/>
	<path
		d="m243.147 102.684c0-1.021.155-1.983.466-2.886.309-.903.756-1.686 1.34-2.352.583-.666 1.29-1.19 2.119-1.573.83-.383 1.755-.574 2.776-.574s1.946.187 2.776.561 1.536.875 2.12 1.504c.583.629 1.035 1.368 1.353 2.215.319.848.479 1.737.479 2.667v1.231c0 .201-.073.374-.219.52s-.319.219-.519.219h-9.134c0 .419.086.789.26 1.107.173.319.405.588.697.807s.629.383 1.012.492.775.164 1.177.164c.583 0 1.057-.059 1.422-.178.364-.118.665-.269.902-.451.2-.146.365-.246.493-.301.127-.055.301-.082.519-.082h2.189c.2 0 .378.073.533.219.154.146.223.319.205.52-.019.256-.16.584-.424.985s-.661.793-1.19 1.176-1.18.711-1.955.984c-.775.274-1.673.41-2.694.41s-1.947-.178-2.776-.533c-.83-.356-1.536-.861-2.119-1.518-.584-.657-1.031-1.436-1.34-2.339-.313-.902-.468-1.9-.468-2.994zm6.701-4.102c-.53 0-.981.078-1.354.233s-.688.355-.943.601c-.256.246-.451.52-.588.821s-.224.588-.26.862h6.18c-.037-.274-.104-.561-.205-.862-.1-.301-.264-.574-.492-.821-.229-.246-.53-.446-.903-.601s-.852-.233-1.435-.233z"
		fill="#37474f"/>
	<path
		d="m265.026 110.069c-.911 0-1.736-.178-2.475-.533-.739-.356-1.368-.83-1.888-1.423-.519-.592-.93-1.276-1.23-2.051-.301-.775-.47-1.582-.506-2.42-.019-.274-.027-.593-.027-.957 0-.365.008-.684.027-.957.036-.838.205-1.645.506-2.42.3-.775.711-1.459 1.23-2.051.52-.593 1.148-1.067 1.888-1.422.738-.356 1.563-.533 2.475-.533.565 0 1.071.055 1.518.164s.838.246 1.176.41.624.342.862.533c.237.191.429.369.575.533v-.629c0-.2.072-.373.219-.52.146-.145.319-.219.519-.219h2.079c.2 0 .373.073.52.219.146.146.218.319.218.52v17.942c0 .2-.072.373-.218.52-.147.146-.32.219-.52.219h-2.079c-.2 0-.373-.073-.519-.219-.147-.146-.219-.319-.219-.52v-5.826c-.146.164-.338.342-.575.533s-.524.369-.862.533-.729.301-1.176.41c-.446.109-.952.164-1.518.164zm-2.543-6.619c.109 1.185.474 2.038 1.094 2.557.62.52 1.376.78 2.271.78.893 0 1.645-.274 2.256-.821.61-.547.961-1.295 1.052-2.243.037-.274.055-.62.055-1.039s-.018-.766-.055-1.039c-.091-.985-.442-1.741-1.052-2.27-.611-.529-1.364-.793-2.256-.793-.895 0-1.651.26-2.271.78s-.985 1.372-1.094 2.557c-.054.51-.054 1.021 0 1.531z"
		fill="#37474f"/>
	<path
		d="m276.349 96.312c0-.2.072-.373.219-.52.146-.145.319-.219.519-.219h2.079c.2 0 .373.073.52.219.146.146.218.319.218.52v6.947c0 1.094.232 1.97.698 2.626.465.657 1.225.985 2.284.985.966 0 1.704-.328 2.215-.985.511-.656.766-1.531.766-2.626v-6.947c0-.2.073-.373.219-.52.146-.145.319-.219.52-.219h2.079c.2 0 .373.073.519.219s.219.319.219.52v12.745c0 .201-.073.374-.219.52s-.319.219-.519.219h-2.079c-.201 0-.374-.072-.52-.219-.146-.146-.219-.319-.219-.52v-.629c-.419.42-.939.798-1.559 1.135s-1.368.506-2.243.506c-1.112 0-2.032-.173-2.761-.52-.73-.346-1.313-.811-1.75-1.395-.438-.584-.749-1.263-.93-2.038-.183-.775-.274-1.59-.274-2.448v-7.356z"
		fill="#37474f"/>
	<path
		d="m292.484 102.684c0-1.021.155-1.983.466-2.886.309-.903.756-1.686 1.34-2.352.583-.666 1.289-1.19 2.119-1.573s1.755-.574 2.776-.574 1.946.187 2.775.561c.83.374 1.536.875 2.12 1.504.583.629 1.035 1.368 1.353 2.215.319.848.479 1.737.479 2.667v1.231c0 .201-.073.374-.219.52s-.319.219-.519.219h-9.134c0 .419.086.789.26 1.107.173.319.405.588.697.807s.629.383 1.012.492.775.164 1.177.164c.583 0 1.057-.059 1.422-.178.364-.118.665-.269.902-.451.2-.146.365-.246.493-.301.127-.055.301-.082.519-.082h2.189c.2 0 .378.073.533.219.154.146.223.319.205.52-.019.256-.16.584-.424.985s-.661.793-1.19 1.176-1.18.711-1.955.984c-.775.274-1.673.41-2.694.41s-1.947-.178-2.776-.533c-.83-.356-1.536-.861-2.119-1.518-.584-.657-1.031-1.436-1.34-2.339-.311-.902-.467-1.9-.467-2.994zm6.702-4.102c-.53 0-.981.078-1.354.233s-.688.355-.943.601c-.256.246-.451.52-.588.821s-.224.588-.26.862h6.18c-.037-.274-.104-.561-.205-.862-.1-.301-.264-.574-.492-.821-.229-.246-.53-.446-.903-.601-.374-.155-.852-.233-1.435-.233z"
		fill="#37474f"/>
	<path
		d="m316.634 105.72c0-.201-.064-.365-.192-.492-.128-.128-.351-.246-.67-.356-.32-.11-.743-.219-1.272-.328-.53-.11-1.204-.255-2.024-.438-.803-.182-1.468-.41-1.997-.684-.529-.273-.953-.592-1.272-.957-.32-.364-.543-.78-.671-1.244-.127-.465-.191-.971-.191-1.518s.127-1.084.383-1.613c.255-.529.625-.998 1.108-1.408s1.07-.743 1.764-.998c.693-.255 1.486-.383 2.38-.383.893 0 1.691.1 2.393.3.703.201 1.3.465 1.792.793.493.328.876.707 1.148 1.135.274.429.429.862.466 1.299.018.201-.051.374-.205.52-.155.146-.333.219-.533.219h-2.106c-.274 0-.479-.05-.616-.15-.136-.1-.287-.214-.45-.342-.165-.127-.384-.241-.657-.342-.274-.1-.684-.15-1.231-.15s-1.03.082-1.449.246-.629.456-.629.875c0 .201.05.369.15.506s.292.26.575.369c.282.11.674.223 1.176.342.501.119 1.153.26 1.955.424 1.622.347 2.767.889 3.433 1.628.665.738.998 1.654.998 2.749 0 .547-.136 1.08-.41 1.6s-.671.984-1.19 1.395c-.52.41-1.158.738-1.915.984-.756.246-1.609.37-2.557.37-.966 0-1.818-.114-2.556-.342-.739-.228-1.364-.524-1.874-.889-.511-.364-.903-.775-1.177-1.231-.273-.455-.419-.902-.437-1.34-.018-.2.05-.374.205-.52s.333-.219.533-.219h2.106c.274 0 .479.064.616.192.136.127.291.273.465.437.173.164.415.31.724.438.31.127.775.191 1.395.191.274 0 .557-.018.848-.055.292-.036.561-.095.807-.178.245-.082.452-.191.615-.328.164-.138.246-.306.246-.507z"
		fill="#37474f"/>
	<path
		d="m327.902 104.653c0 .566.15 1.017.451 1.354.301.338.862.506 1.682.506h1.669c.2 0 .373.073.52.219.146.146.218.319.218.52v1.805c0 .201-.072.374-.218.52-.147.146-.32.219-.52.219h-2.024c-1.714 0-3.031-.414-3.952-1.244s-1.381-2.101-1.381-3.815v-5.88h-1.805c-.201 0-.374-.072-.52-.219-.146-.146-.218-.319-.218-.52v-1.805c0-.2.072-.373.218-.52.146-.145.319-.219.52-.219h1.805v-4.458c0-.2.072-.373.219-.52.146-.145.319-.219.519-.219h2.079c.2 0 .373.073.52.219.146.146.218.319.218.52v4.458h3.528c.2 0 .373.073.52.219.146.146.218.319.218.52v1.805c0 .201-.072.374-.218.52-.147.146-.32.219-.52.219h-3.528z"
		fill="#37474f"/>
	<path
		d="m163.731 77.317c.274 0 .511.1.71.299.198.2.298.437.298.71v3.963c0 .274-.1.512-.298.71-.2.2-.436.299-.71.299h-17.721c-.274 0-.512-.099-.71-.299-.2-.199-.3-.436-.3-.71v-24.151c0-.274.1-.511.3-.71.198-.199.436-.299.71-.299h17.421c.274 0 .511.1.71.299.2.2.3.437.3.71v3.963c0 .274-.1.511-.3.71-.2.2-.436.299-.71.299h-11.515v4.038h10.694c.273 0 .511.1.71.299.198.2.298.436.298.71v3.963c0 .274-.1.511-.298.71-.2.2-.438.3-.71.3h-10.694v4.187z"
		fill="#27debf"/>
	<path
		d="m180.181 57.128c1.646 0 3.116.174 4.412.523 1.296.35 2.399.873 3.308 1.57.91.699 1.608 1.589 2.095 2.673.485 1.085.728 2.35.728 3.795 0 1.869-.387 3.421-1.159 4.655s-1.868 2.175-3.289 2.823l4.636 8.898c.075.15.113.287.113.412 0 .224-.081.417-.243.58-.163.162-.355.243-.58.243h-5.085c-.498 0-.853-.112-1.066-.336-.211-.224-.381-.449-.504-.673l-4.15-8.001h-3.44v8.001c0 .274-.1.512-.298.71-.2.2-.436.299-.71.299h-4.897c-.274 0-.512-.099-.71-.299-.2-.199-.3-.436-.3-.71v-24.153c0-.274.1-.511.3-.71.198-.199.436-.299.71-.299h10.129zm-4.225 11.329h4.225c1.047 0 1.913-.199 2.599-.598.685-.399 1.028-1.122 1.028-2.169s-.343-1.769-1.028-2.169c-.687-.398-1.553-.598-2.599-.598h-4.225z"
		fill="#27debf"/>
	<path
		d="m206.164 57.128c1.646 0 3.116.174 4.412.523 1.296.35 2.399.873 3.308 1.57.91.699 1.608 1.589 2.095 2.673.485 1.085.728 2.35.728 3.795 0 1.869-.387 3.421-1.159 4.655s-1.868 2.175-3.289 2.823l4.636 8.898c.075.15.113.287.113.412 0 .224-.081.417-.243.58-.163.162-.355.243-.58.243h-5.085c-.498 0-.853-.112-1.066-.336-.211-.224-.381-.449-.504-.673l-4.15-8.001h-3.44v8.001c0 .274-.1.512-.298.71-.2.2-.436.299-.71.299h-4.897c-.274 0-.512-.099-.71-.299-.2-.199-.3-.436-.3-.71v-24.153c0-.274.1-.511.3-.71.198-.199.436-.299.71-.299h10.129zm-4.225 11.329h4.225c1.047 0 1.913-.199 2.599-.598.685-.399 1.028-1.122 1.028-2.169s-.343-1.769-1.028-2.169c-.687-.398-1.553-.598-2.599-.598h-4.225z"
		fill="#27debf"/>
	<path
		d="m220.147 66.886c.075-1.396.379-2.71.917-3.944.534-1.234 1.296-2.305 2.281-3.215.983-.91 2.181-1.632 3.589-2.169 1.407-.535 3.034-.803 4.878-.803 1.819 0 3.44.268 4.861.803 1.421.537 2.623 1.259 3.608 2.169.983.91 1.744 1.982 2.281 3.215.536 1.234.841 2.549.915 3.944.051 1.072.075 2.193.075 3.364 0 1.172-.024 2.269-.075 3.29-.075 1.396-.379 2.711-.915 3.944-.536 1.234-1.297 2.312-2.281 3.234-.985.922-2.187 1.645-3.608 2.168s-3.042.785-4.861.785c-1.845 0-3.472-.262-4.878-.785-1.408-.523-2.606-1.246-3.589-2.168-.985-.922-1.746-2.001-2.281-3.234-.538-1.233-.842-2.548-.917-3.944-.051-1.021-.075-2.118-.075-3.29.001-1.17.025-2.292.075-3.364zm16.413 6.468c.025-.448.049-.947.075-1.495.025-.548.038-1.109.038-1.683 0-.573-.013-1.128-.038-1.664s-.049-1.016-.075-1.439c-.051-.623-.181-1.197-.392-1.72-.213-.523-.512-.978-.898-1.365-.387-.386-.866-.691-1.44-.916-.574-.224-1.247-.337-2.019-.337s-1.446.113-2.019.337c-.574.224-1.053.53-1.439.916-.387.386-.687.841-.898 1.365-.212.523-.342 1.097-.393 1.72-.049.423-.081.903-.094 1.439s-.017 1.09-.017 1.664c0 .573.005 1.135.017 1.683.013.548.044 1.047.094 1.495.1 1.247.53 2.281 1.291 3.104.76.822 1.913 1.234 3.457 1.234 1.545 0 2.693-.412 3.44-1.234.749-.823 1.185-1.857 1.31-3.104z"
		fill="#27debf"/>
	<path
		d="m258.991 57.128c1.646 0 3.116.174 4.412.523 1.296.35 2.399.873 3.308 1.57.91.699 1.608 1.589 2.095 2.673.485 1.085.728 2.35.728 3.795 0 1.869-.387 3.421-1.159 4.655s-1.868 2.175-3.289 2.823l4.636 8.898c.075.15.113.287.113.412 0 .224-.081.417-.243.58-.163.162-.355.243-.58.243h-5.085c-.498 0-.853-.112-1.066-.336-.211-.224-.381-.449-.504-.673l-4.15-8.001h-3.44v8.001c0 .274-.1.512-.298.71-.2.2-.436.299-.71.299h-4.897c-.274 0-.512-.099-.71-.299-.2-.199-.3-.436-.3-.71v-24.153c0-.274.1-.511.3-.71.198-.199.436-.299.71-.299h10.129zm-4.225 11.329h4.225c1.047 0 1.913-.199 2.599-.598.685-.399 1.028-1.122 1.028-2.169s-.343-1.769-1.028-2.169c-.687-.398-1.553-.598-2.599-.598h-4.225z"
		fill="#27debf"/>
	<path
		d="m294.097 83.299c-.274 0-.512-.099-.711-.299-.2-.199-.3-.436-.3-.71v-3.813h-11.776c-.274 0-.511-.099-.71-.299-.2-.2-.298-.436-.298-.71v-3.963c0-.648.162-1.183.485-1.607l11.179-14.095c.224-.274.43-.454.617-.542.187-.087.442-.131.766-.131h5.646c.274 0 .511.1.71.299.198.2.298.437.298.71v14.357h3.216c.274 0 .511.1.711.299.198.2.298.437.298.71v3.963c0 .274-.1.511-.298.71-.2.2-.436.299-.711.299h-3.216v3.813c0 .274-.1.512-.298.71-.2.2-.436.299-.71.299zm-.823-10.805v-6.879l-5.459 6.879z"
		fill="#27debf"/>
	<path
		d="m318.288 56.755c1.868 0 3.476.274 4.823.822 1.345.549 2.46 1.284 3.346 2.206.883.922 1.545 2 1.981 3.234s.691 2.523.766 3.87c.051 1.072.075 2.193.075 3.364 0 1.172-.024 2.269-.075 3.29-.075 1.346-.33 2.636-.766 3.87s-1.097 2.312-1.981 3.234c-.887.923-2.002 1.658-3.346 2.206-1.346.548-2.955.822-4.823.822-1.87 0-3.478-.274-4.824-.822-1.345-.548-2.461-1.283-3.345-2.206-.885-.921-1.546-2-1.982-3.234s-.691-2.523-.766-3.87c-.051-1.021-.075-2.118-.075-3.29 0-1.171.024-2.292.075-3.364.075-1.346.33-2.636.766-3.87s1.098-2.312 1.982-3.234c.883-.922 2-1.657 3.345-2.206 1.346-.548 2.954-.822 4.824-.822zm3.999 16.599c.1-2.118.1-4.211 0-6.28-.051-.623-.144-1.197-.281-1.72-.136-.523-.355-.978-.653-1.365-.3-.386-.699-.691-1.197-.916-.498-.224-1.121-.337-1.868-.337-.749 0-1.372.113-1.87.337-.5.224-.898.53-1.197.916-.298.386-.523.841-.672 1.365-.149.523-.236 1.097-.262 1.72-.125 2.069-.125 4.162 0 6.28.025.624.106 1.197.243 1.72.138.523.362.978.674 1.365.311.387.715.691 1.215.916.498.224 1.121.337 1.87.337.747 0 1.37-.113 1.868-.337s.904-.529 1.215-.916c.312-.386.536-.841.674-1.365.135-.524.216-1.096.241-1.72z"
		fill="#27debf"/>
	<path
		d="m344.01 56.755c1.868 0 3.476.274 4.823.822 1.345.549 2.46 1.284 3.346 2.206.883.922 1.545 2 1.981 3.234s.691 2.523.766 3.87c.051 1.072.075 2.193.075 3.364 0 1.172-.024 2.269-.075 3.29-.075 1.346-.33 2.636-.766 3.87s-1.097 2.312-1.981 3.234c-.887.923-2.001 1.658-3.346 2.206-1.346.548-2.955.822-4.823.822-1.87 0-3.478-.274-4.824-.822-1.345-.548-2.461-1.283-3.345-2.206-.885-.921-1.546-2-1.982-3.234s-.691-2.523-.766-3.87c-.051-1.021-.075-2.118-.075-3.29 0-1.171.024-2.292.075-3.364.075-1.346.33-2.636.766-3.87s1.097-2.312 1.982-3.234c.883-.922 2-1.657 3.345-2.206 1.346-.548 2.954-.822 4.824-.822zm3.999 16.599c.1-2.118.1-4.211 0-6.28-.051-.623-.144-1.197-.281-1.72-.136-.523-.355-.978-.654-1.365-.3-.386-.699-.691-1.197-.916-.498-.224-1.121-.337-1.868-.337-.749 0-1.372.113-1.87.337-.5.224-.898.53-1.197.916-.298.386-.523.841-.672 1.365-.149.523-.236 1.097-.262 1.72-.125 2.069-.125 4.162 0 6.28.025.624.106 1.197.243 1.72.138.523.361.978.674 1.365.311.387.715.691 1.215.916.498.224 1.121.337 1.87.337.747 0 1.37-.113 1.868-.337s.904-.529 1.215-.916c.312-.386.536-.841.674-1.365.136-.524.217-1.096.242-1.72z"
		fill="#27debf"/>
</svg>
