<svg enable-background="new 0 0 500 500" viewBox="0 0 500 500" xmlns="http://www.w3.org/2000/svg"><ellipse cx="250" cy="384.615" fill="#f5f5f5" rx="209.732" ry="94.794"/><ellipse cx="352.357" cy="395.725" fill="#e0e0e0" rx="56.053" ry="32.362"/><path d="m91.709 412.522c-9.529 5.564-9.529 14.584 0 20.148s24.979 5.564 34.509 0c9.529-5.563 9.529-14.584-.001-20.147-9.528-5.564-24.978-5.564-34.508-.001z" fill="#e0e0e0"/><path d="m103.875 225.908v3.458c0 1.09.765 1.531 1.709.986l3.337-1.927v-7.404l-3.337 1.926c-.944.546-1.709 1.871-1.709 2.961z" fill="#e0e0e0"/><path d="m93.285 222.956v3.458c0 1.09.765 1.531 1.709.987l13.927-8.041v-7.404l-13.927 8.041c-.944.543-1.709 1.869-1.709 2.959z" fill="#e0e0e0"/><path d="m100.822 262.047-15.819 9.133c-.944.545-1.709 1.87-1.709 2.96v3.458c0 1.09.765 1.532 1.709.987l15.819-9.133c.943-.545 1.709-1.87 1.709-2.96v-3.458c-.001-1.09-.766-1.532-1.709-.987z" fill="#e0e0e0"/><path d="m108.921 302.879-13.927 8.041c-.943.545-1.709 1.87-1.709 2.96v3.458c0 1.09.765 1.531 1.709.986l13.927-8.041z" fill="#e0e0e0"/><path d="m93.285 186.586v3.458c0 1.09.765 1.531 1.709.987l13.927-8.04v-7.404l-13.927 8.04c-.944.544-1.709 1.869-1.709 2.959z" fill="#e0e0e0"/><path d="m77.437 295.914v3.458c0 1.09.765 1.532 1.709.987l15.819-9.133c.944-.545 1.709-1.87 1.709-2.96v-3.458c0-1.09-.765-1.531-1.709-.987l-15.819 9.133c-.943.545-1.709 1.87-1.709 2.96z" fill="#e0e0e0"/><path d="m93.285 259.325v3.458c0 1.09.765 1.531 1.709.987l13.927-8.041v-7.404l-13.927 8.041c-.944.544-1.709 1.869-1.709 2.959z" fill="#e0e0e0"/><path d="m91.941 318.094v-3.458c0-1.09-.765-1.531-1.709-.986l-15.819 9.133c-.944.545-1.709 1.87-1.709 2.96v3.458c0 1.09.765 1.532 1.709.987l15.819-9.133c.943-.546 1.709-1.872 1.709-2.961z" fill="#e0e0e0"/><path d="m92.019 176.331-15.819 9.133c-.943.545-1.709 1.87-1.709 2.96v3.458c0 1.09.765 1.532 1.709.987l15.819-9.133c.944-.545 1.709-1.87 1.709-2.96v-3.458c0-1.09-.765-1.532-1.709-.987z" fill="#e0e0e0"/><path d="m100.822 189.308-15.819 9.133c-.944.545-1.709 1.87-1.709 2.96v3.458c0 1.09.765 1.531 1.709.986l15.819-9.133c.943-.545 1.709-1.87 1.709-2.96v-3.458c-.001-1.089-.766-1.531-1.709-.986z" fill="#e0e0e0"/><path d="m100.822 225.678-15.819 9.133c-.944.545-1.709 1.87-1.709 2.96v3.458c0 1.09.765 1.532 1.709.987l15.819-9.133c.943-.545 1.709-1.87 1.709-2.96v-3.458c-.001-1.09-.766-1.532-1.709-.987z" fill="#e0e0e0"/><path d="m85.002 333.139 15.819-9.133c.943-.545 1.709-1.87 1.709-2.96v-3.458c0-1.09-.765-1.531-1.709-.986l-15.819 9.133c-.944.545-1.709 1.87-1.709 2.96v3.458c.001 1.089.766 1.531 1.709.986z" fill="#e0e0e0"/><path d="m235.655 161.923v3.458c0 1.09-.765 2.415-1.709 2.96l-3.337 1.927v-7.404l3.337-1.927c.943-.545 1.709-.104 1.709.986z" fill="#e0e0e0"/><path d="m230.608 281.09 13.927-8.041c.943-.545 1.709-.103 1.709.987v3.458c0 1.09-.765 2.415-1.709 2.96l-13.927 8.041z" fill="#e0e0e0"/><path d="m246.245 146.742v3.458c0 1.09-.765 2.415-1.709 2.96l-13.927 8.041v-7.404l13.927-8.041c.943-.545 1.709-.104 1.709.986z" fill="#e0e0e0"/><path d="m238.708 194.537 15.819-9.133c.944-.545 1.709-.103 1.709.986v3.458c0 1.09-.765 2.415-1.709 2.96l-15.819 9.133c-.943.545-1.709.103-1.709-.987v-3.458c0-1.089.766-2.415 1.709-2.959z" fill="#e0e0e0"/><path d="m230.608 244.721 13.927-8.041c.943-.544 1.709-.103 1.709.987v3.458c0 1.09-.765 2.415-1.709 2.96l-13.927 8.041z" fill="#e0e0e0"/><path d="m246.245 110.373v3.458c0 1.09-.765 2.415-1.709 2.96l-13.927 8.041v-7.404l13.927-8.041c.943-.545 1.709-.104 1.709.986z" fill="#e0e0e0"/><path d="m262.092 201.402v3.458c0 1.09-.765 2.415-1.709 2.96l-15.819 9.133c-.944.545-1.709.104-1.709-.986v-3.458c0-1.09.765-2.415 1.709-2.96l15.819-9.133c.944-.545 1.709-.104 1.709.986z" fill="#e0e0e0"/><path d="m246.245 183.112v3.458c0 1.09-.765 2.415-1.709 2.96l-13.927 8.041v-7.405l13.927-8.041c.943-.544 1.709-.103 1.709.987z" fill="#e0e0e0"/><path d="m247.589 240.328v-3.458c0-1.09.765-2.415 1.709-2.96l15.819-9.133c.944-.545 1.709-.104 1.709.986v3.458c0 1.09-.765 2.415-1.709 2.96l-15.819 9.133c-.944.545-1.709.104-1.709-.986z" fill="#e0e0e0"/><path d="m238.708 121.798 15.819-9.133c.944-.545 1.709-.103 1.709.986v3.458c0 1.09-.765 2.415-1.709 2.96l-15.819 9.133c-.943.544-1.709.103-1.709-.987v-3.458c0-1.089.766-2.415 1.709-2.959z" fill="#e0e0e0"/><path d="m238.708 158.167 15.819-9.133c.944-.545 1.709-.103 1.709.986v3.458c0 1.09-.765 2.415-1.709 2.96l-15.819 9.133c-.943.544-1.709.103-1.709-.987v-3.458c0-1.089.766-2.414 1.709-2.959z" fill="#e0e0e0"/><path d="m254.527 247.362-15.819 9.133c-.943.545-1.709.103-1.709-.986v-3.458c0-1.09.765-2.415 1.709-2.96l15.819-9.133c.944-.545 1.709-.103 1.709.986v3.458c0 1.09-.765 2.415-1.709 2.96z" fill="#e0e0e0"/><path d="m230.608 299.275 13.927-8.041c.943-.545 1.709-.103 1.709.987v3.458c0 1.09-.765 2.415-1.709 2.96l-13.928 8.041z" fill="#e0e0e0"/><path d="m108.921 413.021.002-247.582c0-3.452 2.423-7.65 5.414-9.376l107.126-61.85c1.495-.863 2.848-.945 3.828-.379.979.566 2.703 1.57 3.681 2.125.989.561 1.602 1.778 1.602 3.514v247.584l-7.813 4.51-6.342-3.67-95.99 55.417v7.33l-7.81 4.51z" fill="#37474f"/><path d="m134.275 395.323-13.847 7.993v7.33l-7.81 4.51-3.697-2.134.002-247.582c0-1.731.61-3.648 1.594-5.349l23.588 13.619z" fill="#263238"/><path d="m112.615 167.587v247.556l7.813-4.501v-7.327l95.99-55.417 6.341 3.667 7.813-4.501v-247.587c0-3.469-2.437-4.844-5.407-3.125l-107.144 61.859c-2.968 1.719-5.406 5.907-5.406 9.376z" fill="#455a64"/><path d="m120.428 168.904v237.478l98.67-56.967v-237.465z" fill="#27debf"/><path d="m120.428 168.904v237.478l98.67-56.967v-237.465z" fill="#fff" opacity=".7"/><g opacity=".43"><path d="m137.245 377.255v-198.641l65.037-37.541v198.633zm2.727-197.066v192.344l59.583-34.401v-192.336z" fill="#27debf"/><path d="m137.245 178.614v198.641l65.037-37.549v-198.633zm62.31 159.517-59.583 34.401v-192.343l59.583-34.393z" opacity=".1"/></g><path d="m219.098 349.415v-237.465l3.657-2.123.005 241.741z" fill="#263238"/><path d="m120.428 410.642 102.332-59.074-3.662-2.153-98.67 56.967z" fill="#e0e0e0"/><path d="m122.342 258.219 1.973 1.138.001 32.733-1.972-1.138z" fill="#e0e0e0"/><path d="m124.315 259.357 10.63-6.137.001 32.733-10.63 6.137z" fill="#fafafa"/><path d="m134.946 262.228-4.654 2.687.001 5.32c0 .489.529.794.952.55l3.7-2.136z" opacity=".05"/><path d="m134.945 253.22-1.972-1.138-10.631 6.137 1.973 1.138z" fill="#ebebeb"/><path d="m128.39 263.816 4.876 2.815 1.952-3.381-4.876-2.815c-.25-.144-.595-.123-.976.097-.762.44-1.38 1.51-1.38 2.39-.001.441.154.75.404.894z" fill="#e0e0e0"/><path d="m130.292 264.914 1.773 1.024-.001-2.329 1.887-1.09-1.772-1.023-1.887 1.089z" opacity=".1"/><path d="m132.653 263.977.001 5.114 19.494-11.25v-5.115z" fill="#fafafa"/><path d="m132.653 263.977-1.772-1.024v5.115l1.773 1.023z" fill="#e0e0e0"/><path d="m152.148 252.726-1.772-1.024-19.495 11.251 1.772 1.024z" fill="#ebebeb"/><path d="m127.839 278.233c0-1.142.802-2.531 1.791-3.102s1.791-.108 1.791 1.034c0 .85-.446 1.835-1.081 2.52v3.341c0 .386-.271.856-.606 1.049l-.209.121c-.334.193-.606.036-.606-.35v-3.339c-.635.049-1.08-.423-1.08-1.274z" fill="#455a64"/><path d="m155.5 200.159 30.07-17.361c1.794-1.036 3.248-.196 3.248 1.876v20.647c0 2.072-1.454 4.591-3.248 5.626l-30.07 17.36c-1.794 1.036-3.248.196-3.248-1.876v-20.647c-.001-2.07 1.454-4.589 3.248-5.625z" opacity=".15"/><path d="m156.648 201.029 30.069-17.361c1.794-1.036 3.248-.196 3.248 1.876v20.647c0 2.072-1.454 4.591-3.248 5.626l-30.069 17.361c-1.794 1.036-3.248.196-3.248-1.876v-20.647c0-2.071 1.454-4.59 3.248-5.626z" fill="#455a64"/><path d="m165.589 198.033c-.027 0-.054-.004-.082-.01-.203-.045-.328-.246-.285-.449l6.095-26.686c.039-.164.184-.285.352-.291h.016c.164 0 .309.107.359.264l6.095 19.649c.058.197-.051.408-.25.469-.192.07-.406-.051-.469-.246l-5.681-18.317-5.783 25.326c-.043.174-.195.291-.367.291z" fill="#263238"/><path d="m157.656 220.878c-.06-.063-.091-.21-.091-.441v-10.81c0-.231.03-.412.091-.545.059-.131.156-.237.291-.314l3.276-1.892c.105-.06.179-.044.225.051.044.095.067.269.067.523v.449c0 .254-.022.453-.067.6s-.12.25-.225.311l-2.165 1.25v3.005l1.929-1.114c.106-.06.18-.043.225.053.045.094.067.268.067.522v.449c0 .252-.022.453-.067.6-.044.146-.119.249-.225.311l-1.929 1.113v3.282l2.176-1.256c.098-.057.169-.039.214.049.044.09.067.267.067.532v.449c0 .265-.022.468-.067.608-.045.141-.116.241-.214.297l-3.286 1.897c-.136.077-.234.084-.292.021z" fill="#fafafa"/><path d="m162.781 217.599v-10.984c0-.219.032-.399.096-.539.063-.14.162-.249.297-.327l1.806-1.043c1.503-.867 2.255-.209 2.255 1.979 0 1.371-.352 2.548-1.055 3.529v.067c.299.082.554.563.763 1.443l.674 2.944c.007.031.014.064.022.1s.011.07.011.106c0 .264-.202.513-.606.746l-.326.188c-.352.203-.546.183-.582-.06l-.618-2.96c-.09-.339-.192-.55-.308-.634-.116-.082-.294-.055-.533.083l-.415.24v4.266c0 .334-.198.615-.595.844l-.303.175c-.389.225-.583.17-.583-.163zm2.277-7.689c.202-.117.374-.371.517-.763.142-.393.212-.849.212-1.367 0-.552-.068-.919-.207-1.097-.138-.179-.327-.201-.567-.062l-.763.44v3.316z" fill="#fafafa"/><path d="m168.649 214.211v-10.984c0-.219.031-.399.095-.539.063-.14.162-.249.297-.327l1.807-1.043c1.503-.867 2.255-.209 2.255 1.979 0 1.371-.352 2.548-1.055 3.529v.068c.299.082.554.563.763 1.443l.673 2.944c.007.031.015.064.022.1.008.036.012.07.012.106 0 .265-.202.513-.605.746l-.326.188c-.351.203-.546.183-.583-.06l-.617-2.96c-.09-.339-.193-.55-.308-.634-.116-.082-.294-.055-.534.083l-.415.24v4.266c0 .334-.199.615-.596.844l-.303.175c-.388.224-.582.17-.582-.164zm2.277-7.688c.202-.117.374-.371.516-.763.142-.393.213-.849.213-1.367 0-.552-.069-.919-.208-1.097-.139-.179-.327-.201-.566-.062l-.763.44v3.316z" fill="#fafafa"/><path d="m174.291 205.358c0-4.099.964-6.706 2.894-7.82 1.922-1.11 2.883.384 2.883 4.484 0 4.122-.961 6.737-2.883 7.847-1.93 1.115-2.894-.388-2.894-4.511zm3.925 1.006c.225-.78.337-1.936.337-3.467s-.111-2.553-.332-3.065c-.22-.51-.563-.632-1.026-.365-.471.273-.818.793-1.043 1.56-.225.769-.336 1.919-.336 3.451 0 1.53.112 2.556.336 3.078.225.52.572.644 1.043.373.457-.263.797-.785 1.021-1.565z" fill="#fafafa"/><path d="m181.346 206.88v-10.984c0-.218.031-.398.095-.538.063-.14.162-.249.297-.327l1.806-1.044c1.503-.867 2.255-.208 2.255 1.98 0 1.371-.352 2.547-1.055 3.529v.068c.299.082.553.562.763 1.442l.673 2.944c.007.03.015.064.022.099.008.036.011.071.011.106 0 .265-.201.514-.605.747l-.326.188c-.352.202-.546.183-.583-.06l-.617-2.96c-.09-.339-.193-.55-.308-.634-.116-.082-.294-.055-.533.083l-.415.24v4.266c0 .334-.199.614-.595.843l-.304.176c-.386.225-.581.17-.581-.164zm2.277-7.687c.202-.117.374-.371.516-.764s.213-.848.213-1.366c0-.552-.069-.92-.208-1.097-.138-.179-.327-.201-.566-.062l-.763.44v3.315z" fill="#fafafa"/><path d="m112.535 369.857-3.701-2.108.006 12.455 3.695 2.105z" opacity=".2"/><path d="m112.535 366.542-4.182-2.447.006 12.455 4.176 2.444z" fill="#27debf"/><path d="m112.535 366.542-4.182-2.447.006 12.455 4.176 2.444z" opacity=".2"/><path d="m230.535 215.013-118 154.845.001 12.451 117.999-154.844z" opacity=".25"/><path d="m230.535 211.698-118 154.844.001 12.452 117.999-154.844z" fill="#27debf"/><path d="m230.535 224.126v-5.65l-5.851.899-4.875 6.398z" fill="#455a64"/><path d="m215.944 243.316-10.766 1.653-4.876 6.398 10.766-1.653z" fill="#455a64"/><path d="m225.695 230.519-10.766 1.653-4.875 6.398 10.766-1.653z" fill="#455a64"/><path d="m206.192 256.112-10.766 1.654-4.876 6.398 10.766-1.653z" fill="#455a64"/><path d="m196.44 268.909-10.766 1.653-4.876 6.399 10.766-1.653z" fill="#455a64"/><path d="m186.688 281.706-10.766 1.653-4.876 6.399 10.766-1.653z" fill="#455a64"/><path d="m176.936 294.503-10.766 1.653-4.876 6.398 10.766-1.653z" fill="#455a64"/><path d="m167.184 307.3-10.766 1.653-4.876 6.398 10.766-1.653z" fill="#455a64"/><path d="m157.432 320.096-10.766 1.654-4.875 6.398 10.766-1.653z" fill="#455a64"/><path d="m147.681 332.893-10.766 1.653-4.876 6.399 10.766-1.653z" fill="#455a64"/><path d="m137.929 345.69-10.766 1.653-4.876 6.399 10.766-1.653z" fill="#455a64"/><path d="m128.177 358.487-10.766 1.653-4.876 6.398 10.766-1.653z" fill="#455a64"/><path d="m118.409 371.286-5.874.902v6.806l.998-1.31z" fill="#455a64"/><path d="m112.535 283.523 118 15.404-.001 12.452-117.999-15.404z" opacity=".25"/><path d="m112.535 281.418 118 15.404-.001 12.452-117.999-15.404z" fill="#27debf"/><path d="m112.535 283.522-3.701-2.171.006 12.455 3.695 2.168z" opacity=".2"/><path d="m112.535 281.418-4.182-2.447.006 12.455 4.176 2.444z" fill="#27debf"/><path d="m112.535 281.418-4.182-2.447.006 12.455 4.176 2.444z" opacity=".2"/><g fill="#37474f"><path d="m117.802 284.776c.033.004.057.037.073.098.015.061.017.132.006.211l-.168 1.153c-.011.081-.034.147-.066.202s-.065.08-.098.077l-1.341-.172-.217 1.489 1.252.16c.033.003.057.037.073.098.015.061.017.131.006.211l-.168 1.152c-.012.08-.034.148-.066.202-.031.056-.065.081-.098.076l-1.251-.159-.342 2.348c-.011.081-.033.147-.066.202-.031.055-.065.081-.097.076l-.589-.075c-.032-.005-.057-.037-.073-.098-.015-.061-.017-.132-.005-.21l1.021-7.025c.012-.08.034-.147.066-.202s.065-.08.098-.075z"/><path d="m118.196 287.717c.068-.405.161-.782.276-1.133.117-.351.254-.651.41-.901.157-.249.331-.439.523-.574.192-.134.399-.187.62-.159.219.028.401.131.548.308.149.179.262.407.342.686.08.28.126.603.138.97.011.367-.007.753-.058 1.161-.039.313-.084.64-.134.979-.049.341-.099.66-.148.957-.068.404-.161.783-.276 1.134-.117.35-.254.652-.411.905s-.332.445-.525.575c-.192.13-.399.183-.616.154-.222-.029-.406-.129-.553-.303s-.26-.403-.339-.686c-.08-.283-.124-.608-.136-.974-.012-.368.007-.754.057-1.162.038-.298.08-.617.13-.958.05-.343.1-.669.152-.979zm1.696 2.132c.022-.129.045-.275.073-.433.025-.158.052-.322.075-.489.025-.167.046-.328.066-.485s.037-.296.052-.419c.02-.182.029-.352.025-.507s-.02-.292-.05-.41c-.031-.118-.075-.215-.135-.289-.059-.074-.135-.117-.227-.129-.093-.012-.178.012-.256.067-.079.056-.149.138-.212.244-.063.107-.118.234-.165.384-.048.148-.088.313-.121.493-.024.123-.048.262-.072.418-.025.156-.049.317-.073.483-.025.167-.047.33-.069.489-.022.161-.039.306-.052.437-.04.364-.033.671.025.923.056.251.177.389.362.412.185.025.341-.078.465-.305.125-.229.221-.523.289-.884z"/><path d="m123.628 285.521c.198.025.365.098.507.22.14.121.25.29.331.507.079.217.126.487.138.809.012.323-.012.695-.073 1.116-.08.543-.191.989-.336 1.335-.145.347-.317.605-.514.77l.179 2.659c.003.044.002.084-.004.121-.01.064-.027.12-.054.165-.026.044-.053.065-.08.061l-.61-.078c-.06-.007-.098-.046-.114-.115-.016-.068-.026-.136-.032-.203l-.159-2.391-.413-.052-.339 2.327c-.01.081-.033.147-.066.201-.032.055-.065.081-.098.077l-.588-.075c-.032-.004-.058-.037-.073-.098-.016-.061-.017-.131-.005-.211l1.021-7.024c.011-.08.034-.148.066-.202.033-.055.066-.08.099-.076zm-.988 3.23.507.064c.126.016.238-.029.337-.134.1-.106.171-.31.216-.615s.034-.52-.032-.647c-.065-.126-.161-.198-.286-.214l-.507-.065z"/><path d="m124.751 293.417c-.032-.004-.057-.037-.073-.098-.016-.06-.017-.131-.005-.21l1.021-7.024c.012-.081.033-.148.066-.202.032-.056.065-.081.098-.076l1.445.185c.199.025.359.114.478.266.117.151.202.339.253.564.052.224.075.475.072.751-.004.277-.025.549-.064.818-.031.209-.067.391-.108.544-.043.154-.085.284-.129.394-.044.109-.084.197-.122.261-.039.066-.069.115-.093.149.088.211.136.448.145.71.009.264-.012.576-.065.939-.044.298-.104.586-.181.864s-.172.522-.287.734c-.115.209-.248.374-.399.49-.151.118-.323.165-.513.14zm.955-1.595.741.095c.089.011.17-.043.242-.163.073-.119.122-.274.15-.463s.024-.35-.012-.483c-.035-.133-.097-.206-.187-.217l-.741-.095zm1.496-3.497c.026-.188.026-.341-.005-.459-.029-.119-.089-.184-.179-.196l-.695-.089-.181 1.239.697.09c.089.013.164-.036.228-.142.062-.106.107-.253.135-.443z"/><path d="m128.274 293.868c-.033-.005-.057-.037-.073-.098-.015-.061-.017-.131-.005-.21l1.021-7.025c.012-.08.034-.148.066-.202.032-.055.065-.08.099-.076l.587.075c.032.004.057.038.073.098.016.061.018.132.006.211l-1.022 7.023c-.011.081-.033.148-.066.202-.033.056-.066.081-.098.077z"/><path d="m132.37 286.638c.206.027.385.124.533.296.149.169.266.397.351.681.086.284.136.617.152.999.016.383-.004.796-.059 1.238-.018.153-.038.293-.056.42s-.036.249-.053.364c-.017.116-.034.235-.052.359s-.039.258-.063.401c-.074.449-.173.854-.296 1.215-.122.36-.263.667-.424.919-.16.253-.335.443-.524.571-.189.126-.387.178-.593.151l-1.212-.156c-.033-.004-.057-.036-.073-.098-.015-.061-.017-.132-.006-.21l1.022-7.025c.012-.081.033-.148.066-.202.032-.055.065-.081.098-.076zm.153 3.066c.103-.837-.039-1.28-.428-1.329l-.458-.058-.602 4.131.48.062c.378.048.634-.343.77-1.175.025-.152.047-.294.066-.429.019-.134.039-.265.058-.392.017-.126.037-.256.056-.386.02-.13.039-.272.058-.424z"/><path d="m135.961 287.097c.207.027.384.125.533.295.148.17.265.397.351.682s.136.617.151 1c.017.382-.003.795-.059 1.238-.019.153-.038.292-.056.42-.019.125-.037.247-.053.363-.017.116-.034.236-.052.359-.017.123-.038.258-.063.402-.074.448-.173.854-.295 1.213-.123.361-.265.668-.425.921s-.335.443-.524.57c-.19.127-.387.178-.594.151l-1.212-.155c-.032-.004-.057-.038-.073-.098-.015-.061-.017-.131-.004-.211l1.021-7.023c.011-.081.033-.148.066-.202.032-.055.066-.081.098-.076zm.153 3.066c.103-.836-.039-1.279-.428-1.33l-.458-.057-.601 4.132.48.061c.377.047.633-.343.77-1.175.025-.151.046-.294.066-.429.019-.133.039-.265.057-.392.018-.126.038-.255.056-.385.019-.131.039-.273.058-.425z"/><path d="m139.615 293.546c.033.004.058.038.073.098.015.061.017.131.005.21l-.168 1.153c-.011.079-.033.147-.066.201-.031.055-.065.081-.097.076l-2.127-.272c-.032-.004-.057-.037-.073-.098-.015-.06-.017-.131-.005-.209l1.021-7.025c.012-.081.034-.148.066-.202.032-.056.065-.081.098-.076l2.091.268c.033.004.058.037.073.098.016.06.017.131.006.21l-.168 1.153c-.011.08-.033.148-.066.202-.032.055-.066.08-.099.076l-1.382-.176-.171 1.173 1.284.165c.032.005.057.037.073.098.015.061.017.131.005.209l-.168 1.154c-.011.08-.033.146-.066.202-.032.055-.065.08-.098.075l-1.283-.164-.178 1.217z"/><path d="m142.394 295.672c-.051-.006-.087-.044-.108-.113-.023-.071-.035-.123-.039-.161l-.487-3.85-.534 3.674c-.012.081-.034.148-.066.202-.032.055-.065.081-.098.077l-.588-.075c-.033-.005-.057-.038-.073-.098-.015-.062-.018-.132-.006-.211l1.022-7.025c.012-.08.033-.147.066-.202.032-.055.065-.08.098-.075l.466.06c.051.006.087.043.109.112s.035.124.038.161l.487 3.85.533-3.675c.012-.079.034-.147.066-.202.033-.054.066-.08.098-.075l.588.074c.033.005.058.037.074.098.015.061.017.132.005.211l-1.022 7.024c-.011.08-.033.148-.066.202-.032.055-.065.081-.098.076z"/><path d="m146.716 296.225c-.032-.004-.056-.037-.073-.098-.015-.061-.017-.132-.005-.211l.162-1.109-1.414-.182c-.033-.003-.058-.037-.073-.098-.016-.061-.017-.131-.006-.211l.168-1.152c.028-.189.069-.342.127-.461l1.938-3.927c.039-.076.071-.125.097-.148s.059-.032.098-.027l.677.087c.033.004.058.037.073.098.017.062.017.132.006.211l-.607 4.175.385.05c.033.004.058.036.073.098.016.061.017.132.005.211l-.167 1.153c-.012.08-.034.147-.066.202s-.065.08-.098.076l-.386-.05-.161 1.11c-.012.08-.034.147-.066.201-.032.055-.065.08-.098.077zm.358-3.155.292-2.001-.947 1.918z"/><path d="m151.085 288.92c.224.03.406.133.544.313.138.181.241.412.308.693.067.282.101.604.101.971 0 .365-.025.744-.072 1.136-.04.312-.084.64-.134.98-.05.341-.099.659-.148.956-.066.391-.152.761-.256 1.113-.104.353-.229.657-.374.911-.146.254-.31.451-.495.59s-.389.194-.614.165-.406-.133-.544-.313-.241-.411-.309-.693c-.067-.281-.101-.605-.101-.97 0-.366.024-.745.072-1.137.038-.298.08-.617.13-.958.05-.34.101-.666.152-.978.066-.39.151-.761.256-1.112.104-.353.228-.656.374-.91.145-.255.31-.451.494-.591.187-.139.392-.194.616-.166zm-.222 4.89c.101-.615.189-1.223.266-1.826.019-.182.033-.35.039-.506.005-.154-.002-.289-.021-.406-.019-.116-.054-.212-.105-.285s-.12-.115-.21-.126c-.089-.012-.17.011-.239.069s-.13.141-.182.248c-.052.108-.099.236-.139.387-.04.15-.075.315-.104.497-.102.599-.192 1.208-.266 1.825-.024.182-.038.351-.043.504-.006.156.002.292.023.408.021.118.056.213.107.284.051.073.121.116.21.127.09.011.17-.012.239-.069.069-.058.131-.14.184-.248.054-.108.1-.236.139-.387.038-.15.073-.316.102-.496z"/><path d="m155.509 289.596c.032.004.057.038.073.098.015.061.017.131.005.21l-.167 1.153c-.012.08-.032.151-.064.214-.03.063-.058.114-.081.156l-.736 1.256c.213.175.366.445.463.807.097.363.105.828.022 1.392-.119.82-.325 1.421-.619 1.804-.293.384-.65.549-1.068.495-.216-.027-.398-.114-.546-.259-.148-.143-.264-.325-.348-.542-.085-.217-.138-.458-.163-.724-.024-.265-.018-.532.018-.8.01-.065.027-.12.053-.166.026-.045.053-.065.08-.062l.565.072c.063.008.106.048.129.123.023.072.048.151.077.236.03.085.071.165.125.243.053.076.141.123.261.138.143.019.271-.024.382-.128s.185-.283.222-.537.017-.444-.061-.573c-.077-.128-.187-.2-.331-.219l-.372-.047c-.033-.005-.058-.037-.073-.098-.017-.061-.018-.131-.006-.211l.136-.934c.011-.081.033-.151.064-.214.03-.064.059-.118.087-.167l.645-1.102-1.172-.149c-.032-.004-.057-.037-.072-.098-.016-.062-.018-.131-.006-.212l.167-1.152c.012-.08.034-.146.066-.202.031-.054.065-.08.098-.075z"/><path d="m160.103 290.184c.032.004.057.037.073.098.015.061.017.132.006.211l-.169 1.152c-.01.081-.033.148-.066.202-.032.055-.065.081-.098.077l-1.341-.172-.217 1.489 1.252.16c.032.004.057.037.073.098.015.062.018.132.006.212l-.168 1.153c-.011.08-.034.146-.066.202-.032.055-.065.08-.098.076l-1.251-.161-.342 2.348c-.011.081-.034.148-.066.202-.032.056-.065.081-.097.077l-.589-.075c-.031-.005-.056-.038-.072-.098-.016-.062-.017-.132-.005-.211l1.021-7.025c.012-.079.033-.147.066-.202.031-.055.065-.08.098-.075z"/><path d="m160.468 293.121c.068-.405.16-.782.276-1.133.117-.351.254-.651.41-.901.157-.249.331-.44.522-.574.192-.134.399-.188.621-.159.218.028.401.131.549.308.148.178.261.406.341.686.08.279.126.603.137.97.012.367-.007.753-.057 1.161-.039.311-.084.639-.134.979-.049.34-.099.66-.148.957-.068.404-.161.782-.276 1.133-.117.35-.254.652-.411.906-.157.251-.331.445-.525.575-.193.13-.398.182-.616.154-.222-.03-.406-.13-.553-.304s-.26-.402-.338-.685c-.08-.284-.126-.608-.137-.975-.012-.367.006-.754.057-1.161.037-.298.08-.617.13-.958.049-.343.1-.669.152-.979zm1.696 2.132c.021-.129.045-.274.072-.433.026-.159.052-.321.076-.489.024-.166.046-.328.066-.484.02-.157.038-.296.052-.42.02-.182.029-.351.025-.506-.003-.155-.02-.292-.05-.411-.03-.117-.075-.215-.134-.289-.06-.073-.136-.116-.228-.128-.093-.012-.178.01-.257.066-.078.056-.149.139-.211.244-.063.107-.118.235-.165.383-.048.149-.087.315-.12.495-.025.123-.049.262-.073.418-.024.155-.049.315-.073.483-.024.167-.046.33-.068.489-.022.16-.039.306-.052.437-.04.364-.032.671.025.923.056.251.177.388.362.411.185.024.341-.078.465-.305.124-.229.22-.522.288-.884z"/><path d="m165.889 290.923c.198.025.367.099.508.22s.251.29.331.507.126.487.137.809c.013.323-.011.695-.073 1.115-.079.544-.191.99-.336 1.337-.145.346-.317.603-.514.77l.179 2.659c.004.044.002.084-.003.121-.01.065-.027.12-.053.165-.027.044-.053.065-.08.061l-.611-.078c-.059-.007-.097-.046-.114-.115-.016-.068-.026-.135-.031-.203l-.16-2.391-.413-.052-.338 2.327c-.011.081-.034.147-.066.202-.033.055-.066.08-.098.076l-.589-.075c-.032-.004-.057-.037-.073-.098s-.018-.132-.005-.211l1.021-7.024c.012-.08.034-.147.066-.202s.065-.08.098-.076zm-.986 3.229.507.064c.126.017.238-.029.337-.133.099-.106.171-.311.215-.615.045-.305.033-.521-.031-.647-.066-.126-.162-.198-.287-.214l-.507-.065z"/><path d="m167.019 298.819c-.033-.004-.057-.037-.073-.098-.015-.061-.017-.131-.005-.21l1.021-7.025c.012-.079.034-.146.066-.202.032-.055.065-.08.098-.074l1.444.184c.2.026.359.115.478.267.117.151.202.34.254.564.051.225.075.475.071.752s-.025.548-.064.816c-.03.21-.066.393-.109.546-.042.154-.085.285-.128.394-.044.107-.085.195-.122.261-.039.064-.069.115-.093.148.088.211.137.448.145.711.01.263-.012.576-.066.938-.043.298-.103.585-.18.863-.077.279-.173.523-.287.734s-.247.374-.399.492c-.151.118-.323.163-.513.139zm.954-1.595.741.096c.09.011.17-.044.243-.164s.122-.273.149-.462.024-.35-.012-.484-.097-.206-.187-.217l-.741-.094zm1.496-3.496c.028-.189.026-.342-.004-.461-.03-.117-.09-.183-.18-.194l-.695-.089-.181 1.238.697.089c.089.012.165-.036.228-.142.062-.105.108-.253.135-.441z"/><path d="m170.549 299.271c-.032-.004-.057-.036-.073-.098-.016-.061-.018-.132-.005-.211l1.021-7.024c.012-.08.033-.148.066-.202.031-.056.065-.081.098-.076l.588.075c.032.004.057.037.073.098.015.061.017.132.005.212l-1.021 7.024c-.011.081-.034.147-.066.201-.032.055-.065.081-.097.077z"/><path d="m174.661 292.045c.207.026.385.124.533.295.149.169.266.397.351.681.086.284.136.617.152 1 .016.382-.004.796-.059 1.238-.02.153-.039.293-.057.42s-.036.249-.053.364c-.017.116-.033.235-.052.358-.017.123-.038.258-.063.402-.073.449-.173.854-.295 1.214-.123.361-.265.668-.424.92-.161.253-.336.443-.525.57s-.387.178-.593.151l-1.212-.155c-.032-.004-.058-.037-.073-.098s-.017-.131-.004-.209l1.021-7.025c.011-.081.034-.148.066-.202.033-.056.066-.081.099-.077zm.153 3.065c.103-.836-.039-1.279-.428-1.329l-.457-.057-.602 4.131.481.062c.376.048.633-.343.769-1.176.025-.151.047-.294.066-.429.019-.133.039-.264.058-.392.018-.125.037-.255.056-.385.018-.132.038-.273.057-.425z"/><path d="m178.248 292.503c.206.027.384.124.533.295.149.169.266.397.35.681.086.286.136.617.152 1s-.004.796-.059 1.238c-.019.153-.038.293-.057.42-.018.127-.036.249-.052.364-.017.116-.034.235-.053.359-.017.124-.038.257-.063.401-.074.449-.173.854-.296 1.214-.122.361-.264.668-.424.92-.16.253-.335.443-.524.571-.19.126-.387.177-.594.15l-1.211-.155c-.033-.004-.058-.037-.073-.098-.015-.06-.017-.131-.005-.209l1.021-7.025c.012-.081.034-.148.066-.202.032-.055.065-.081.099-.076zm.153 3.066c.103-.836-.039-1.28-.428-1.329l-.457-.058-.602 4.131.48.062c.377.048.634-.343.769-1.176.025-.151.048-.293.067-.428.019-.134.039-.265.057-.393.018-.125.038-.255.057-.385.018-.131.037-.272.057-.424z"/><path d="m181.906 298.952c.032.004.056.037.072.097.016.063.017.132.006.211l-.167 1.153c-.012.08-.034.148-.066.202-.032.056-.066.081-.098.076l-2.127-.272c-.032-.004-.057-.037-.073-.098s-.018-.131-.005-.21l1.021-7.025c.012-.079.034-.146.066-.202.032-.055.065-.08.098-.075l2.091.268c.032.005.057.037.073.098s.017.132.006.212l-.168 1.152c-.011.08-.034.148-.066.202-.032.055-.065.081-.099.076l-1.382-.176-.171 1.173 1.284.165c.032.004.057.037.073.098.015.06.017.131.005.21l-.168 1.153c-.011.081-.033.148-.066.202-.032.055-.065.081-.098.076l-1.284-.164-.177 1.217z"/><path d="m184.669 301.077c-.052-.006-.087-.044-.109-.113-.022-.071-.035-.124-.039-.161l-.486-3.85-.535 3.674c-.011.081-.033.148-.066.202-.032.055-.065.081-.097.077l-.588-.076c-.033-.005-.057-.037-.073-.098s-.018-.132-.005-.211l1.021-7.024c.012-.08.034-.148.066-.202.032-.056.065-.081.098-.076l.466.059c.051.007.087.045.109.114s.035.123.039.16l.486 3.85.535-3.674c.011-.081.033-.148.066-.202.031-.056.065-.081.097-.076l.588.074c.034.005.058.037.073.099.016.061.017.132.005.21l-1.021 7.025c-.012.08-.034.148-.066.202-.033.055-.066.079-.099.076z"/><path d="m188.989 301.628c-.033-.004-.057-.037-.073-.098s-.018-.132-.006-.211l.162-1.109-1.414-.182c-.033-.003-.057-.036-.073-.097-.015-.062-.017-.132-.006-.212l.169-1.152c.026-.189.069-.342.126-.46l1.938-3.928c.038-.076.071-.125.097-.148.026-.022.06-.032.098-.027l.677.087c.033.004.058.037.073.098.016.062.018.132.005.211l-.607 4.175.386.05c.032.004.057.036.073.098.016.061.017.132.005.211l-.167 1.153c-.012.08-.034.148-.066.202-.033.055-.065.08-.099.076l-.386-.05-.162 1.11c-.011.081-.033.148-.066.201-.033.055-.065.081-.098.077zm.358-3.155.29-2-.945 1.917z"/><path d="m193.367 294.325c.225.03.406.133.545.313.138.181.24.412.308.693.066.283.101.606.101.972-.001.365-.025.745-.073 1.137-.039.311-.083.639-.133.979-.05.341-.099.659-.149.956-.066.391-.151.762-.256 1.113-.104.353-.229.657-.374.911s-.309.451-.495.59c-.185.139-.389.194-.614.165-.224-.029-.405-.133-.544-.313-.138-.18-.24-.411-.308-.693-.067-.282-.101-.606-.101-.971 0-.366.024-.745.072-1.137.038-.298.08-.617.13-.958.05-.339.101-.665.151-.978.066-.39.151-.761.256-1.112.104-.353.229-.656.375-.91.144-.255.31-.451.494-.591.186-.138.39-.194.615-.166zm-.223 4.889c.102-.615.191-1.223.267-1.826.02-.182.033-.35.039-.505.005-.154-.002-.29-.021-.407-.02-.116-.055-.212-.105-.284-.051-.073-.121-.115-.21-.126-.09-.012-.17.011-.239.069s-.13.14-.183.248c-.052.108-.098.236-.138.387-.04.15-.075.315-.104.497-.103.599-.192 1.208-.266 1.825-.024.182-.038.351-.044.504-.006.156.002.292.023.408.021.118.057.213.108.284.051.073.12.115.21.127.089.011.169-.012.238-.069.07-.058.131-.14.185-.248.053-.108.1-.236.138-.387.04-.149.074-.315.102-.497z"/><path d="m197.776 295c.032.004.057.037.072.098.016.06.018.132.007.21l-.168 1.153c-.012.081-.033.15-.063.213-.031.064-.058.116-.082.157l-.736 1.257c.212.174.366.443.463.806s.104.828.022 1.393c-.119.818-.325 1.419-.619 1.803s-.65.548-1.069.495c-.215-.028-.397-.115-.546-.258-.147-.145-.264-.326-.348-.544-.084-.217-.138-.458-.162-.724-.024-.264-.017-.531.018-.799.01-.066.027-.121.053-.166.027-.043.053-.065.08-.061l.566.073c.063.007.105.048.128.122.023.072.049.152.077.236.03.086.071.167.126.243.053.077.141.124.261.138.143.019.271-.023.382-.127s.185-.283.221-.538c.038-.253.017-.444-.06-.573-.078-.128-.188-.2-.331-.218l-.372-.048c-.033-.004-.057-.037-.072-.097-.017-.062-.018-.132-.007-.212l.136-.935c.011-.081.033-.15.064-.213.03-.064.059-.118.088-.167l.644-1.102-1.171-.149c-.032-.004-.057-.038-.073-.098s-.017-.131-.005-.211l.168-1.152c.011-.081.033-.148.066-.202.032-.055.065-.081.097-.077z"/><path d="m202.363 295.586c.032.004.057.038.073.098.015.061.017.132.006.211l-.168 1.153c-.011.08-.034.147-.066.201-.033.055-.065.081-.099.077l-1.341-.172-.217 1.489 1.252.16c.032.004.057.037.073.098s.017.132.006.211l-.168 1.153c-.011.081-.033.147-.066.202-.032.055-.065.08-.098.075l-1.251-.159-.342 2.347c-.011.081-.034.148-.066.202-.032.056-.065.081-.097.077l-.589-.076c-.032-.004-.057-.037-.073-.097-.016-.062-.018-.132-.005-.211l1.021-7.024c.012-.08.034-.148.066-.202.031-.056.065-.081.098-.076z"/><path d="m202.763 298.528c.068-.405.16-.782.276-1.133.117-.351.254-.651.41-.9.157-.25.331-.441.523-.575.191-.134.398-.187.619-.159.219.028.401.132.549.309.149.177.261.406.342.685.08.281.125.603.137.971.012.367-.007.753-.057 1.161-.039.312-.083.639-.134.98-.049.341-.099.659-.148.956-.068.405-.16.782-.277 1.134-.116.349-.254.651-.41.905-.157.253-.332.446-.525.575-.193.131-.398.182-.616.154-.222-.029-.406-.13-.553-.303-.147-.174-.261-.402-.339-.685-.079-.284-.125-.608-.136-.975-.012-.367.007-.754.056-1.162.038-.298.081-.617.131-.958.05-.343.101-.668.152-.98zm1.696 2.133c.022-.131.046-.275.073-.434.026-.159.052-.321.076-.488.025-.166.046-.33.066-.485.02-.157.038-.296.052-.421.021-.182.03-.35.026-.506s-.019-.292-.051-.412c-.03-.117-.074-.214-.133-.288s-.136-.116-.228-.128c-.094-.013-.178.009-.257.066-.078.056-.149.138-.211.245-.063.106-.118.234-.166.382-.047.149-.087.314-.12.495-.025.122-.048.261-.072.417-.025.155-.049.317-.073.483-.024.167-.046.33-.069.49-.021.159-.038.305-.052.437-.04.364-.032.671.024.923.057.251.178.388.363.412.185.023.34-.079.464-.306.125-.227.22-.521.288-.882z"/><path d="m208.166 296.327c.198.025.367.099.508.22.14.122.251.29.331.507s.125.487.137.81c.013.323-.01.695-.073 1.114-.08.544-.191.99-.336 1.337-.145.346-.317.604-.515.77l.18 2.659c.004.046.002.085-.004.121-.01.065-.028.12-.053.166-.027.045-.053.064-.08.062l-.61-.079c-.06-.007-.097-.046-.114-.114-.016-.069-.026-.136-.031-.203l-.16-2.39-.413-.054-.338 2.327c-.011.081-.034.148-.066.202-.032.055-.065.081-.097.076l-.588-.075c-.032-.004-.057-.037-.073-.097-.015-.063-.017-.132-.005-.211l1.021-7.024c.012-.08.033-.147.066-.202.032-.056.065-.081.098-.075zm-.986 3.229.507.066c.126.015.238-.03.338-.135.1-.106.17-.31.215-.615.044-.303.033-.519-.031-.645-.066-.128-.161-.199-.287-.215l-.507-.064z"/><path d="m209.29 304.224c-.032-.004-.057-.037-.073-.097-.015-.062-.017-.132-.005-.211l1.022-7.025c.011-.08.033-.147.066-.202.032-.056.065-.081.098-.075l1.444.184c.201.026.36.114.478.267.118.151.203.339.254.564.052.224.075.475.071.752-.004.276-.025.548-.064.816-.03.21-.066.393-.108.546-.043.154-.085.285-.129.394-.043.107-.084.195-.122.261-.039.064-.069.115-.093.148.089.211.137.448.146.711s-.013.576-.066.938c-.044.298-.103.585-.181.864-.077.278-.172.522-.287.734-.114.21-.247.373-.399.491-.151.118-.323.163-.513.139zm.955-1.595.741.096c.089.011.17-.043.243-.163.072-.12.122-.274.149-.463s.024-.35-.012-.484c-.036-.133-.098-.206-.188-.217l-.74-.094zm1.496-3.496c.028-.189.026-.342-.004-.46s-.09-.183-.179-.195l-.695-.089-.181 1.238.696.09c.089.011.165-.037.228-.142.061-.106.107-.254.135-.442z"/><path d="m212.826 304.676c-.032-.004-.057-.038-.073-.098-.016-.062-.018-.132-.005-.211l1.021-7.024c.012-.08.033-.148.066-.202.032-.056.065-.081.098-.076l.588.075c.033.003.057.037.073.097.015.062.018.132.006.212l-1.022 7.023c-.011.081-.033.148-.066.202-.032.056-.065.081-.097.077z"/><path d="m216.916 297.446c.206.028.384.125.533.295.148.171.265.397.351.682.085.285.136.617.152 1 .015.381-.004.796-.059 1.238-.019.153-.038.292-.057.42-.018.126-.036.248-.052.364-.017.116-.034.235-.053.358-.018.123-.039.258-.063.402-.074.449-.173.853-.296 1.213-.122.361-.265.668-.424.921-.161.253-.335.443-.524.569-.19.128-.387.179-.594.152l-1.212-.155c-.032-.004-.057-.038-.073-.098-.015-.061-.017-.132-.005-.211l1.022-7.025c.011-.08.033-.147.066-.202.032-.055.065-.08.098-.075zm.153 3.065c.103-.836-.039-1.278-.428-1.328l-.458-.058-.601 4.132.48.061c.377.048.634-.343.769-1.174.025-.152.047-.295.067-.43.019-.134.038-.264.057-.392.018-.126.037-.255.056-.385.02-.131.038-.274.058-.426z"/><path d="m220.513 297.905c.206.028.384.125.533.295.148.17.265.397.351.682.085.285.136.617.152.999s-.004.796-.06 1.238c-.019.153-.038.292-.056.42-.019.126-.037.248-.053.364-.017.116-.034.235-.053.359-.017.123-.038.257-.063.401-.074.449-.173.854-.296 1.213-.122.362-.264.668-.424.921s-.335.443-.524.57c-.19.127-.387.178-.594.151l-1.212-.155c-.032-.004-.056-.038-.072-.098s-.017-.131-.006-.21l1.022-7.024c.012-.081.033-.148.066-.202.031-.056.065-.081.098-.076zm.153 3.066c.103-.836-.039-1.279-.428-1.33l-.457-.057-.602 4.132.48.061c.377.048.634-.343.769-1.175.025-.151.048-.294.067-.428s.039-.265.057-.393c.018-.126.038-.255.057-.385.019-.131.038-.273.057-.425z"/><path d="m224.175 304.356c.033.003.057.037.073.097.016.062.017.132.005.211l-.167 1.153c-.011.08-.034.148-.066.202-.032.055-.066.081-.098.076l-2.128-.272c-.032-.004-.056-.037-.072-.098-.016-.062-.017-.132-.005-.21l1.021-7.025c.012-.08.033-.147.066-.202.031-.055.065-.081.098-.076l2.091.268c.032.004.057.038.073.098.016.061.018.132.006.211l-.169 1.152c-.01.08-.033.148-.065.201-.033.056-.066.081-.099.077l-1.382-.177-.17 1.174 1.283.165c.032.005.058.037.073.098.015.06.017.131.004.21l-.167 1.153c-.011.08-.033.148-.066.202s-.065.081-.098.076l-1.284-.164-.178 1.217z"/><path d="m226.943 306.481c-.052-.007-.087-.045-.109-.114-.022-.07-.035-.123-.039-.161l-.487-3.849-.534 3.674c-.011.08-.034.148-.066.202-.033.055-.066.081-.098.076l-.589-.075c-.032-.004-.057-.038-.073-.098-.015-.061-.018-.132-.005-.211l1.021-7.024c.012-.08.033-.148.066-.202.032-.055.065-.081.098-.076l.467.06c.051.006.087.044.108.113.023.07.035.123.039.16l.487 3.85.534-3.675c.011-.079.033-.147.066-.202.031-.054.065-.08.098-.075l.588.075c.033.004.057.036.073.098s.017.132.006.211l-1.022 7.025c-.012.078-.034.146-.066.201-.033.055-.066.08-.099.075z"/></g><path d="m142.211 105.274c-.056-.053-.114-.097-.175-.131-.237-.133-5.257-3.034-5.257-3.034v-24.918c0-.583-.138-1.008-.413-1.274-.054-.051-.109-.094-.167-.127-.239-.138-5.563-3.211-5.617-3.243-.241-.144-.516-.126-.826.051l-7.811 4.51c-.448.26-.802.557-1.061.891-.257.335-.542.884-.853 1.647l-15.467 38.955c-.448 1.162-.672 2.432-.672 3.813v8.442c0 .584.137 1.009.413 1.274.057.054.115.098.175.133.237.133 5.56 3.21 5.618 3.244.239.139.51.119.816-.057l10.669-6.16v1.627c0 .584.137 1.009.413 1.274.054.052.11.095.167.128.238.138 5.567 3.214 5.624 3.247.239.14.512.12.819-.056l6.776-3.913c.379-.218.707-.619.983-1.204.275-.584.413-1.167.413-1.753v-8.123l4.449-2.569c.379-.219.707-.62.983-1.205.275-.583.413-1.167.413-1.752v-8.442c.002-.584-.136-1.008-.412-1.275z" fill="#27debf"/><path d="m126.473 81.24-.028.097c-.242.339-.506.859-.79 1.558l-15.464 38.955c-.201.513-.353 1.046-.457 1.6l-5.665-3.269c.111-.547.256-1.073.45-1.579l15.464-38.956c.312-.762.596-1.316.859-1.648 0 0 0-.007.007-.007z" opacity=".15"/><path d="m110.033 135.466c-.637-.367-5.326-3.075-5.554-3.2-.056-.035-.118-.083-.173-.139-.277-.263-.416-.686-.416-1.274v-8.435c0-.776.083-1.51.222-2.216l5.623 3.248c-.146.699-.215 1.44-.215 2.216v8.442c0 .582.139 1.004.408 1.267.035.035.07.063.105.091z" opacity=".3"/><path d="m127.471 98.498v14.654l-4.737-2.736z" opacity=".3"/><path d="m127.471 113.152-7.556 4.356 2.819-7.092z" opacity=".4"/><path d="m127.623 135.438c.035.028.062.055.097.083-.63-.36-5.332-3.075-5.554-3.2-.062-.035-.118-.076-.166-.132-.277-.263-.416-.692-.416-1.274v-1.628l5.623-3.248v8.123c.001.583.139 1.013.416 1.276z" opacity=".3"/><path d="m141.972 105.111c-.221-.097-.471-.069-.741.09l-4.453 2.569v-5.658c0 .001 4.578 2.639 5.194 2.999z" opacity=".15"/><path d="m136.162 75.768c-.229-.118-.492-.09-.783.076l-7.805 4.508c-.45.263-.797.554-1.059.886l-5.624-3.248c.256-.332.609-.623 1.053-.887l7.812-4.508c.312-.18.582-.194.824-.049.056.03 5.056 2.918 5.582 3.222z" fill="#fff" opacity=".4"/><path d="m128.607 135.509c-.38.219-.708.196-.983-.07-.276-.265-.413-.69-.413-1.274v-8.124l-16.296 9.409c-.379.219-.706.196-.983-.07-.277-.265-.413-.69-.413-1.274v-8.442c0-1.381.224-2.651.672-3.813l15.467-38.956c.31-.763.595-1.312.853-1.647.259-.334.613-.632 1.061-.891l7.811-4.51c.379-.218.707-.195.983.07.275.267.413.691.413 1.274v30.583l4.449-2.569c.379-.219.707-.195.983.069.275.268.413.691.413 1.276v8.442c0 .584-.138 1.169-.413 1.752-.277.586-.605.986-.983 1.205l-4.449 2.569v8.123c0 .586-.138 1.169-.413 1.753-.277.584-.605.986-.983 1.204zm-1.139-22.36v-14.653l-7.552 19.014z" fill="#27debf"/><path d="m181.49 70.019c-.104-2.807-.458-5.35-1.061-7.63-.603-2.279-1.518-4.047-2.741-5.306-.431-.442-.902-.813-1.412-1.111-.939-.549-5.122-2.954-5.636-3.254-.937-.546-2.006-.849-3.208-.91-1.863-.092-4.088.607-6.674 2.101-2.586 1.493-4.811 3.362-6.673 5.605-1.862 2.244-3.405 4.702-4.629 7.372-1.224 2.672-2.139 5.496-2.741 8.472-.605 2.977-.958 5.928-1.062 8.856-.069 2.324-.103 4.733-.103 7.228s.034 4.811.103 6.948c.104 2.807.457 5.351 1.062 7.63.602 2.28 1.517 4.05 2.741 5.306.428.44.895.809 1.401 1.106.941.553 5.18 2.998 5.724 3.304.918.518 1.962.806 3.131.864 1.863.092 4.087-.607 6.673-2.101 2.586-1.493 4.811-3.363 6.674-5.605 1.861-2.241 3.405-4.7 4.629-7.372 1.223-2.669 2.138-5.494 2.741-8.471.603-2.976.957-5.928 1.061-8.856.068-2.216.103-4.572.103-7.067s-.035-4.863-.103-7.109zm-20.441 28.305c-.107-.791-.175-1.658-.199-2.609-.173-4.412-.173-8.873 0-13.38.034-1.346.155-2.637.362-3.873.208-1.235.518-2.382.931-3.445.414-1.06.966-2.03 1.656-2.907.611-.777 1.366-1.437 2.248-1.995.114.787.197 1.645.247 2.579.137 4.328.137 8.788 0 13.38-.035 1.347-.147 2.634-.336 3.858-.19 1.224-.5 2.372-.931 3.444-.431 1.073-.992 2.047-1.681 2.922-.624.792-1.394 1.463-2.297 2.026z" fill="#27debf"/><path d="m156.43 115.648c-.935-.533-4.696-2.701-5.575-3.213-.506-.298-.969-.672-1.399-1.108-1.226-1.26-2.14-3.026-2.743-5.305-.602-2.279-.956-4.827-1.06-7.632-.069-2.14-.104-4.453-.104-6.946 0-2.5.035-4.91.104-7.23.104-2.929.457-5.88 1.06-8.858.423-2.098 1.004-4.114 1.745-6.06l5.616 3.255c-.734 1.939-1.309 3.961-1.731 6.053-.61 2.978-.963 5.928-1.067 8.858-.069 2.32-.104 4.73-.104 7.23 0 2.493.035 4.806.104 6.946.104 2.805.457 5.353 1.067 7.632.595 2.278 1.517 4.051 2.736 5.305.41.422.866.782 1.351 1.073z" opacity=".15"/><path d="m176.064 55.854c-.887-.471-1.891-.734-3.006-.797-1.863-.09-4.086.609-6.676 2.098-2.583 1.496-4.806 3.366-6.669 5.61s-3.407 4.695-4.633 7.369c-.187.402-.36.81-.533 1.226-.159.395-.311.79-.464 1.191h-.007l-5.616-3.255c.132-.353.27-.706.416-1.053.187-.457.374-.907.582-1.357 1.226-2.673 2.77-5.125 4.626-7.376 1.863-2.237 4.093-4.107 6.676-5.603s4.813-2.188 6.676-2.098c1.198.062 2.271.36 3.206.907.484.285 4.182 2.411 5.422 3.138z" fill="#fff" opacity=".4"/><path d="m171.922 89.325c-.035 1.344-.152 2.632-.339 3.858s-.499 2.368-.928 3.442c-.187.464-.402.914-.644 1.344l-5.624-3.248c.236-.429.45-.88.637-1.343.429-1.073.741-2.216.935-3.442.187-1.226.298-2.514.332-3.858.139-4.592.139-9.051 0-13.38-.049-.935-.131-1.794-.242-2.583 0 0 .145-.104.332-.215 1.032-.616 1.897-.852 2.59-.776.686.083 1.24.416 1.655.997.416.582.713 1.378.907 2.382.187 1.004.318 2.154.388 3.442.133 4.328.133 8.788.001 13.38z" opacity=".3"/><path d="m170.011 97.968c-.305.561-.651 1.087-1.039 1.579-.692.879-1.551 1.614-2.59 2.209-1.032.602-1.891.859-2.583.776-.693-.076-1.254-.402-1.683-.976-.429-.575-.741-1.364-.928-2.369-.055-.277-.097-.568-.139-.866.9-.561 1.676-1.233 2.292-2.022.388-.492.741-1.018 1.046-1.579z" opacity=".4"/><path d="m166.385 57.157c2.586-1.493 4.811-2.193 6.674-2.101 1.861.095 3.405.77 4.63 2.026 1.223 1.259 2.138 3.027 2.741 5.306.603 2.28.957 4.823 1.061 7.63.068 2.245.103 4.614.103 7.109 0 2.496-.035 4.852-.103 7.067-.104 2.927-.458 5.88-1.061 8.856-.603 2.977-1.518 5.803-2.741 8.471-1.224 2.671-2.768 5.131-4.63 7.372-1.862 2.243-4.088 4.112-6.674 5.605s-4.811 2.193-6.673 2.101-3.405-.768-4.629-2.026c-1.224-1.256-2.139-3.026-2.741-5.306-.605-2.279-.958-4.824-1.062-7.63-.069-2.137-.103-4.453-.103-6.948s.034-4.905.103-7.228c.104-2.927.457-5.878 1.062-8.856.602-2.976 1.517-5.8 2.741-8.471 1.224-2.67 2.767-5.128 4.629-7.372 1.862-2.242 4.086-4.111 6.673-5.605zm5.535 32.167c.137-4.592.137-9.052 0-13.38-.069-1.286-.199-2.433-.388-3.44-.19-1.005-.492-1.799-.905-2.385-.414-.583-.966-.916-1.656-.996s-1.552.18-2.586.776c-1.034.598-1.896 1.334-2.586 2.21s-1.242 1.846-1.656 2.907c-.413 1.063-.724 2.21-.931 3.445s-.328 2.527-.362 3.873c-.173 4.507-.173 8.968 0 13.38.034 1.308.147 2.463.336 3.469.189 1.005.499 1.796.931 2.369.431.575.991.902 1.681.981.69.08 1.552-.179 2.586-.776 1.035-.597 1.896-1.334 2.586-2.21.689-.875 1.25-1.849 1.681-2.922.431-1.071.741-2.22.931-3.444.19-1.223.302-2.51.338-3.857z" fill="#27debf"/><path d="m219.677 55.989c-.362-.332-.748-.616-1.157-.852-.241-.14-.504-.237-.761-.343.195.08.399.144.585.243-1.191-.684-4.272-2.478-4.272-2.478v-.006l5.3-11.285c.203-.433.424-.954.663-1.563s.358-1.201.358-1.779v-8.334c0-.576-.137-.994-.409-1.258-.077-.074-.158-.123-.243-.159-.643-.37-5.435-3.149-5.49-3.19-.233-.123-.507-.096-.794.068l-24.412 14.088c-.329.192-.602.507-.835.945-.055.082-.096.164-.137.247-.274.589-.411 1.164-.411 1.739v8.324c0 .589.137.999.411 1.26.068.068.137.11.205.15.192.096 4.546 2.629 5.408 3.122-.014-.027-.041-.041-.055-.055l.003-.004c.272.263.595.285.97.069l3.611-2.085-1.256 2.718c-.247.507-.479 1.054-.712 1.67-.055.137-.096.26-.137.397s-.082.26-.11.397c-.004.016-.004.034-.007.05-.018.084-.023.166-.035.249-.003.028-.009.057-.012.083-.041.205-.055.411-.055.602v6.764c0 .575.137.999.397 1.26.068.055.15.11.219.151.205.11 4.833 2.779 5.463 3.149-.02-.019-.049-.044-.078-.068.265.232.575.251.935.043l4.237-2.447.013-.006c-.178 1.355-.684 2.601-1.52 3.724-1.068 1.465-2.423 2.67-4.053 3.601-1.369.794-2.41 1.15-3.135 1.068-.234-.022-.454-.056-.659-.103l-.012-.007s-2.423-1.396-2.437-1.41c-.104-.059-.219-.092-.343-.107-.334-.045-.743.072-1.231.354l-6.435 3.724c-.301.178-.561.493-.794.958-.014.041-.027.068-.041.11l.003.002c-.093.218-.167.435-.214.649-.05.217-.076.434-.076.65.041 1.93.397 3.615 1.095 5.066.698 1.465 1.698 2.56 2.998 3.272.821.466 4.08 2.382 5.34 3.094-.178-.108-.337-.239-.503-.362.232.17.465.338.72.479 1.293.722 2.886.981 4.775.781s4.059-1.007 6.511-2.422c4.767-2.752 8.477-6.389 11.133-10.909 2.656-4.521 3.984-9.742 3.984-15.666-.003-4.087-.838-6.894-2.506-8.422z" fill="#27debf"/><path d="m188.175 40.223c.014-.027.014-.041.027-.069-.055.082-.096.164-.137.247-.274.589-.411 1.164-.411 1.739v8.324c0 .589.137.999.411 1.26.068.068.137.11.205.151.192.096 4.546 2.629 5.408 3.122-.014-.027-.041-.041-.055-.055h.014c-.274-.26-.411-.684-.411-1.26v-8.338c0-.575.137-1.15.411-1.725.086-.181.184-.313.279-.458-.061.095-.127.171-.183.28z" opacity=".15"/><path d="m201.46 62.064-5.561-3.211c-.002.054-.015.112-.015.164v6.764c0 .575.137 1 .397 1.26.068.055.151.11.219.151.205.11 4.833 2.779 5.463 3.149-.014-.014-.041-.041-.068-.068-.014 0-.027-.014-.041-.027-.274-.26-.411-.671-.411-1.246v-6.764c-.001-.057.015-.116.017-.172z" opacity=".15"/><path d="m201.798 60.455c.246-.616.479-1.164.726-1.67l5.408-11.542-9.721 5.614-1.26 2.711c-.246.507-.479 1.054-.712 1.67-.055.137-.096.26-.137.397s-.082.26-.11.397v.055c-.014.082-.027.164-.041.247 0 .027 0 .055-.014.082-.03.149-.034.294-.04.438l5.561 3.211c.023-.525.13-1.066.34-1.61z" opacity=".3"/><path d="m186.45 79.664c-.014.041-.027.068-.041.11h.014c-.096.219-.178.438-.219.657-.055.219-.082.438-.082.644.041 1.931.397 3.615 1.095 5.066.698 1.465 1.698 2.56 2.998 3.272.821.465 4.08 2.382 5.34 3.094-.041-.027-.082-.055-.109-.082-1.136-.712-2.013-1.725-2.656-3.067-.698-1.451-1.068-3.149-1.095-5.066 0-.466.109-.945.329-1.41.081-.173.177-.307.272-.441l-5.574-3.203c-.094.129-.187.256-.272.426z" opacity=".15"/><path d="m197.709 76.156-.018-.011s-2.424-1.397-2.437-1.41c-.096-.055-.219-.082-.342-.11-.329-.041-.739.082-1.232.356l-6.435 3.724c-.192.113-.362.304-.524.531l5.574 3.203c.161-.227.333-.419.522-.531l6.435-3.711c.712-.411 1.26-.479 1.63-.192z" opacity=".3"/><path d="m203.92 79.472c.739.082 1.78-.274 3.149-1.068 1.629-.945 2.985-2.136 4.053-3.601 1.068-1.451 1.616-3.108 1.616-4.943 0-1.821-.548-2.861-1.616-3.08s-2.423.151-4.053 1.095c-.178 1.355-.684 2.588-1.52 3.71-1.068 1.465-2.423 2.67-4.053 3.601-1.369.794-2.41 1.15-3.135 1.068-.233-.014-.447-.058-.653-.099l3.172 1.851c.383.274.794.575 1.259.89.453.316 1.056.508 1.781.576z" opacity=".4"/><path d="m214.066 52.555s3.08 1.794 4.272 2.478c-.041-.027-.082-.041-.137-.055-.055-.041-.096-.055-.151-.068-1.369-.671-2.998-.821-4.86-.479z" fill="#fff" opacity=".4"/><path d="m216.763 26.517c-1.287-.739-2.492-1.451-2.519-1.465-.233-.123-.507-.096-.794.068l-24.412 14.088c-.329.192-.602.507-.835.945-.014.027-.014.041-.027.069l5.559 3.217c.056-.109.122-.186.183-.28.064-.099.125-.214.193-.296.151-.185.312-.335.487-.437l24.412-14.088c.26-.151.493-.192.712-.11-.33-.191-1.685-.971-2.959-1.711z" fill="#fff" opacity=".4"/><path d="m219.014 28.264c.374-.215.697-.193.97.069.272.264.409.683.409 1.258v8.334c0 .578-.12 1.17-.358 1.779s-.459 1.13-.663 1.563l-5.3 11.285-.88 1.874c2.078-.379 3.854-.142 5.328.711.409.237.795.521 1.158.852 1.668 1.528 2.502 4.335 2.502 8.424 0 5.923-1.328 11.145-3.984 15.666-2.656 4.52-6.366 8.156-11.133 10.908-2.451 1.415-4.621 2.222-6.511 2.422-1.888.2-3.481-.059-4.775-.782-1.294-.719-2.29-1.809-2.987-3.268-.698-1.457-1.064-3.145-1.098-5.065 0-.472.109-.942.332-1.41.221-.469.485-.792.792-.969l6.434-3.715c.715-.413 1.259-.477 1.635-.197.373.283.792.579 1.251.891s1.053.505 1.787.579c.731.077 1.778-.28 3.14-1.066 1.635-.943 2.989-2.143 4.061-3.603 1.072-1.457 1.608-3.103 1.608-4.938 0-1.833-.536-2.861-1.608-3.08-1.072-.22-2.426.143-4.061 1.086l-4.237 2.447c-.376.217-.699.194-.971-.069-.273-.26-.409-.68-.409-1.258v-6.762c0-.576.12-1.169.358-1.778.238-.611.476-1.166.715-1.672l5.413-11.538-13.328 7.696c-.375.216-.698.194-.97-.069-.273-.262-.409-.68-.409-1.258v-8.334c0-.576.136-1.151.409-1.73.272-.576.595-.972.97-1.188z" fill="#27debf"/><path d="m414.406 218.189 7.085-.31 4.584 8.682s-2.856 1.482-13.051 1.599z" fill="#f28f8f"/><path d="m369.603 197.304c2.7 1.266 4.172 2.732 7.069 5.098 3.576 2.922 15.931 11.306 18.578 12.048 8.08 1.788 15.116 2.874 21.359 3.437 0 0-1.152 6.957.345 10.45-6.342.287-22.505.827-28.146-.504-6.032-1.423-12.653-4.802-17.773-7.77s-3.98-20.241-1.432-22.759z" fill="#27debf"/><path d="m369.603 197.304c2.7 1.266 4.172 2.732 7.069 5.098 3.576 2.922 15.931 11.306 18.578 12.048 8.08 1.788 15.116 2.874 21.359 3.437 0 0-1.152 6.957.345 10.45-6.342.287-22.505.827-28.146-.504-6.032-1.423-12.653-4.802-17.773-7.77s-3.98-20.241-1.432-22.759z" fill="#fff" opacity=".7"/><path d="m371.034 220.063c5.12 2.969 11.741 6.347 17.773 7.77 4.084.964 13.685.946 21.08.754-6.28-.429-16.133-2.132-19.041-3.059-1.113-.355-8.233-3.687-11.763-6.198-3.335-2.371-3.53-6.618-5.233-12.767-2.263-8.169-4.248-9.261-4.248-9.261-2.547 2.52-3.687 19.793 1.432 22.761z" opacity=".1"/><path d="m409.888 228.588s-1.304-3.598.311-8.692c0 0-2.059 2.04-1.622 8.724z" fill="#27debf"/><path d="m409.888 228.588s-1.304-3.598.311-8.692c0 0-2.059 2.04-1.622 8.724z" opacity=".1"/><path d="m424.388 226.71c6.01-.207 8.231-3.249 9.067-8.522s.695-12.159.762-13.981c.067-1.839-.468-2.453-1.197-2.56-.274-.04-1.434.257-1.563 2.206-.236 3.555-.328 5.743-1.007 5.718-.674-.025-.568-2.661-.514-6.254.036-2.419-.04-4.461-1.392-4.461-1.436 0-1.794 1.439-1.866 4.717s.019 5.697-.861 5.763c-.699.052-.555-3.421-.713-5.663-.159-2.259-.153-3.578-1.553-3.55-1.27.026-1.613 1.829-1.562 4.035.048 2.038.002 8.245-.229 9.017-.388 1.299-1.731-1.89-2.713-3.199-1.61-2.147-3.573-1.165-2.778.789s1.715 4.739 2.183 7.404c.423 2.409 1.44 8.564 5.936 8.541z" fill="#ffa8a7"/><path d="m424.365 215.821s3.62 3.77 2.313 7.796c0 0 1.975-2.304.648-5.398-.903-2.105-2.961-2.398-2.961-2.398z" fill="#f28f8f"/><path d="m345.389 404.835c-.126 1.137-.282 4.331-6.07 5.127s-9.435-1.12-10.978-3.905-1.189-5.055-1.436-7.634-2.379-3.952-2.991-5.28c-.902-1.956.417-5.001.417-5.001z" fill="#263238"/><path d="m387.627 395.765c.209.167.27 1.99-.377 2.8-.445.557-4.467 3.253-9.276 2.481s-7.12-2.117-9.819-3.848c-2.762-1.771-4.703-2.085-7.578-2.183-2.784-.095-4.821-.714-5.032-1.446-.37-1.283-.37-2.096.239-2.055z" fill="#263238"/><path d="m344.971 402.203c-.512-.951-2.005-2.32-2.662-3.177-3.433-4.478-5.595-9.689-6.019-15.354-.023-.311-.062-.914-.371-1.099-.327-.196-.625.075-.956.219-.006-.005-.011-.01-.017-.015 0 0-.003.017-.004.025-.415.179-.987.379-1.792.469-2.05.229-4.319-.263-4.831-.193-.398.055-.521 1.288-.489 2.622-.729-.461-.968-1.375-1.623-1.909-.354-.288-.51-.297-.502-.772.005-.309.025-.587.028-.896-.526-.155-.968 1.864-1.4 3.404-.501 1.783-1.126 3.795-.423 5.607.391 1.008 1.039 1.892 1.632 2.796 1.023 1.558 1.923 3.265 2.101 5.121.078.813.016 1.637.132 2.446.403 2.816 2.335 5.031 5.051 5.879 3.53 1.102 8.829.93 11.94-1.538 1.087-.866.717-2.684.205-3.635z" fill="#455a64"/><path d="m385.289 392.043c-.77-.246-1.531-.52-2.283-.819-2.101-.836-4.126-1.861-6.063-3.025-.855-.514-1.694-1.056-2.512-1.628-.86-.6-1.655-1.267-2.47-1.928-.431-.349-.829-.834-1.179-1.263-.698-.858-1.285-1.807-1.74-2.815-.101-.224-.213-.47-.435-.576-.264-.125-.578-.001-.817.166-.21.148-.399.33-.637.434-.224.098-.457.187-.684.281-.727.302-1.497.49-2.281.56-2.939.263-3.034-.328-3.161.62-.031.231-.042.612-.024 1.063-1.551-.257-2.774-.758-2.841-1.346l-.188-1.881c-2.304-.316-2.077 2.384-2.351 5.345-.235 2.537-.82 4.727-.128 6.576 2.339 2.042 6.462 1.547 8.812 1.935 3.323.549 4.877 3.008 9.498 4.607 7.448 2.577 12.152-.395 13.548-1.692.924-1.649 1.108-3.603-2.064-4.614z" fill="#455a64"/><path d="m329.2 250.143c-.926 9.022-1.915 22.547-2.288 33.114-.702 19.864-.429 44.694-.429 44.694s-1.929 7.103-2.14 12.73c-.474 12.689-.384 44.104-.384 44.104s5.257 5.298 13.132 1.136c0 0 6.972-42.869 8.924-55.383 1.861-11.93 5.494-37.983 5.494-37.983l1.644 36.059s-1.925 6.896-1.238 16.255c.427 5.812 3.745 37.442 3.745 37.442 3.024 2.837 11.843 1.295 13.77-.961 0 0 3.089-45.344 3.432-51.471.741-13.255 1.024-63.826.039-71.5-.986-7.673-43.701-8.236-43.701-8.236z" fill="#263238"/><path d="m351.509 292.555 2.308-15.284s6.352-1.202 10.985-4.642c0 0-1.804 4.083-8.821 6.997l-2.281 14.234-.547 34.755z"/><path d="m340.012 155.33s-.209.029-.539.113c.227-1.16-.281-2.326-1.329-2.805-1.26-.576-2.807.058-3.454 1.416l3.764 1.722c-1.001.401-2.228 1.135-2.865 2.445-1.032 2.122.328 6.641 1.704 12.224 1.376 5.582 2.123 7.993 3.036 10.341.632 1.625 1.768 1.676 1.768 1.676v-5.569l-.239-4.616s2.963-4.046 3.288-7.362c.419-4.267-.48-6.014-.48-6.014z" fill="#263238"/><path d="m342.031 171.54c-1.113.965-2.019-1.533-2.956-2.507s-3.989-2.299-5.499.91c-1.539 3.27 1.398 7.711 3.68 8.769 3.342 1.55 4.841-1.82 4.841-1.82v13.932c3.52 6.341 11.296 6.137 14.894 7.025.654-2.57.233-4.822-.142-6.247l-.026-4.54s2.772.534 4.599.246c3.04-.48 4.669-2.984 5.581-6.279 1.465-5.292 1.767-14.177-.268-24.451-3.405-2.633-14.924-2.206-22.068 2.323.522 9.113-1.523 11.673-2.636 12.639z" fill="#ffa8a7"/><path d="m356.822 187.062s-6.793-1.346-9.17-2.599c-1.591-.839-2.904-2.299-3.292-3.235 0 0 .451 2.013 1.876 3.822 1.743 2.213 10.591 3.818 10.591 3.818z" fill="#f28f8f"/><path d="m353.729 169.641c0 .801-.649 1.45-1.45 1.45s-1.45-.649-1.45-1.45.649-1.45 1.45-1.45 1.45.649 1.45 1.45z" fill="#263238"/><path d="m365.238 168.576c0 .801-.649 1.45-1.45 1.45s-1.45-.649-1.45-1.45.649-1.451 1.45-1.451 1.45.65 1.45 1.451z" fill="#263238"/><path d="m351.773 165.781-3.037 1.589c-.423-.871-.086-1.934.752-2.372.839-.439 1.862-.088 2.285.783z" fill="#263238"/><path d="m354.481 178.599 5.091 1.322c-.337 1.454-1.749 2.338-3.155 1.973-1.407-.365-2.273-1.84-1.936-3.295z" fill="#b16668"/><path d="m354.973 179.666c-.178 0-.35.021-.518.052.181 1.027.922 1.906 1.962 2.176.441.114.879.094 1.288-.017-.269-1.262-1.389-2.211-2.732-2.211z" fill="#f28f8f"/><path d="m366.443 166.06-3.121-1.478c.379-.884 1.385-1.27 2.246-.862.862.408 1.254 1.455.875 2.34z" fill="#263238"/><path d="m358.229 167.929.914 9.306 4.645-2.086z" fill="#f28f8f"/><path d="m336.078 190.82c-6.177 2.206-10.766 4.366-15.062 8.049 0 0 4.443 19.266 7.22 29.883 2.529 9.67.168 29.363.168 29.363s3.883 5.883 26.018 5.245c12.475-.36 18.53-4.351 18.53-4.351s1.058-21.726.583-39.899c-.382-14.623-1.447-18.151-3.931-21.807-1.802-1.222-11.75-4.907-11.75-4.907s-.862 3.18-.862 5.451c-3.63-5.672-20.914-7.027-20.914-7.027z" fill="#27debf"/><path d="m336.078 190.82c-6.177 2.206-10.766 4.366-15.062 8.049 0 0 4.443 19.266 7.22 29.883 2.529 9.67.168 29.363.168 29.363s3.883 5.883 26.018 5.245c12.475-.36 18.53-4.351 18.53-4.351s1.058-21.726.583-39.899c-.382-14.623-1.447-18.151-3.931-21.807-1.802-1.222-11.75-4.907-11.75-4.907s-.862 3.18-.862 5.451c-3.63-5.672-20.914-7.027-20.914-7.027z" fill="#fff" opacity=".3"/><path d="m333.149 240.671c-.257-6.516-1.667-18.85-1.565-28.197l-4.415-6.699-2.567 8.318c1.224 5.101 2.554 10.532 3.634 14.659 2.529 9.67.168 29.363.168 29.363s3.882 5.883 26.018 5.245c.139-.004.265-.014.403-.019-3.041-.333-7.682-1.256-11.897-3.342-6.869-3.399-9.523-12.812-9.779-19.328z" opacity=".1"/><path d="m342.096 184.93v1.094c.208 1.042 2.254 3.451 7.418 5.768 5.256 2.359 7.476 6.057 7.476 6.057s-1.757-2.712-3.928-1.278c-2.083 1.376-4.374 5.041-5.489 5.013-1.085-.027-4.863-3.569-7.789-6.638-2.458-2.578-3.707-4.125-3.707-4.125s4.013-5.869 6.019-5.891z" fill="#27debf"/><path d="m356.991 197.848c1.567-3.757 4.403-.545 4.58-.533.823.057-1.793-6.86-4.73-8.76l.008 3.046z" fill="#27debf"/><path d="m342.096 184.93v1.094c.208 1.042 2.254 3.451 7.418 5.768 5.256 2.359 7.476 6.057 7.476 6.057s-1.757-2.712-3.928-1.278c-2.083 1.376-4.374 5.041-5.489 5.013-1.085-.027-4.863-3.569-7.789-6.638-2.458-2.578-3.707-4.125-3.707-4.125s4.013-5.869 6.019-5.891z" fill="#fff" opacity=".65"/><path d="m356.991 197.848c1.567-3.757 4.403-.545 4.58-.533.823.057-1.793-6.86-4.73-8.76l.008 3.046z" fill="#fff" opacity=".65"/><path d="m361.115 262.768c.259-13.855.619-49.458-4.124-64.919 0 0 4.466 32.912 2.051 65.191.72-.08 1.409-.172 2.073-.272z" fill="#27debf"/><path d="m361.115 262.768c.259-13.855.619-49.458-4.124-64.919 0 0 4.466 32.912 2.051 65.191.72-.08 1.409-.172 2.073-.272z" opacity=".1"/><path d="m338.563 214.482c7.02.693 14.085-1.698 14.085-1.698l.227 2.713s-6.894 2.381-14.045 1.464z" fill="#27debf"/><path d="m338.563 214.482c7.02.693 14.085-1.698 14.085-1.698l.227 2.713s-6.894 2.381-14.045 1.464z" opacity=".1"/><path d="m373.168 208.114c.008-.108-.016-.176-.063-.204 0-.001.001-.001.001-.001l-.007-.005c-.051-.025-.384-.238-.431-.266 0-.001.001-.001.001-.001l-.007-.005c-.051-.025-.127-.005-.22.06-.931.663-2.185.79-3.12.34-.127-.101-.245-.216-.349-.346-.005-.007-.01-.014-.016-.019h-.001c-.03-.035-.059-.061-.089-.079 0 0-.406-.255-.436-.272l-.015-.009c-.1-.052-.195-.006-.262.144-.934 2.11-2.843 4.216-4.086 4.716-.092.037-.179.097-.247.171-.09.097-.148.218-.148.346-.094 2.751 1.263 7.199 4.069 8.765.166.116.337.222.513.316 4.068-3.916 4.801-10.391 4.913-13.651z" fill="#ebebeb"/><path d="m367.737 221.446c-2.802-1.568-4.157-6.012-4.063-8.761 0-.075.021-.145.054-.211l.435.271c-.034.066-.053.136-.053.211-.089 2.605 1.119 6.728 3.627 8.49z" fill="#e0e0e0"/><path d="m373.168 208.114c-.111 3.26-.845 9.735-4.912 13.652-2.858-1.526-4.241-6.033-4.146-8.809 0-.128.058-.249.148-.346.068-.074.155-.134.247-.171 1.242-.501 3.151-2.606 4.086-4.717.067-.149.161-.195.262-.143l.015.009c.03.018.06.044.089.079h.001c.005.006.011.012.016.019.877 1.095 2.674 1.155 3.905.278.093-.066.17-.085.22-.061l.007.005s-.001 0-.001.001c.047.028.071.096.063.204z" fill="#fafafa"/><path d="m368.852 207.58c-.1-.052-.195-.006-.262.143-.934 2.11-2.843 4.216-4.086 4.717-.092.037-.179.097-.247.171-.09.097-.148.218-.148.346-.095 2.776 1.287 7.283 4.146 8.809 2.212-7.486.597-14.186.597-14.186z" fill="#f0f0f0"/><path d="m346.573 160.891s9.312 4.54 19.313.604c10.272-4.043 1.269-6.916 1.269-6.916z" fill="#263238"/><path d="m367.421 140.954c-7.755-1.721-16.222-2.63-26.396 1.533s-12.729 10.408-12.729 10.408 9.863 3.375 18.188 1.549c8.326-1.827 20.937-13.49 20.937-13.49z" fill="#455a64"/><path d="m334.131 158.62s-5.453-4.435-5.834-5.726c0 0 5.139.508 11.82-1.451s13.93-8.703 21.414-10.255 10.401 2.007 10.401 2.007-1.977 5.333-4.741 8.654c0 0-2.608 5.094-11.406 6.753-8.799 1.659-21.654.018-21.654.018z" fill="#37474f"/><path d="m334.131 158.62s.194 1.106.424 1.738c.229.632.81 1.473.81 1.473 3.111.603 10.617 1.101 20.506-1.266 6.197-1.483 9.061-3.206 10.239-4.446 1.155-1.216 1.28-2.03 1.203-2.896l-.121-1.374s-2.061 2.73-12.203 5.264c-10.144 2.535-20.858 1.507-20.858 1.507z" fill="#27debf"/><path d="m334.131 158.62s.194 1.106.424 1.738c.229.632.81 1.473.81 1.473 3.111.603 10.617 1.101 20.506-1.266 6.197-1.483 9.061-3.206 10.239-4.446 1.155-1.216 1.28-2.03 1.203-2.896l-.121-1.374s-2.061 2.73-12.203 5.264c-10.144 2.535-20.858 1.507-20.858 1.507z" opacity=".05"/><path d="m339.534 295.159c-1.034-1.455-3.312-2.774-4.172-3.642-1.521-1.536-3.746-4.789-3.408-5.385.339-.596 1.253.174 3.196.173 2.965-.001 3.822-1.181 3.789-2.287-.026-.859-1.829-.699-3.985-1.176-1.919-.613-4.207-2.767-5.456-4.449-1.251-1.685-2.261-6.108-2.261-6.108s-6.489.09-10.967 3.162c0 0 1.287 6.698 2.766 11.456 1.656 5.328 5.393 11.204 11.082 12.531 2.354.549 4.85.35 7.158-.367.68-.211 1.36-.475 1.905-.933 1.178-.99 1.038-2.012.353-2.975z" fill="#ffa8a7"/><path d="m321.016 198.869s-1.005-.204-2.672 3.665c-1.667 3.868-2.602 8.32-3.271 11.531s-3.872 20.128-3.872 27.397c0 7.27 2.169 21.876 4.96 34.325 3.476.355 9.455-.542 11.457-2.83-1.306-12.421-2.408-18.804-2.103-28.579 1.981-14.499 7.87-29.692 8.119-31.38.548-3.709-5.313-15.369-12.618-14.129z" fill="#27debf"/><path d="m321.016 198.869s-1.005-.204-2.672 3.665c-1.667 3.868-2.602 8.32-3.271 11.531s-3.872 20.128-3.872 27.397c0 7.27 2.169 21.876 4.96 34.325 3.476.355 9.455-.542 11.457-2.83-1.306-12.421-2.408-18.804-2.103-28.579 1.981-14.499 7.87-29.692 8.119-31.38.548-3.709-5.313-15.369-12.618-14.129z" fill="#fff" opacity=".65"/><path d="m316.271 259.999c-1.737-8.498-4.592-25.136-2.637-38.231-1.12 6.435-2.433 15.04-2.433 19.694 0 7.27 2.169 21.876 4.96 34.325 1.18.121 2.65.093 4.154-.081-1.202-4.108-2.973-10.467-4.044-15.707z" opacity=".1"/><path d="m314.936 269.694c2.842.179 7.895-.626 9.967-1.982 0 0-3.684 1.626-10.193.696z" fill="#27debf"/><path d="m314.936 269.694c2.842.179 7.895-.626 9.967-1.982 0 0-3.684 1.626-10.193.696z" opacity=".1"/><path d="m364.793 145.632c.006-.081-.012-.132-.047-.152 0-.001.001-.001.001-.001l-.005-.004c-.038-.018-.286-.178-.322-.199 0-.001.001-.001.001-.001l-.005-.003c-.038-.019-.095-.004-.164.045-.695.495-1.632.59-2.33.253-.095-.075-.183-.161-.26-.258-.004-.005-.008-.01-.012-.014h-.001c-.022-.026-.044-.046-.067-.059 0 0-.303-.19-.326-.203l-.011-.007c-.075-.039-.146-.004-.195.107-.698 1.576-2.123 3.148-3.051 3.522-.069.028-.133.072-.185.128-.067.072-.11.163-.11.258-.07 2.054.943 5.376 3.038 6.546.124.087.251.166.383.236 3.037-2.924 3.585-7.759 3.668-10.194z" fill="#ebebeb"/><path d="m360.737 155.589c-2.092-1.171-3.104-4.49-3.034-6.543 0-.056.016-.108.041-.158l.325.203c-.025.049-.04.102-.04.158-.067 1.944.835 5.023 2.708 6.34z" fill="#e0e0e0"/><path d="m364.793 145.632c-.083 2.435-.631 7.27-3.668 10.196-2.135-1.14-3.167-4.506-3.096-6.579 0-.096.043-.186.11-.258.051-.056.116-.1.185-.128.928-.374 2.354-1.946 3.051-3.522.05-.111.12-.146.195-.107l.011.007c.022.013.045.033.067.059h.001c.004.004.008.009.012.014.655.818 1.997.863 2.916.208.07-.049.127-.064.165-.045l.005.004s-.001 0-.001.001c.035.019.053.069.047.15z" fill="#fafafa"/><path d="m361.57 145.233c-.075-.039-.146-.004-.195.107-.698 1.576-2.123 3.148-3.051 3.522-.069.028-.133.072-.185.128-.067.072-.11.163-.11.258-.071 2.074.961 5.439 3.096 6.579 1.651-5.59.445-10.594.445-10.594z" fill="#f0f0f0"/><path d="m349.856 129.95-5.457-12.436 4.391-12.674v-7.758l-13.437 7.758v7.758l5.777 12.181c.098.169.238.28.393.349l-.003.005z" fill="#27debf"/><path d="m349.856 129.95-5.457-12.436 4.391-12.674v-7.758l-13.437 7.758v7.758l5.777 12.181c.098.169.238.28.393.349l-.003.005z" opacity=".2"/><path d="m390.067 55.139c0-2.569-1.803-5.693-4.028-6.978l-3.28-1.893c-2.225-1.285-5.832-1.285-8.057 0l-77.089 44.588c-2.225 1.285-4.029 4.408-4.029 6.978v30.765c0 2.57 1.804 5.693 4.029 6.978l3.28 1.894c2.225 1.285 5.832 1.285 8.058 0l34.84-19.986 5.765 12.161c.368.639 1.317.548 1.558-.148l6.093-19.763 28.833-16.851c2.225-1.284 4.028-4.408 4.028-6.978z" fill="#27debf"/><path d="m293.584 128.6c0 2.57 1.804 5.693 4.029 6.978l3.28 1.894c2.011 1.161 5.141 1.262 7.369.325-1.896.717-3.34-.353-3.34-2.65l-.001-30.766c0-1.285.451-2.708 1.18-3.971l-11.337-6.546c-.729 1.262-1.18 2.686-1.18 3.97z" opacity=".2"/><path d="m389.936 53.994c-.47-1.71-2.03-2.255-3.89-1.184l-77.098 44.595c-1.108.639-2.123 1.729-2.838 3.007l-11.333-6.541c.733-1.278 1.729-2.368 2.838-3.007l77.08-44.595c2.236-1.278 5.845-1.278 8.063 0l3.289 1.899c1.897 1.09 3.494 3.533 3.889 5.826z" fill="#fff" opacity=".5"/><path d="m310.482 123.128v-16.252c0-.363.05-.654.152-.874.099-.222.257-.395.469-.516l4.607-2.661c.168-.095.29-.064.368.097s.118.465.118.912v.8c0 .448-.04.798-.118 1.05-.078.25-.2.425-.368.52l-2.613 1.509v3.768l2.462-1.422c.167-.098.291-.066.369.095s.117.466.117.913v.8c0 .448-.038.797-.117 1.049-.078.251-.203.426-.369.522l-2.462 1.422v6.76c0 .551-.324 1.013-.973 1.387l-.669.387c-.649.372-.973.285-.973-.266z" fill="#455a64"/><path d="m317.251 110.964c0-6.156 1.464-10.08 4.39-11.77 1.43-.826 2.517-.704 3.259.363.744 1.067 1.115 3.183 1.115 6.347s-.371 5.709-1.115 7.636c-.743 1.925-1.83 3.299-3.259 4.125-2.926 1.69-4.39-.542-4.39-6.701zm5.38 2.235c.245-.485.429-1.19.552-2.113.123-.921.184-2.14.184-3.653 0-1.496-.061-2.634-.184-3.414-.123-.781-.307-1.271-.552-1.475-.248-.201-.571-.187-.973.045-.402.233-.729.593-.98 1.083s-.442 1.197-.571 2.121c-.128.927-.192 2.137-.192 3.633s.064 2.637.192 3.424c.129.786.319 1.279.571 1.476.25.2.577.183.98-.049.403-.233.726-.592.973-1.078z" fill="#455a64"/><path d="m327.556 113.27v-16.252c0-.363.053-.654.159-.879.107-.225.277-.405.512-.54l2.797-1.615c1.029-.593 1.855-.68 2.48-.259.626.424.939 1.545.939 3.367 0 2.012-.531 3.772-1.593 5.281v.103c.248.062.47.278.671.643s.352.794.453 1.287l.989 4.382.05.281c0 .463-.347.895-1.039 1.295l-.587.339c-.592.341-.928.304-1.006-.115l-.887-4.389c-.101-.32-.216-.52-.344-.601-.129-.081-.332-.04-.612.122l-.402.232v5.829c0 .551-.334 1.019-1.005 1.406l-.569.33c-.671.386-1.006.304-1.006-.247zm3.519-11.628c.245-.142.455-.451.628-.931.173-.479.261-1.08.261-1.8 0-.723-.087-1.202-.261-1.438-.172-.236-.399-.273-.678-.111l-.888.512v4.309z" fill="#455a64"/><path d="m336.353 108.72c-.101-.105-.151-.339-.151-.699v-16.021c0-.344.05-.628.151-.849.099-.221.257-.393.469-.515l3-1.732c2.346-1.356 3.519-.578 3.519 2.327 0 1.926-.504 3.636-1.508 5.126l.016.095c.569-.071 1.017.169 1.34.721.324.552.487 1.38.487 2.48 0 1.532-.322 2.946-.964 4.246-.643 1.299-1.589 2.31-2.84 3.033l-3.05 1.761c-.212.124-.369.132-.469.027zm3.485-12.472c.357-.206.622-.536.797-.989.174-.452.26-1.056.26-1.814 0-.74-.082-1.222-.244-1.447s-.422-.233-.779-.026l-1.19.686v4.258zm.118 7.515c.413-.238.718-.594.913-1.068.196-.474.293-1.124.293-1.95 0-.79-.095-1.299-.285-1.525-.189-.225-.497-.216-.921.029l-1.274.735v4.515z" fill="#455a64"/><path d="m345.15 103.112v-16.51c0-.567.323-1.038.973-1.413l.703-.406c.637-.368.955-.266.955.301v16.51c0 .568-.318 1.035-.955 1.403l-.703.405c-.65.375-.973.278-.973-.29z" fill="#455a64"/><path d="m349.775 100.971c-.101-.105-.152-.339-.152-.699v-15.995c0-.361.052-.653.152-.874.099-.222.257-.393.469-.516l3.184-1.838c1.451-.838 2.521-.707 3.208.392.688 1.099 1.031 3.164 1.031 6.191 0 3.026-.343 5.485-1.031 7.379-.687 1.893-1.757 3.258-3.208 4.096l-3.184 1.838c-.212.123-.369.132-.469.026zm3.57-5.195c.592-.342 1.016-1.011 1.272-2.012.257-.998.385-2.531.385-4.594 0-2.065-.128-3.447-.385-4.152-.257-.702-.68-.884-1.272-.543l-1.074.62v11.301z" fill="#455a64"/><path d="m359.444 95.39c-.101-.106-.151-.339-.151-.699v-15.996c0-.363.05-.654.151-.874.099-.222.257-.395.469-.516l3.184-1.838c1.452-.839 2.522-.708 3.208.392.688 1.099 1.031 3.163 1.031 6.189s-.343 5.485-1.031 7.381c-.686 1.892-1.755 3.257-3.208 4.096l-3.184 1.838c-.212.122-.37.131-.469.027zm3.569-5.197c.592-.341 1.015-1.011 1.272-2.011s.385-2.531.385-4.595-.128-3.448-.385-4.15c-.257-.703-.681-.884-1.272-.543l-1.074.62v11.3z" fill="#455a64"/><path d="m369.112 89.807c-.101-.105-.151-.339-.151-.699v-15.996c0-.361.05-.653.151-.874s.257-.393.469-.515l4.944-2.854c.167-.097.29-.063.369.095.078.162.116.466.116.914v.8c0 .448-.038.797-.116 1.049-.079.251-.203.425-.369.522l-2.95 1.703v3.741l2.615-1.509c.167-.097.29-.064.368.098s.118.463.118.911v.8c0 .447-.04.797-.118 1.048s-.201.426-.368.523l-2.615 1.509v4.178l2.967-1.712c.167-.098.286-.063.36.101.071.165.109.471.109.919v.8c0 .448-.037.794-.109 1.043-.074.249-.193.421-.36.516l-4.961 2.865c-.212.12-.368.128-.469.024z" fill="#455a64"/><path d="m376.534 84.992v-16.509c0-.551.323-1.011.972-1.388l.436-.251c.222-.127.403-.183.536-.167.134.016.245.147.336.387l3.014 6.67c.158.356.347.916.571 1.683l.068-.091c-.091-.842-.135-1.496-.135-1.961v-8.229c0-.549.324-1.011.972-1.386l.402-.232c.647-.375.972-.286.972.263v16.51c0 .551-.324 1.013-.972 1.388l-.319.184c-.224.13-.406.188-.552.177s-.264-.138-.352-.379l-3.2-6.923c-.101-.2-.252-.663-.453-1.389l-.084.124c.089.74.134 1.3.134 1.676v8.489c0 .551-.324 1.013-.973 1.387l-.401.23c-.649.378-.972.287-.972-.263z" fill="#455a64"/><path d="m124.696 425.236c8.415-8.683 13.359-44.023 5.151-50.91h-41.764c-8.206 6.885-3.268 42.212 5.142 50.902.072.081.155.159.23.239.096.096.193.194.29.286.238.233.49.461.761.684.066.056.134.105.201.16.206.163.41.328.635.485.359.257.721.497 1.088.703 6.923 4.042 18.146 4.042 25.068 0h.001c.37-.207.734-.449 1.095-.708.21-.147.398-.3.591-.452.083-.066.166-.128.249-.197.261-.216.504-.436.734-.66.113-.107.224-.219.334-.331.064-.067.134-.133.194-.201z" fill="#455a64"/><path d="m91.709 371.552c-9.529 5.564-9.529 14.584 0 20.148s24.979 5.564 34.509 0c9.529-5.563 9.529-14.584-.001-20.147-9.528-5.565-24.978-5.565-34.508-.001z" fill="#455a64"/><path d="m91.709 371.552c-9.529 5.564-9.529 14.584 0 20.148s24.979 5.564 34.509 0c9.529-5.563 9.529-14.584-.001-20.147-9.528-5.565-24.978-5.565-34.508-.001z" fill="#fff" opacity=".1"/><path d="m96.293 374.227c-6.998 4.086-6.998 10.71 0 14.796s18.344 4.086 25.342 0 6.998-10.71 0-14.796c-6.998-4.085-18.344-4.085-25.342 0z" fill="#263238"/><path d="m121.635 381.25c-6.998-4.086-18.344-4.086-25.342 0-1.944 1.135-3.327 2.469-4.192 3.887.864 1.418 2.248 2.752 4.192 3.887 6.998 4.086 18.344 4.086 25.342 0 1.944-1.135 3.328-2.469 4.192-3.887-.864-1.419-2.248-2.752-4.192-3.887z" fill="#f5f5f5"/><path d="m85.813 305.769 16.699 11.426-15.793-5.982s-.126 5.524 3.121 12.134c0 0 10.43 5.067 16.098 10.403l-13.892-4.368s-.753 2.96.431 7.255c.09.323.188.655.296.987.735 2.215 1.785 6.421 3.56 11.399 0 .009 0 .009.009.009 1.39 3.91 3.238 8.305 5.74 12.556 1.13 1.928 2.394 3.82 3.82 5.641.081.117.17.224.26.341 2.574-1.722 5.256-3.408 8.045-5.049 1.605-4.098 3.372-14.062 3.695-22.142 1.211-30.932-23.237-46.886-42.312-51.469 0-.002 6.977 7.586 10.223 16.859z" fill="#27debf"/><path d="m85.813 305.769 16.699 11.426-15.793-5.982s-.126 5.524 3.121 12.134c0 0 10.43 5.067 16.098 10.403l-13.892-4.368s-.753 2.96.431 7.255c.09.323.188.655.296.987.735 2.215 1.785 6.421 3.56 11.399 0 .009 0 .009.009.009 1.39 3.91 3.238 8.305 5.74 12.556 1.13 1.928 2.394 3.82 3.82 5.641.081.117.17.224.26.341 2.574-1.722 5.256-3.408 8.045-5.049 1.605-4.098 3.372-14.062 3.695-22.142 1.211-30.932-23.237-46.886-42.312-51.469 0-.002 6.977 7.586 10.223 16.859z" opacity=".3"/><path d="m99.128 306.12c1.762 1.465 3.099 3.336 4.344 5.233 1.15 1.963 2.201 3.985 3.054 6.095 1.738 4.203 2.96 8.61 3.744 13.082 1.577 8.94 1.192 18.25-1.469 26.888l-.003.01c-.073.235.059.485.295.557.235.072.485-.059.557-.295 0-.002.002-.005.002-.007 2.569-8.848 2.789-18.259 1.057-27.233-.862-4.49-2.163-8.898-3.977-13.09-.891-2.104-1.979-4.117-3.164-6.067-1.283-1.883-2.655-3.737-4.44-5.173z" fill="#fafafa"/><path d="m157.523 321.568s-.007.01-.023.023c-.378.487-6.29 5.643-15.362 21.073l-18.391 4.618 14.968 1.347-6.885 12.02-15.695 3.885 12.433 1.531s-2.963 12.189-11.612 17.559c-4.774 2.964-7.145 3.479-8.664 2.143-1.062-.934-1.525-6.708-2.579-11.836s-1.449-13.519 3.03-23.834c1.19-2.743 2.821-5.292 4.775-7.639 11.197-13.485 33.065-20.625 44.005-20.89z" fill="#27debf"/><path d="m157.523 321.568s-.007.01-.023.023c-.378.487-6.29 5.643-15.362 21.073l-18.391 4.618 14.968 1.347-6.885 12.02-15.695 3.885 12.433 1.531s-2.963 12.189-11.612 17.559c-4.774 2.964-7.145 3.479-8.664 2.143-1.062-.934-1.525-6.708-2.579-11.836s-1.449-13.519 3.03-23.834c1.19-2.743 2.821-5.292 4.775-7.639 11.197-13.485 33.065-20.625 44.005-20.89z" opacity=".15"/><path d="m112.168 355.34c-.009.002-.007.011-.007.011.002.009.002.009-.005.02-1.837 4.491-2.749 9.219-3.169 13.437.002.009-.007.01-.007.01l.002.009c-.256 2.623-.249 12.398.221 17.452-.332-.117-.641-.273-.91-.51-1.062-.934-1.525-6.708-2.58-11.835-1.054-5.128-1.449-13.519 3.03-23.834 1.19-2.743 2.821-5.292 4.775-7.639 11.197-13.486 33.065-20.625 44.005-20.89-16.68 3.396-34.291 15.264-42.704 28.596-1.048 1.661-1.911 3.388-2.651 5.173z" opacity=".1"/><path d="m140.907 327.48c-8.171 3.969-15.845 9.278-21.764 16.311-2.954 3.495-5.49 7.4-7.216 11.665-1.711 4.263-2.751 8.788-2.986 13.346-.001.025.018.046.042.047.023.001.043-.016.047-.038.743-4.493 1.892-8.884 3.718-13.007 1.794-4.125 4.1-8.041 6.945-11.558 2.844-3.515 6.16-6.647 9.756-9.407 3.59-2.774 7.463-5.182 11.498-7.278.022-.011.031-.038.02-.06s-.038-.031-.06-.021z" fill="#fafafa"/><path d="m60.051 333.254c1.203-.093 2.566-.106 4.052-.038 4.456.205 10.014 1.148 15.67 2.906 1.885.586 3.782 1.262 5.652 2.032.935.385 1.864.793 2.781 1.225 4.587 2.16 8.894 4.912 12.341 8.301 1.703 1.67 3.181 3.51 4.396 5.505.158.26.328.513.477.778.001.002.002.004.003.005.385.687.732 1.363 1.063 2.033 3.843 7.532 4.428 12.876 4.542 18.831.088 4.619-1.188 9.976-2.037 10.891-.117.125-.247.229-.385.32-1.268.91-3.385.538-7.413-1.431-8.071-3.945-11.759-14.866-11.759-14.866l10.78-2.451-14.126-2.015-6.166-8.538 10.337-2.478-14.313-1.397c-9.338-12.741-15.497-19.203-15.873-19.597-.015-.008-.022-.016-.022-.016z" fill="#27debf"/><path d="m64.103 333.216c4.456.205 10.014 1.148 15.67 2.906 1.885.586 3.782 1.262 5.652 2.032.935.385 1.864.793 2.781 1.225 4.587 2.16 8.894 4.912 12.341 8.301 1.703 1.67 3.181 3.51 4.396 5.505.158.26.328.513.477.778.001.002.002.004.003.005.385.687.732 1.363 1.063 2.033 3.843 7.532 4.428 12.876 4.542 18.831.088 4.619-1.188 9.976-2.037 10.891-.117.125-.247.229-.385.32-.244.175-.531.287-.844.365.569-7.201-3.95-25.129-9.685-32.289-5.968-7.449-19.728-17.968-38.003-20.848l.014-.019c1.194-.09 2.544-.104 4.015-.036z" opacity=".05"/><path d="m107.806 386.409c.093-5.3-.63-10.599-1.901-15.75-1.334-5.13-3.196-10.179-6.074-14.699-1.443-2.268-3.236-4.273-5.133-6.145-1.9-1.876-3.975-3.563-6.136-5.119-4.354-3.066-9.077-5.616-14.07-7.407-.023-.008-.049.004-.057.027-.008.022.003.046.023.056 4.785 2.258 9.373 4.888 13.579 8.046 2.11 1.564 4.146 3.23 6.049 5.035 1.905 1.801 3.702 3.729 5.15 5.902 2.89 4.372 4.83 9.35 6.238 14.42 1.377 5.087 2.217 10.346 2.243 15.636 0 .025.02.045.044.045.025-.003.044-.023.045-.047z" fill="#fafafa"/></svg>